<svg   xmlns="http://www.w3.org/2000/svg" viewBox="0 0 383.33 345"><path d="M235.83,140.5h95.84v38.33H235.83V140.5M178.33,198V83H389.17V198a57.5,57.5,0,0,1,57.5,57.5v115h-57.5V428H178.33V370.5H159.17V198h19.16m38.34-76.67V198H350.83V121.33H216.67m0,191.67v76.67H350.83V313H216.67m172.5-76.67a19.17,19.17,0,1,0,19.16,19.17,19.17,19.17,0,0,0-19.16-19.17M101.67,198h19.16A19.17,19.17,0,0,1,140,217.17V351.33a19.17,19.17,0,0,1-19.17,19.17H101.67a38.34,38.34,0,0,1-38.34-38.33V236.33A38.34,38.34,0,0,1,101.67,198Z" transform="translate(-63.33 -83)"/></svg>