<?xml version="1.0" standalone="no"?>
<!DOCTYPE svg PUBLIC "-//W3C//DTD SVG 20010904//EN"
 "http://www.w3.org/TR/2001/REC-SVG-20010904/DTD/svg10.dtd">
<svg version="1.0" xmlns="http://www.w3.org/2000/svg"
  viewBox="0 0 2756.000000 1129.000000"
 preserveAspectRatio="xMidYMid meet">

<g transform="translate(0.000000,1129.000000) scale(0.100000,-0.100000)"
fill="#000000" stroke="none">
<path d="M8155 11168 c-7 -4 -30 -8 -51 -8 -22 0 -64 -2 -94 -5 -30 -3 -74 -7
-98 -8 -23 -1 -46 -7 -50 -13 -4 -7 -26 -10 -49 -9 -26 1 -47 -3 -54 -11 -6
-7 -27 -17 -47 -20 -20 -4 -51 -16 -69 -26 -18 -11 -37 -17 -42 -13 -6 3 -30
-5 -55 -19 -24 -13 -47 -22 -50 -19 -3 4 -14 0 -23 -8 -34 -27 -61 -38 -80
-33 -13 4 -23 0 -26 -10 -6 -16 -54 -41 -69 -38 -5 1 -8 -3 -8 -8 0 -6 -7 -10
-15 -10 -7 0 -18 -6 -22 -13 -8 -14 -42 -31 -55 -29 -5 1 -8 -3 -8 -8 0 -6 -5
-10 -10 -10 -18 0 -164 -97 -202 -134 -20 -20 -49 -41 -63 -48 -14 -6 -25 -15
-25 -19 0 -9 -72 -83 -82 -84 -4 0 -29 -22 -57 -50 -27 -27 -68 -68 -90 -90
-23 -22 -41 -45 -41 -53 0 -7 -4 -10 -10 -7 -5 3 -10 2 -10 -2 0 -9 -39 -55
-100 -119 -17 -17 -30 -35 -30 -40 0 -5 -8 -16 -17 -25 -10 -8 -29 -30 -43
-48 -14 -19 -34 -44 -46 -56 -11 -12 -19 -26 -17 -32 2 -5 -7 -15 -20 -22 -13
-7 -32 -30 -41 -52 -10 -21 -31 -52 -47 -68 -16 -16 -29 -36 -29 -44 0 -8 -7
-20 -15 -27 -8 -7 -15 -19 -15 -26 0 -8 -4 -14 -10 -14 -5 0 -10 -6 -10 -13 0
-7 -8 -20 -17 -29 -25 -23 -35 -38 -53 -73 -21 -42 -57 -97 -75 -116 -9 -9
-13 -23 -10 -32 4 -8 1 -18 -4 -22 -6 -3 -18 -21 -26 -38 -8 -18 -19 -39 -23
-47 -19 -32 -47 -94 -48 -104 0 -6 -10 -33 -22 -60 -12 -27 -22 -52 -22 -56 0
-5 -8 -25 -19 -47 -29 -59 -61 -147 -61 -166 0 -10 -7 -34 -16 -55 -9 -20 -20
-50 -25 -67 -19 -70 -58 -174 -74 -198 -9 -14 -15 -36 -14 -49 2 -13 -11 -53
-29 -89 l-33 -66 -75 1 c-42 1 -78 -2 -80 -6 -3 -4 -18 -2 -35 4 -17 6 -47 8
-68 4 -29 -4 -42 -2 -52 10 -7 9 -21 13 -32 10 -11 -3 -28 -1 -38 4 -9 6 -46
12 -81 15 -109 8 -140 13 -151 24 -5 5 -23 7 -38 4 -17 -3 -38 0 -51 9 -19 12
-122 39 -163 43 -13 1 -66 15 -85 22 -22 9 -39 12 -100 19 -30 4 -62 12 -70
19 -8 7 -41 19 -74 26 -32 7 -64 17 -70 23 -21 19 -77 46 -95 46 -33 0 -81 22
-81 37 0 8 -8 13 -17 12 -22 -3 -69 16 -77 30 -4 6 -27 19 -51 30 -25 11 -45
25 -45 31 0 7 -6 10 -12 7 -16 -5 -88 35 -124 68 -15 14 -32 25 -39 25 -6 0
-21 11 -32 24 -12 13 -34 27 -51 30 -16 4 -44 22 -62 41 -19 19 -41 35 -49 35
-8 0 -24 9 -36 20 -11 10 -41 30 -65 43 -25 13 -49 33 -55 45 -5 12 -15 22
-21 22 -6 0 -35 23 -64 50 -29 28 -58 50 -64 50 -13 0 -66 73 -66 90 0 6 -20
30 -45 53 -25 24 -45 51 -45 60 0 10 -8 21 -17 24 -27 10 -53 46 -47 64 2 9
-2 19 -11 23 -8 3 -15 16 -15 30 0 14 -6 31 -14 39 -8 8 -13 23 -12 33 5 32
-101 213 -140 238 -57 38 -97 56 -113 51 -9 -3 -32 -1 -50 5 -21 6 -40 6 -51
0 -12 -6 -29 -6 -49 1 -27 9 -34 8 -58 -13 -16 -12 -28 -27 -29 -33 -2 -20
-29 -75 -37 -75 -18 0 14 -120 40 -152 8 -9 13 -22 12 -30 -1 -7 -1 -20 0 -28
1 -13 3 -13 12 0 9 12 10 12 5 -4 -4 -12 1 -26 14 -38 12 -11 24 -33 27 -50 3
-17 25 -49 49 -73 24 -23 44 -46 44 -49 0 -4 9 -17 21 -29 11 -12 48 -58 81
-102 66 -87 224 -245 245 -245 7 0 13 -11 13 -26 0 -14 4 -23 10 -19 12 7 71
-37 145 -108 28 -26 71 -58 98 -70 26 -12 50 -30 53 -39 3 -10 13 -18 22 -18
9 0 28 -9 42 -20 14 -11 31 -20 38 -20 6 0 12 -4 12 -10 0 -5 23 -21 50 -35
28 -14 50 -30 50 -36 0 -5 4 -8 9 -5 9 6 67 -36 83 -58 3 -5 13 -10 20 -12 8
-1 36 -16 64 -33 28 -17 59 -32 70 -34 11 -1 31 -12 44 -24 12 -12 27 -20 32
-17 10 7 108 -36 108 -48 0 -4 8 -8 19 -8 10 0 30 -9 43 -20 14 -10 28 -17 31
-14 3 3 16 -1 29 -10 12 -9 32 -16 45 -16 12 0 24 -4 28 -9 3 -5 18 -12 34
-16 16 -3 35 -13 42 -21 6 -8 22 -14 35 -14 12 0 35 -5 51 -12 33 -13 28 -12
73 -22 33 -8 68 -21 135 -51 32 -14 68 -22 152 -31 29 -4 58 -13 64 -20 8 -10
16 -11 29 -4 13 7 21 7 25 0 3 -5 19 -10 36 -10 16 0 29 -5 29 -11 0 -8 4 -8
14 0 11 10 22 9 47 -4 24 -13 37 -14 55 -6 18 8 28 6 47 -9 20 -16 34 -18 76
-13 32 4 51 2 51 -5 0 -5 17 -10 38 -10 20 0 53 -2 72 -5 19 -3 64 -8 99 -12
36 -3 70 -10 77 -16 14 -12 11 -77 -5 -108 -6 -11 -11 -35 -11 -53 0 -18 -9
-53 -20 -77 -11 -24 -20 -51 -20 -62 0 -10 -4 -21 -10 -24 -5 -3 -10 -17 -10
-30 0 -13 -8 -46 -17 -72 -9 -26 -17 -57 -18 -68 -2 -27 -14 -75 -26 -100 -22
-50 -32 -83 -36 -120 -3 -22 -8 -44 -13 -50 -4 -5 -13 -36 -20 -67 -6 -32 -16
-60 -21 -64 -5 -3 -7 -10 -4 -15 3 -5 -3 -29 -13 -53 -11 -24 -23 -59 -27 -77
-4 -19 -11 -38 -15 -44 -4 -5 -11 -30 -15 -55 -4 -25 -12 -51 -18 -58 -6 -8
-12 -23 -14 -34 -2 -10 -12 -39 -23 -63 -11 -24 -20 -53 -20 -63 0 -25 -45
-145 -66 -177 -9 -14 -13 -32 -9 -45 4 -12 0 -30 -8 -44 -9 -13 -19 -41 -23
-62 -4 -21 -17 -59 -30 -84 -13 -25 -24 -51 -24 -58 0 -7 -8 -29 -19 -50 -10
-20 -21 -54 -25 -74 -4 -21 -11 -38 -16 -38 -6 0 -10 -13 -10 -28 0 -15 -4
-32 -9 -37 -4 -6 -14 -31 -21 -58 -7 -26 -17 -50 -22 -53 -13 -9 -49 -84 -44
-93 3 -4 -4 -18 -15 -30 -11 -12 -17 -26 -14 -31 6 -9 -41 -106 -56 -115 -4
-3 -6 -12 -3 -20 3 -8 -3 -31 -14 -52 -38 -73 -65 -138 -64 -155 0 -10 -3 -18
-9 -18 -5 0 -9 -9 -9 -20 0 -11 -5 -20 -11 -20 -5 0 -17 -17 -25 -37 -9 -21
-33 -75 -55 -121 -21 -45 -39 -86 -39 -91 0 -5 -7 -14 -15 -21 -8 -7 -15 -20
-15 -30 0 -9 -9 -29 -21 -44 -11 -14 -17 -31 -14 -36 7 -12 -42 -90 -55 -90
-5 0 -6 -8 -3 -18 2 -10 -5 -26 -16 -36 -12 -11 -21 -23 -21 -28 0 -5 -9 -18
-20 -30 -10 -12 -17 -24 -15 -28 7 -11 -25 -71 -40 -76 -7 -3 -16 -21 -19 -40
-4 -19 -10 -34 -14 -34 -4 0 -16 -19 -27 -43 -11 -23 -32 -61 -48 -84 -15 -22
-25 -48 -21 -56 3 -8 -3 -23 -14 -33 -10 -11 -26 -32 -34 -49 -15 -31 -29 -56
-72 -135 -13 -25 -33 -55 -45 -67 -11 -12 -22 -33 -25 -47 -3 -14 -14 -39 -25
-55 -12 -16 -21 -36 -21 -45 0 -9 -15 -33 -33 -53 -18 -21 -43 -59 -55 -86
-13 -26 -28 -47 -33 -47 -5 0 -9 -6 -9 -13 0 -8 -18 -39 -40 -70 -22 -30 -40
-60 -40 -65 0 -5 -18 -32 -40 -60 -22 -27 -40 -57 -40 -66 0 -9 -4 -16 -9 -16
-5 0 -24 -26 -42 -57 -18 -32 -53 -87 -78 -123 -25 -36 -52 -77 -58 -93 -7
-16 -17 -26 -22 -23 -5 3 -7 -2 -4 -12 2 -10 -6 -27 -21 -41 -14 -14 -26 -30
-26 -37 0 -6 -11 -22 -25 -35 -13 -13 -25 -32 -25 -42 0 -10 -4 -16 -9 -13 -8
5 -36 -42 -33 -56 1 -4 -13 -18 -31 -32 -30 -23 -37 -24 -71 -15 -25 7 -44 21
-56 42 -11 18 -42 50 -70 71 -27 21 -50 43 -50 48 0 10 -110 118 -120 118 -8
0 -70 74 -70 83 0 4 -5 5 -10 2 -5 -3 -10 -2 -10 3 0 8 -62 55 -95 72 -43 22
-85 54 -85 63 0 7 -19 21 -42 32 -23 11 -53 30 -66 42 -12 12 -46 27 -75 34
-29 6 -63 20 -76 30 -13 11 -32 19 -42 19 -11 0 -19 4 -19 9 0 5 -16 9 -35 9
-20 0 -46 7 -58 15 -15 10 -29 12 -39 6 -10 -6 -27 -5 -45 3 -15 6 -46 12 -68
12 -22 1 -45 4 -50 8 -6 3 -46 2 -90 -4 -44 -6 -93 -11 -110 -13 -16 -1 -43
-7 -59 -14 -19 -8 -33 -8 -39 -2 -7 7 -23 3 -48 -10 -21 -10 -49 -19 -62 -19
-13 0 -33 -11 -45 -25 -13 -14 -27 -23 -33 -20 -5 4 -30 -3 -54 -15 -24 -12
-49 -19 -55 -15 -5 3 -13 -1 -16 -9 -3 -9 -15 -16 -25 -16 -10 0 -19 -4 -19
-9 0 -5 -10 -13 -22 -16 -13 -4 -34 -17 -48 -30 -14 -13 -36 -26 -49 -30 -13
-4 -37 -20 -52 -36 -16 -16 -33 -29 -38 -29 -5 0 -12 -8 -15 -17 -4 -10 -31
-36 -61 -57 -30 -22 -55 -43 -55 -46 0 -12 -37 -50 -49 -50 -7 0 -10 -4 -6 -9
5 -9 -32 -27 -47 -23 -5 1 -8 -5 -8 -14 0 -8 -6 -21 -12 -28 -7 -8 -19 -22
-26 -32 -7 -11 -16 -23 -20 -29 -4 -5 -16 -15 -27 -21 -11 -6 -26 -32 -34 -57
-8 -26 -20 -47 -28 -47 -7 0 -13 -4 -13 -10 0 -5 -7 -7 -16 -3 -12 4 -14 0 -8
-21 4 -16 2 -26 -5 -26 -6 0 -11 -6 -11 -14 0 -8 -13 -25 -28 -38 -16 -13 -27
-29 -24 -36 2 -6 -4 -19 -13 -28 -9 -9 -14 -23 -11 -30 3 -8 0 -11 -8 -8 -14
5 -37 -37 -42 -76 -2 -14 -13 -33 -24 -42 -12 -10 -23 -29 -24 -43 -2 -14 -8
-31 -14 -37 -7 -7 -12 -23 -12 -36 0 -13 -7 -30 -15 -39 -8 -8 -13 -19 -10
-24 4 -5 1 -9 -4 -9 -6 0 -11 -13 -11 -29 0 -16 -6 -31 -13 -34 -9 -3 -12 -16
-9 -37 3 -21 1 -31 -6 -26 -14 9 -25 -43 -12 -59 8 -10 6 -15 -8 -19 -13 -5
-22 -19 -26 -47 -4 -22 -13 -51 -22 -64 -10 -15 -12 -25 -4 -30 5 -3 9 -26 8
-50 -2 -23 -7 -41 -12 -37 -5 3 -6 -8 -2 -24 7 -28 7 -28 -8 -9 -21 27 -21 0
-1 -39 18 -35 19 -31 -2 -52 -13 -13 -14 -19 -5 -22 17 -5 15 -22 -3 -22 -17
0 -20 -17 -5 -22 13 -4 22 -88 10 -88 -9 0 -8 -10 7 -47 10 -29 9 -38 -7 -45
-11 -5 -9 -7 7 -7 17 -1 22 -6 20 -23 -1 -15 3 -22 11 -20 10 2 9 -5 -4 -27
-10 -18 -23 -28 -33 -25 -9 2 -2 -2 14 -10 17 -8 24 -15 18 -16 -18 0 -16 -20
2 -20 15 0 18 -11 17 -62 0 -19 5 -28 15 -28 13 0 13 -2 2 -17 -12 -14 -12
-16 1 -11 19 6 42 -39 34 -66 -6 -19 -5 -20 11 -6 17 14 18 13 12 -3 -8 -22
40 -127 59 -127 7 0 21 -12 31 -27 10 -16 28 -36 41 -46 12 -10 20 -23 17 -28
-4 -5 3 -9 14 -9 11 0 38 -21 62 -49 24 -28 48 -47 56 -44 8 3 13 -2 13 -12 0
-12 5 -15 20 -10 11 3 20 2 20 -3 0 -6 9 -8 20 -5 14 4 27 -2 40 -17 13 -15
20 -18 20 -9 0 8 8 4 20 -11 17 -22 21 -24 41 -12 18 12 23 12 30 1 4 -8 26
-14 48 -14 23 0 41 -2 41 -5 0 -3 20 -5 45 -6 25 0 45 2 45 6 0 11 59 10 66
-1 3 -5 11 -6 17 -2 16 10 28 12 117 19 41 3 80 9 85 12 6 4 26 7 45 9 19 1
36 6 38 12 2 6 7 9 11 7 8 -5 102 17 151 36 19 7 46 23 60 35 14 13 32 23 40
24 8 0 29 9 45 20 17 10 45 26 63 34 18 9 41 24 52 35 18 18 39 25 63 21 4 0
7 6 7 16 0 9 3 14 6 10 3 -3 13 2 23 11 49 47 97 83 141 105 14 6 40 26 59 44
18 18 41 35 50 38 9 2 54 41 101 85 47 44 90 80 95 80 6 1 24 19 40 40 17 21
35 39 42 40 6 0 37 29 68 65 32 36 61 62 66 59 5 -3 13 5 18 18 10 24 51 64
63 61 4 -2 10 6 13 17 4 11 13 20 21 20 8 0 14 7 14 15 0 9 15 31 32 49 18 19
40 43 49 55 8 11 34 41 57 65 23 25 42 49 42 54 0 5 9 17 20 27 11 10 20 22
20 27 0 5 12 21 27 36 16 15 41 45 57 67 17 22 39 49 50 60 12 11 28 31 37 44
12 19 20 23 35 16 22 -9 30 -12 44 -14 6 0 10 -9 10 -20 0 -12 13 -25 35 -35
19 -9 37 -21 40 -26 3 -5 12 -7 19 -4 7 3 30 -11 50 -30 21 -19 52 -38 69 -42
18 -3 45 -17 60 -30 16 -13 35 -24 43 -24 8 0 27 -11 41 -25 15 -13 40 -27 55
-30 15 -4 28 -10 28 -14 0 -3 21 -12 48 -20 26 -7 63 -19 82 -26 61 -24 90
-29 220 -40 41 -4 82 -9 90 -12 27 -10 114 -2 143 13 21 11 32 12 42 4 7 -6
16 -7 19 -2 3 5 33 17 68 27 35 11 69 25 76 32 14 13 27 17 50 14 7 -1 26 9
43 23 17 15 39 26 48 26 10 0 29 9 43 20 14 10 38 21 53 24 15 3 40 16 54 30
14 13 43 31 64 40 20 8 37 20 37 25 0 6 6 11 13 11 7 0 19 6 26 13 6 6 15 12
19 12 4 0 23 12 43 28 20 15 38 27 41 27 8 0 67 51 131 112 27 26 58 50 67 53
10 3 38 25 62 48 24 23 74 69 112 102 113 100 196 182 196 194 0 6 5 11 11 11
5 0 52 43 104 95 107 109 142 124 130 55 -7 -39 12 -150 25 -150 7 0 60 -102
60 -115 0 -4 6 -13 13 -20 6 -8 23 -28 37 -45 36 -45 83 -90 93 -90 5 0 27
-14 48 -31 21 -17 43 -28 48 -25 10 6 71 -22 83 -39 5 -6 11 -5 16 3 9 14 90
14 98 0 3 -4 14 -3 26 3 11 6 31 8 44 5 16 -4 34 1 53 15 18 13 36 19 47 15
10 -4 20 -3 23 1 3 4 29 19 56 32 64 31 176 104 200 131 10 11 21 20 25 20 4
0 29 21 56 46 64 61 84 77 114 96 14 9 59 51 100 94 41 42 98 99 125 125 28
27 53 52 58 56 4 5 43 45 87 90 44 46 84 83 90 83 14 0 32 -39 24 -51 -4 -6
-2 -14 3 -18 11 -7 43 -74 43 -90 0 -14 98 -156 108 -156 4 0 27 -15 50 -33
23 -18 52 -34 64 -34 13 -1 28 -5 33 -9 16 -12 157 -43 185 -41 14 1 40 3 58
4 17 1 32 5 32 9 0 8 34 21 60 24 8 1 25 6 36 13 12 6 39 14 59 16 21 3 47 14
59 25 11 10 30 21 41 23 10 1 32 17 48 35 15 18 46 40 68 49 21 10 39 24 39
31 0 7 7 13 15 13 8 0 15 5 15 10 0 6 8 13 18 17 19 6 24 11 242 227 86 84
164 170 175 190 21 39 45 69 67 83 17 10 114 156 110 166 -1 4 2 7 7 7 10 0
71 115 71 135 0 7 7 15 15 18 18 7 68 170 60 196 -10 31 -52 44 -88 26 -16 -8
-34 -15 -39 -15 -5 0 -22 -13 -37 -28 -16 -15 -55 -42 -87 -59 -33 -18 -79
-50 -102 -73 -23 -23 -42 -38 -42 -33 0 4 -9 -7 -21 -26 -11 -18 -29 -35 -40
-38 -10 -3 -19 -10 -19 -15 0 -7 -232 -241 -297 -299 -10 -9 -32 -32 -50 -52
-17 -20 -35 -37 -40 -37 -5 0 -31 -22 -58 -50 -27 -27 -51 -48 -53 -45 -2 2
-15 -9 -29 -26 -14 -16 -31 -29 -39 -29 -8 0 -14 -5 -14 -11 0 -5 -4 -8 -8 -5
-5 3 -19 -6 -30 -19 -12 -14 -27 -25 -32 -25 -6 0 -34 -15 -62 -34 -28 -19
-56 -32 -63 -30 -7 3 -30 -4 -51 -15 -46 -25 -54 -26 -54 -7 0 8 -5 16 -11 18
-18 6 -14 194 6 276 10 39 21 72 26 72 4 0 12 23 18 52 12 54 27 81 41 73 5
-3 6 5 2 17 -3 14 -2 19 6 14 8 -5 12 1 12 18 0 14 13 37 30 54 17 17 30 40
30 51 0 11 5 23 10 26 6 3 10 15 10 25 0 11 5 17 13 15 22 -8 62 71 63 126 0
27 -3 52 -8 55 -4 3 -8 13 -8 23 0 9 -18 35 -39 58 -21 22 -41 49 -43 59 -2
10 -12 20 -23 21 -52 6 -81 11 -95 17 -8 3 -24 7 -35 9 -11 1 -25 6 -32 10 -6
4 -31 4 -55 0 -24 -4 -46 -6 -50 -5 -12 3 -108 -109 -108 -128 0 -11 -25 -44
-55 -75 -30 -31 -55 -60 -55 -63 0 -3 -9 -15 -20 -27 -31 -31 -74 -86 -107
-135 -17 -25 -44 -59 -59 -76 -16 -16 -64 -67 -106 -113 -43 -45 -78 -87 -78
-92 0 -6 -4 -7 -10 -4 -5 3 -10 2 -10 -3 0 -15 -57 -82 -64 -75 -3 3 -6 1 -6
-5 0 -6 -31 -42 -70 -81 -38 -39 -70 -74 -70 -77 0 -11 -48 -52 -54 -46 -3 3
-6 -1 -6 -9 0 -18 -61 -79 -78 -79 -7 0 -17 -11 -23 -23 -6 -13 -33 -37 -60
-53 -27 -15 -49 -33 -49 -38 0 -12 -78 -86 -90 -86 -4 0 -22 -13 -40 -30 -18
-16 -36 -27 -41 -24 -5 3 -9 0 -9 -5 0 -6 -6 -11 -13 -11 -8 0 -22 -9 -32 -20
-12 -13 -25 -18 -38 -14 -14 4 -25 0 -36 -15 -15 -19 -18 -19 -41 -6 -14 8
-32 17 -40 21 -19 10 -45 45 -46 64 -1 8 -5 23 -9 33 -4 9 -5 27 -2 40 3 12
10 38 14 57 5 19 6 51 2 70 -4 20 -3 40 3 47 5 7 7 16 4 22 -10 16 6 71 20 71
8 0 14 8 14 18 0 11 7 33 16 50 8 18 16 42 18 54 1 13 9 34 16 48 8 14 13 31
12 38 -2 6 4 12 13 12 17 0 20 11 5 26 -12 12 -1 54 14 54 6 0 19 12 28 28 10
15 33 44 52 65 47 50 57 89 39 152 -8 28 -17 68 -21 90 -5 29 -14 43 -33 52
-15 7 -34 24 -43 38 -9 14 -21 23 -26 20 -5 -3 -13 1 -17 10 -6 9 -25 16 -51
17 -24 1 -45 5 -48 10 -7 11 -52 10 -56 -1 -1 -6 -16 -12 -33 -15 -16 -2 -31
-5 -32 -6 -2 -2 -7 -3 -12 -4 -6 0 -16 -7 -22 -13 -7 -7 -20 -13 -29 -13 -21
0 -73 -65 -97 -119 -10 -22 -23 -41 -30 -41 -7 0 -13 -7 -13 -15 0 -8 -4 -15
-8 -15 -5 0 -14 -16 -22 -35 -7 -19 -19 -36 -27 -39 -7 -3 -13 -11 -13 -18 0
-7 -8 -18 -17 -24 -10 -6 -28 -32 -41 -57 -13 -25 -32 -49 -42 -52 -11 -4 -20
-10 -20 -15 0 -14 -81 -105 -96 -108 -8 -2 -14 -9 -14 -17 0 -7 -24 -37 -52
-68 -29 -30 -89 -94 -133 -143 -102 -113 -163 -173 -168 -168 -2 2 -13 -8 -23
-22 -10 -15 -30 -36 -43 -48 -12 -12 -42 -40 -66 -64 -23 -23 -46 -42 -51 -42
-5 0 -30 -22 -55 -48 -25 -26 -51 -46 -57 -44 -6 2 -16 -7 -23 -20 -12 -23
-78 -87 -90 -88 -7 0 -21 -12 -114 -95 -27 -25 -58 -45 -67 -45 -9 0 -21 -6
-25 -13 -11 -18 -59 -47 -78 -47 -8 0 -15 -7 -15 -15 0 -8 -6 -15 -13 -15 -8
0 -22 -9 -32 -20 -10 -11 -21 -17 -26 -15 -4 3 -14 -4 -22 -15 -14 -21 -74
-47 -84 -36 -3 3 -17 -4 -31 -14 -13 -11 -32 -20 -41 -20 -9 0 -28 -7 -44 -15
-34 -18 -122 -35 -204 -40 -50 -3 -64 -1 -72 12 -6 11 -24 17 -56 19 -26 1
-50 6 -54 11 -7 11 -47 11 -57 0 -12 -11 -19 -8 -50 18 -16 14 -34 25 -40 25
-16 0 -74 30 -74 39 0 4 -17 17 -38 29 -21 11 -46 30 -56 41 -10 11 -23 18
-29 14 -6 -4 -8 0 -4 10 4 12 1 17 -12 17 -20 0 -81 51 -81 68 0 7 -11 22 -24
33 -16 13 -22 27 -18 38 5 15 63 94 94 131 7 8 28 39 47 68 18 28 36 52 40 52
3 0 13 15 20 32 16 36 58 100 70 108 5 3 16 20 25 38 10 19 33 54 53 80 19 25
39 57 44 71 5 13 49 82 97 154 48 71 98 149 112 172 31 53 81 126 97 143 7 7
13 19 13 27 0 14 30 76 41 85 8 7 111 188 132 231 9 20 23 42 32 49 8 7 15 18
15 25 0 8 5 15 12 17 6 2 13 15 15 28 2 13 9 28 16 32 6 4 8 8 4 8 -4 0 3 15
16 33 13 17 45 76 71 130 26 53 52 97 57 97 5 0 9 6 9 13 0 6 12 35 25 62 14
28 25 56 25 63 0 6 7 12 15 12 10 0 15 10 15 30 0 17 4 30 8 30 4 0 21 27 37
61 16 34 35 63 42 66 7 3 13 13 13 23 0 10 10 39 22 66 12 27 22 51 23 54 0 3
10 19 23 37 12 17 22 36 22 42 0 6 5 11 10 11 6 0 10 7 10 15 0 29 32 95 47
95 8 0 11 5 8 10 -7 12 15 80 26 80 4 0 11 15 15 32 3 18 13 43 21 55 9 13 12
23 8 23 -5 0 -1 8 8 18 10 10 14 22 10 26 -4 4 0 12 10 17 9 6 15 14 12 19 -3
5 5 29 18 52 13 24 29 60 36 81 7 20 19 37 27 37 10 0 13 7 8 24 -4 17 1 31
15 45 12 12 21 27 20 34 -1 7 5 29 14 49 10 21 17 42 17 48 0 5 4 10 9 10 5 0
12 15 16 33 4 17 15 51 26 74 10 24 19 49 19 56 0 7 7 23 16 35 9 13 13 29 10
37 -2 7 8 38 23 69 16 30 27 57 25 59 -2 2 9 29 25 59 17 31 28 58 25 60 -6 6
16 68 25 68 3 0 7 19 7 42 1 26 8 46 18 53 8 7 13 15 10 18 -9 9 16 80 32 93
8 7 14 16 12 20 -3 13 13 77 22 89 5 6 8 12 8 15 -1 6 20 77 31 105 5 11 14
33 20 49 7 16 10 31 7 34 -3 2 1 17 9 33 8 15 15 39 15 52 0 12 4 27 10 33 5
5 23 61 40 124 57 215 63 235 73 241 5 4 7 12 3 17 -4 6 -3 19 2 29 21 41 31
70 37 110 4 24 10 45 15 48 4 3 11 29 15 60 3 30 10 57 14 59 4 3 8 20 9 37 0
18 7 36 15 41 9 4 15 24 15 49 1 24 8 49 17 59 9 10 14 24 10 29 -7 12 12 74
34 109 22 37 69 64 108 64 21 0 48 4 61 9 16 6 29 6 38 -2 10 -8 18 -8 27 -1
6 5 28 9 47 8 19 -1 55 4 79 11 24 7 47 11 51 8 4 -2 45 0 91 6 77 9 117 13
219 23 19 2 46 6 60 9 88 15 117 20 130 22 8 1 31 6 50 13 47 15 108 25 144
23 16 -1 33 4 37 10 3 6 26 12 50 13 24 1 55 8 68 15 13 7 35 11 49 8 17 -3
37 2 53 14 15 11 38 17 51 15 12 -2 34 5 47 15 13 11 33 19 45 19 11 0 40 7
64 15 24 9 48 13 53 10 5 -4 9 -3 9 2 0 11 50 33 75 33 11 0 29 6 40 14 11 7
35 17 54 21 18 4 49 18 68 30 19 13 41 21 49 18 8 -3 14 0 14 7 0 6 4 9 10 5
5 -3 19 4 30 15 12 12 28 19 36 16 8 -3 14 -1 14 5 0 6 4 8 9 4 6 -3 13 1 18
9 8 14 143 86 161 86 5 0 28 15 51 33 23 19 48 34 55 34 15 0 86 54 86 66 0 5
4 5 10 2 5 -3 28 13 49 35 23 24 45 39 51 35 7 -4 14 2 17 14 3 12 10 21 17
21 6 0 17 9 24 21 7 11 19 19 26 16 7 -3 30 13 51 34 22 22 45 37 52 35 7 -3
13 1 13 9 0 8 4 15 9 15 5 0 19 16 32 35 13 19 29 35 36 35 6 0 37 25 68 55
30 30 57 55 59 55 7 0 98 95 118 123 12 16 33 36 48 45 26 16 30 22 30 40 0 4
23 32 50 62 27 30 50 59 50 64 0 4 11 22 25 38 14 17 35 49 46 71 12 22 29 49
40 60 10 12 19 23 20 26 5 38 13 59 28 76 10 11 22 33 25 50 9 36 51 127 82
175 12 19 25 55 28 79 4 24 10 49 13 55 9 14 6 108 -4 115 -7 5 -43 74 -48 91
-9 30 -27 60 -35 60 -5 0 -10 5 -10 11 0 13 -31 82 -41 89 -3 3 -10 16 -14 29
-4 13 -24 41 -44 61 -20 21 -54 59 -76 85 -124 147 -183 199 -273 246 -18 10
-42 29 -53 43 -11 13 -30 28 -42 32 -12 4 -34 15 -49 25 -14 11 -34 19 -45 19
-10 0 -33 9 -51 20 -18 11 -41 20 -51 20 -10 0 -34 7 -53 14 -19 8 -45 12 -57
9 -14 -3 -26 -1 -31 7 -4 7 -25 14 -46 15 -44 3 -74 13 -74 25 0 10 -127 8
-145 -2z m160 -338 c6 -5 27 -5 50 0 22 5 42 5 45 1 3 -5 22 -11 42 -15 21 -4
44 -14 53 -23 9 -8 19 -13 22 -9 3 3 12 1 20 -5 7 -6 13 -8 13 -5 0 4 14 -1
30 -11 17 -9 30 -22 30 -28 0 -6 16 -17 35 -23 18 -7 46 -27 61 -45 15 -18 30
-32 33 -33 25 -3 56 -26 119 -88 53 -52 82 -90 106 -141 42 -88 47 -103 36
-110 -5 -3 -7 -12 -3 -20 3 -9 1 -28 -5 -43 -5 -15 -15 -47 -23 -72 -7 -25
-19 -50 -27 -57 -8 -7 -12 -19 -9 -27 4 -9 2 -18 -2 -20 -5 -3 -21 -32 -36
-63 -15 -32 -38 -71 -50 -88 -12 -16 -25 -41 -28 -55 -3 -14 -22 -43 -42 -64
-19 -21 -35 -44 -35 -51 0 -6 -13 -24 -30 -38 -16 -15 -30 -32 -30 -38 0 -12
-49 -67 -102 -117 -16 -14 -28 -32 -28 -39 0 -8 -4 -11 -10 -8 -5 3 -10 0 -10
-8 0 -21 -43 -67 -63 -67 -9 0 -17 -7 -17 -17 0 -9 -3 -13 -7 -10 -3 4 -11 -3
-17 -15 -6 -13 -22 -28 -35 -34 -13 -7 -45 -34 -73 -60 -27 -27 -51 -48 -54
-46 -9 5 -31 -13 -43 -35 -6 -13 -19 -23 -29 -23 -9 0 -33 -17 -52 -36 -19
-20 -50 -43 -67 -50 -18 -8 -33 -19 -33 -25 0 -5 -16 -17 -35 -25 -19 -8 -35
-19 -35 -24 0 -6 -5 -10 -11 -10 -6 0 -24 -11 -41 -25 -16 -14 -35 -25 -42
-25 -7 0 -27 -11 -46 -25 -19 -14 -43 -25 -55 -25 -12 0 -32 -11 -45 -25 -13
-14 -30 -25 -37 -25 -8 0 -33 -13 -56 -29 -23 -15 -53 -32 -67 -36 -14 -4 -37
-16 -52 -26 -14 -11 -35 -19 -46 -19 -12 0 -23 -4 -26 -9 -4 -5 -25 -12 -49
-16 -23 -4 -52 -16 -64 -27 -16 -15 -29 -18 -53 -13 -23 5 -36 2 -50 -10 -10
-9 -33 -17 -51 -17 -19 0 -42 -7 -51 -16 -10 -8 -30 -14 -45 -14 -15 0 -35 -7
-44 -15 -9 -7 -32 -15 -50 -17 -19 -2 -41 -6 -49 -9 -8 -3 -31 -8 -50 -10 -19
-2 -48 -9 -65 -15 -43 -16 -326 -67 -350 -64 -10 1 -35 -4 -55 -12 -24 -9 -41
-11 -53 -5 -11 7 -26 5 -48 -6 -21 -11 -35 -13 -41 -7 -6 6 -22 7 -37 3 -14
-4 -37 -5 -51 -1 -15 4 -34 1 -46 -7 -12 -8 -43 -12 -74 -11 l-52 2 6 60 c3
33 9 62 14 65 4 3 8 22 10 41 1 19 9 45 18 57 8 13 16 37 18 54 2 17 9 36 15
42 6 6 11 22 11 36 0 13 11 48 25 78 14 29 25 59 23 66 -2 6 7 28 18 47 12 19
30 56 40 82 10 27 25 48 33 48 7 0 11 6 8 14 -3 7 10 46 29 85 19 39 34 75 34
80 0 5 10 21 22 36 12 16 23 36 23 47 1 10 12 30 26 44 13 14 24 31 24 37 2
22 18 52 42 74 13 12 23 26 23 30 0 4 17 31 38 59 22 28 42 61 45 75 3 13 27
47 52 74 24 28 45 55 45 61 0 16 46 55 61 52 9 -2 13 4 11 14 -2 10 2 28 9 40
11 23 79 92 79 81 0 -3 12 12 26 33 14 21 43 55 63 74 21 19 43 45 50 58 6 12
18 22 26 22 8 0 15 4 15 10 0 5 3 9 8 8 4 -1 30 21 59 50 29 29 54 52 57 52 3
0 27 23 53 50 26 28 52 50 56 50 5 0 18 11 29 25 11 14 23 23 28 20 4 -2 24
11 44 30 22 20 48 35 62 35 13 0 29 9 36 21 12 18 71 50 195 105 24 11 43 23
43 27 0 5 4 5 10 2 5 -3 29 3 52 13 53 23 71 30 79 28 4 0 15 7 25 16 11 9 38
18 61 21 23 2 49 10 57 17 10 7 26 10 42 6 14 -4 31 -3 37 3 7 5 34 12 62 16
27 3 51 8 53 9 7 8 147 4 157 -4z m-6360 -7492 c5 0 27 3 49 6 21 4 44 2 50
-3 6 -5 30 -8 54 -6 33 2 45 -2 53 -16 5 -11 20 -19 32 -19 12 -1 33 -7 47
-15 14 -8 35 -14 46 -15 13 0 24 -8 27 -20 3 -11 13 -23 24 -26 10 -4 30 -18
45 -32 15 -13 38 -24 52 -24 14 0 26 -4 26 -9 0 -5 -5 -9 -10 -9 -14 0 22 -49
36 -50 9 0 134 -117 134 -126 0 -9 70 -74 79 -74 6 0 11 -9 11 -20 0 -14 5
-18 17 -13 12 5 15 2 10 -10 -7 -19 77 -112 93 -102 9 5 15 -14 11 -37 0 -3
15 -22 35 -42 28 -28 34 -40 28 -58 -4 -13 -12 -26 -18 -30 -34 -22 -46 -34
-46 -46 0 -7 -15 -28 -32 -47 -18 -19 -55 -67 -83 -107 -27 -40 -72 -94 -98
-120 -27 -26 -45 -53 -42 -59 4 -6 -2 -13 -14 -16 -12 -3 -21 -13 -21 -24 0
-11 -4 -19 -10 -19 -5 0 -36 -27 -67 -60 -32 -33 -63 -60 -69 -60 -6 0 -15 -9
-20 -19 -11 -24 -81 -101 -92 -101 -4 0 -13 -12 -20 -27 -12 -25 -92 -93 -110
-93 -4 0 -16 -14 -27 -30 -11 -16 -23 -30 -26 -30 -4 0 -25 -18 -48 -40 -28
-27 -46 -38 -58 -33 -13 5 -15 2 -10 -11 5 -12 0 -19 -18 -26 -14 -5 -25 -14
-25 -19 0 -5 -11 -12 -25 -15 -16 -4 -22 -11 -19 -21 4 -10 0 -15 -14 -15 -11
0 -30 -12 -42 -27 -12 -16 -24 -26 -27 -24 -8 7 -43 -22 -43 -36 0 -7 -8 -13
-18 -13 -26 0 -72 -23 -72 -36 0 -13 -69 -49 -77 -40 -4 3 -12 -2 -19 -12 -11
-16 -48 -37 -129 -74 -11 -5 -31 -10 -45 -12 -33 -4 -63 -17 -73 -30 -6 -8
-10 -7 -14 1 -3 9 -11 8 -30 -4 -14 -9 -48 -18 -77 -20 -28 -1 -76 -5 -106 -7
-39 -4 -64 0 -88 12 -29 15 -34 15 -43 2 -8 -11 -12 -12 -16 -2 -2 6 -14 12
-25 12 -12 0 -22 8 -25 20 -4 15 -9 18 -17 10 -13 -10 -76 8 -76 22 0 4 -7 8
-15 8 -9 0 -15 10 -15 26 0 20 -4 25 -16 20 -11 -4 -15 -2 -11 8 3 8 -1 20 -9
26 -8 7 -14 18 -14 26 0 7 -8 17 -17 22 -9 5 -17 20 -18 33 -2 33 -9 53 -19
60 -4 4 -9 20 -10 36 -2 16 -6 35 -10 41 -4 7 -4 17 0 23 3 6 6 64 6 128 0 66
4 121 10 128 7 9 7 13 0 13 -5 0 -9 20 -9 45 0 25 4 45 9 45 4 0 8 14 8 30 0
17 3 30 8 30 4 0 7 24 7 53 -1 28 3 59 7 67 16 32 38 93 38 108 0 8 11 25 25
38 19 17 25 33 25 64 0 25 5 43 14 46 8 3 12 13 8 26 -4 17 -2 20 11 15 11 -4
14 -2 10 9 -3 8 2 26 12 40 9 14 30 51 47 83 17 31 38 62 47 69 9 7 15 15 14
17 -7 12 0 24 42 75 25 30 45 58 45 62 0 11 38 48 48 48 5 0 14 15 22 34 8 22
22 37 37 41 12 3 23 12 23 21 0 28 90 117 153 151 12 6 39 27 60 47 21 20 46
36 56 36 9 0 27 9 39 20 12 11 30 21 40 23 11 1 31 11 45 20 15 9 37 18 49 20
13 1 31 10 42 19 10 9 37 20 60 23 22 4 46 11 51 15 13 11 101 18 135 11 13
-2 29 -4 35 -3z m-1275 -2342 c0 -3 -4 -8 -10 -11 -5 -3 -10 -1 -10 4 0 6 5
11 10 11 6 0 10 -2 10 -4z m280 -106 c0 -5 -7 -7 -15 -4 -8 4 -15 8 -15 10 0
2 7 4 15 4 8 0 15 -4 15 -10z"/>
<path d="M17718 10859 c-18 -14 -38 -24 -45 -22 -7 3 -13 -1 -13 -8 0 -7 -3
-10 -6 -6 -4 3 -22 -5 -42 -18 -19 -13 -39 -22 -44 -19 -5 3 -27 -8 -50 -25
-23 -17 -46 -31 -50 -31 -5 0 -18 -9 -29 -19 -12 -11 -33 -22 -47 -26 -15 -3
-36 -15 -47 -26 -23 -22 -89 -73 -140 -109 -19 -14 -49 -37 -65 -52 -16 -16
-34 -29 -40 -29 -5 -1 -14 -2 -20 -3 -5 0 -22 -15 -37 -31 -16 -17 -49 -41
-76 -54 -26 -12 -47 -28 -47 -34 0 -7 -15 -19 -32 -26 -32 -15 -91 -51 -116
-71 -7 -6 -16 -9 -21 -6 -5 3 -14 0 -20 -8 -6 -7 -25 -16 -41 -19 -16 -4 -41
-17 -55 -29 -15 -13 -32 -23 -38 -23 -7 0 -18 -4 -24 -8 -7 -5 -13 -5 -13 -2
0 3 -10 -3 -22 -15 -12 -11 -29 -21 -37 -21 -31 -2 -36 -4 -62 -22 -15 -10
-40 -20 -55 -23 -16 -3 -36 -12 -44 -19 -9 -8 -25 -16 -36 -18 -10 -2 -41 -13
-68 -25 -27 -12 -52 -22 -57 -22 -5 0 -27 -9 -49 -21 -22 -12 -46 -19 -54 -16
-8 3 -22 -3 -31 -13 -9 -10 -36 -21 -59 -24 -24 -4 -52 -13 -62 -21 -11 -8
-29 -15 -41 -15 -12 0 -24 -4 -28 -9 -12 -20 -63 -39 -74 -28 -8 8 -11 8 -11
-1 0 -9 -61 -28 -80 -24 -3 0 -12 -5 -20 -13 -8 -7 -39 -16 -67 -20 -29 -4
-53 -11 -53 -15 0 -5 -21 -12 -47 -16 -27 -3 -61 -14 -78 -24 -16 -9 -38 -15
-48 -13 -10 3 -24 -1 -32 -7 -8 -6 -29 -10 -48 -9 -19 2 -42 -3 -50 -10 -9 -7
-31 -11 -49 -10 -18 2 -40 -1 -48 -6 -47 -30 -63 -35 -77 -24 -10 9 -19 9 -36
0 -12 -6 -35 -11 -52 -12 -89 -1 -132 -6 -151 -16 -12 -7 -24 -10 -26 -7 -11
10 -51 13 -67 5 -25 -14 -80 -20 -86 -11 -3 5 -17 5 -32 -1 -14 -5 -35 -6 -47
-3 -29 10 -127 11 -133 2 -2 -5 -18 -8 -34 -8 -39 0 -56 39 -38 84 7 17 15 33
18 36 3 3 25 43 48 91 l43 85 -15 82 c-14 82 -26 101 -85 142 -4 3 -9 14 -11
25 -3 14 -15 22 -39 26 -19 3 -57 17 -85 30 -42 20 -64 24 -133 23 -45 -1 -88
-6 -95 -12 -6 -5 -28 -13 -47 -17 -19 -4 -40 -11 -46 -17 -7 -5 -28 -10 -48
-12 -19 -2 -46 -11 -60 -20 -14 -9 -29 -16 -34 -16 -5 0 -20 -10 -34 -22 -52
-47 -73 -63 -80 -60 -5 1 -8 -3 -8 -9 0 -5 -4 -8 -8 -5 -23 14 -121 -139 -102
-158 5 -5 10 -25 10 -43 0 -19 7 -50 15 -70 8 -19 15 -41 15 -49 0 -7 20 -34
45 -60 25 -25 45 -51 45 -56 0 -6 26 -35 58 -65 35 -34 52 -57 45 -60 -7 -2
-13 -13 -13 -22 0 -10 -21 -40 -47 -68 -74 -76 -101 -109 -108 -132 -3 -12
-12 -21 -18 -21 -7 0 -28 -22 -47 -47 -19 -26 -55 -65 -78 -87 -24 -23 -94
-92 -155 -153 -62 -62 -117 -113 -123 -113 -6 0 -16 -11 -21 -23 -6 -13 -26
-35 -43 -48 -18 -13 -44 -37 -58 -53 -15 -16 -36 -36 -46 -45 -11 -9 -46 -40
-78 -70 -32 -30 -58 -50 -58 -45 0 5 -7 -2 -16 -14 -8 -12 -21 -22 -27 -22 -7
0 -18 -9 -25 -20 -7 -11 -19 -20 -27 -20 -8 0 -30 -16 -50 -37 -19 -20 -35
-33 -35 -28 0 4 -6 2 -13 -4 -8 -6 -16 -8 -20 -5 -3 3 -10 -4 -17 -15 -6 -12
-17 -21 -25 -21 -8 0 -15 -5 -15 -10 0 -6 -8 -13 -17 -17 -10 -3 -34 -19 -54
-35 -20 -15 -41 -28 -47 -28 -5 0 -15 -7 -22 -15 -7 -8 -20 -15 -30 -15 -9 0
-34 -11 -54 -25 -20 -14 -45 -25 -54 -25 -10 0 -23 -5 -30 -12 -7 -7 -12 -8
-12 -4 0 5 -7 3 -15 -4 -8 -7 -15 -9 -15 -5 0 4 -11 0 -25 -9 -19 -13 -30 -14
-45 -6 -11 6 -25 8 -30 5 -5 -3 -11 -1 -15 4 -5 9 -60 8 -160 -3 -12 -1 -32
-12 -45 -24 -13 -12 -27 -22 -31 -22 -3 0 -3 -18 1 -40 4 -22 6 -40 3 -40 -10
0 33 -66 62 -96 37 -37 161 -98 183 -89 8 3 20 1 26 -4 16 -14 210 17 263 41
24 11 49 18 55 15 7 -2 28 4 45 15 18 11 37 17 42 14 5 -3 19 5 32 17 24 24
57 42 72 39 4 -1 7 3 7 8 0 6 5 10 11 10 6 0 22 14 36 31 14 16 31 28 38 25 7
-2 21 5 32 16 25 28 69 49 87 42 11 -4 16 0 16 14 0 14 12 27 37 39 20 9 59
39 85 65 27 26 54 48 62 48 8 0 21 11 30 25 9 14 27 27 41 31 14 3 25 10 25
15 0 14 141 152 203 198 31 24 57 47 57 52 0 5 6 9 13 9 15 0 87 76 87 91 0 5
8 9 18 9 21 0 42 18 42 37 0 6 10 23 23 36 12 13 48 51 80 85 31 33 57 65 57
71 0 6 6 11 13 12 11 0 36 29 123 143 18 23 59 70 93 106 33 36 61 68 61 73 0
4 6 7 13 7 7 0 18 10 25 21 11 18 20 20 50 15 78 -14 118 -18 155 -17 21 1 43
-2 50 -6 6 -4 54 -8 105 -10 52 -1 100 -7 107 -13 6 -5 15 -7 18 -4 7 7 108
16 147 13 30 -2 69 0 130 6 25 2 70 6 100 8 31 2 66 9 77 16 15 8 24 8 28 0 5
-7 15 -5 32 6 16 11 34 14 54 10 16 -4 35 -2 42 3 7 5 30 12 52 16 22 3 74 13
115 21 41 9 84 18 95 19 11 1 30 8 41 14 12 6 41 14 65 17 24 3 46 10 47 15 2
6 18 10 36 10 17 0 40 6 51 14 11 7 35 17 53 21 18 3 46 13 62 22 16 8 38 12
48 9 11 -4 29 2 43 13 14 11 43 23 65 27 21 3 51 13 66 20 30 15 68 19 68 6 0
-5 -16 -26 -35 -48 -19 -21 -35 -42 -35 -46 0 -3 -13 -19 -28 -35 -16 -15 -35
-39 -42 -53 -7 -14 -21 -31 -32 -38 -10 -7 -18 -20 -18 -28 0 -8 -4 -14 -8
-14 -9 0 -116 -133 -169 -211 -17 -25 -43 -56 -57 -70 -14 -13 -26 -31 -26
-40 0 -9 -7 -22 -15 -29 -12 -10 -83 -111 -140 -198 -36 -55 -73 -122 -84
-149 -8 -18 -17 -33 -22 -33 -5 0 -16 -17 -24 -37 -9 -21 -23 -49 -32 -63 -10
-14 -18 -33 -18 -42 -1 -9 -13 -32 -27 -50 -13 -18 -37 -59 -52 -90 -16 -32
-32 -58 -37 -58 -5 0 -9 -12 -9 -28 0 -15 -6 -36 -14 -47 -7 -11 -22 -46 -32
-77 -10 -32 -23 -58 -30 -58 -6 0 -14 -19 -18 -42 -4 -23 -14 -50 -23 -60 -9
-10 -14 -21 -10 -24 7 -7 -21 -105 -37 -123 -8 -11 -8 -15 1 -18 13 -5 5 -26
-23 -63 -6 -8 -10 -26 -9 -40 1 -14 -4 -38 -12 -53 -8 -15 -12 -31 -9 -35 3
-5 0 -26 -5 -48 -15 -57 -28 -138 -32 -194 -1 -19 -6 -41 -11 -48 -5 -8 -8
-61 -8 -118 0 -57 -4 -106 -8 -109 -8 -5 -3 -212 5 -226 12 -18 13 -46 5 -89
-6 -35 -4 -51 8 -72 14 -23 14 -31 2 -52 -11 -22 -11 -28 2 -43 11 -12 16 -38
16 -78 0 -33 7 -80 15 -105 8 -25 20 -79 27 -120 7 -41 16 -89 20 -107 7 -27
5 -34 -16 -48 -13 -8 -37 -17 -53 -19 -15 -2 -38 -10 -50 -18 -12 -9 -31 -14
-42 -11 -10 3 -30 -2 -44 -11 -13 -9 -36 -16 -51 -16 -14 0 -37 -9 -51 -20
-16 -12 -34 -18 -48 -14 -13 3 -35 -3 -55 -14 -18 -11 -39 -18 -46 -15 -7 3
-27 -5 -43 -16 -16 -12 -42 -21 -58 -21 -15 0 -37 -7 -47 -15 -11 -8 -30 -15
-42 -15 -12 0 -24 -6 -27 -14 -5 -11 -54 -26 -94 -28 -5 0 -21 -11 -36 -24
-16 -13 -38 -24 -48 -24 -11 0 -40 -11 -63 -25 -24 -14 -45 -22 -49 -19 -3 3
-16 -3 -28 -14 -12 -12 -36 -24 -53 -28 -17 -4 -42 -15 -55 -25 -13 -11 -30
-19 -38 -19 -17 0 -75 -30 -85 -44 -3 -5 -18 -10 -32 -12 -15 -1 -45 -16 -68
-33 -23 -17 -48 -31 -55 -31 -7 0 -13 -4 -13 -9 0 -5 -15 -14 -32 -21 -53 -19
-76 -32 -97 -51 -10 -10 -21 -15 -25 -12 -3 3 -27 -13 -54 -36 -28 -22 -54
-41 -59 -41 -5 0 -24 -14 -43 -31 -18 -17 -39 -32 -44 -33 -6 -1 -29 -18 -51
-39 -22 -20 -44 -37 -48 -37 -5 0 -28 -20 -53 -45 -24 -25 -50 -45 -59 -45 -8
0 -15 -3 -15 -8 0 -10 -49 -63 -76 -82 -11 -8 -49 -49 -83 -90 -34 -41 -73
-88 -87 -104 -13 -15 -24 -32 -24 -37 0 -4 -6 -12 -13 -16 -6 -4 -25 -28 -42
-53 -16 -25 -34 -49 -39 -55 -6 -5 -22 -30 -35 -55 -32 -60 -50 -80 -73 -80
-10 0 -18 -5 -18 -12 0 -6 -3 -8 -6 -5 -4 3 -18 -3 -32 -13 -13 -11 -29 -20
-35 -20 -6 0 -27 -11 -47 -25 -19 -13 -45 -26 -57 -28 -11 -1 -28 -8 -35 -15
-8 -6 -34 -18 -57 -27 -23 -8 -54 -24 -68 -35 -14 -11 -32 -20 -40 -20 -8 0
-27 -8 -41 -19 -27 -19 -112 -33 -112 -19 0 16 37 77 43 72 3 -4 18 18 32 49
14 30 35 64 46 75 10 12 19 28 19 36 0 8 8 23 19 33 10 10 24 35 30 55 7 20
19 42 27 48 7 7 14 19 14 26 0 8 4 14 9 14 5 0 11 17 15 38 3 20 15 53 27 72
12 19 23 52 24 73 1 21 8 42 15 47 11 7 12 14 2 35 -7 14 -12 37 -12 50 0 13
-6 28 -13 32 -8 4 -22 21 -32 36 -10 16 -29 33 -42 38 -13 5 -23 15 -23 24 0
8 -4 15 -9 15 -14 0 -91 52 -91 62 0 4 -8 8 -17 8 -10 0 -31 9 -48 20 -19 13
-47 20 -77 20 -27 0 -48 3 -48 8 0 4 -33 6 -72 5 -40 -2 -91 -3 -113 -3 -22 0
-44 1 -50 1 -23 -1 -102 -19 -130 -31 -16 -7 -34 -12 -40 -11 -9 2 -69 -24
-115 -51 -8 -4 -22 -11 -30 -14 -41 -16 -68 -30 -96 -50 -17 -13 -42 -24 -55
-26 -27 -4 -60 -25 -130 -86 -27 -23 -56 -42 -63 -42 -8 0 -21 -12 -31 -26
-24 -37 -71 -85 -77 -79 -3 3 -20 -14 -39 -37 -19 -23 -45 -54 -59 -68 -14
-14 -32 -37 -40 -52 -8 -15 -27 -41 -42 -57 -16 -17 -28 -36 -28 -41 0 -6 -11
-31 -25 -56 -14 -25 -25 -51 -25 -58 0 -7 -7 -27 -16 -45 -9 -18 -17 -47 -19
-65 -4 -44 -41 -123 -63 -135 -9 -5 -76 -68 -148 -139 -72 -71 -138 -133 -147
-138 -8 -5 -38 -31 -66 -57 -28 -27 -51 -45 -51 -41 0 5 -15 -7 -34 -26 -43
-44 -91 -81 -130 -100 -17 -8 -42 -26 -56 -41 -14 -15 -35 -30 -47 -34 -13 -3
-23 -11 -23 -16 0 -5 -9 -9 -19 -9 -11 0 -21 -4 -23 -10 -1 -5 -18 -11 -36
-13 -17 -2 -35 -7 -39 -10 -14 -15 -43 -5 -72 24 -24 24 -31 39 -31 70 0 21 4
39 10 39 5 0 7 7 4 15 -8 21 25 140 53 194 13 24 23 48 23 54 0 5 11 22 25 39
14 16 25 35 25 42 0 13 160 171 174 171 5 0 12 7 16 15 4 8 15 29 24 47 9 17
16 40 16 51 0 11 6 23 13 26 10 5 10 7 0 12 -7 3 -13 10 -13 16 0 11 -66 97
-83 109 -5 4 -24 5 -42 2 -21 -3 -38 1 -49 12 -9 9 -16 13 -16 9 0 -3 -6 -2
-12 3 -7 6 -21 13 -31 16 -15 6 -17 3 -12 -13 8 -24 -20 -28 -29 -5 -7 18 -24
11 -70 -29 -16 -15 -33 -26 -38 -26 -18 0 -106 -82 -112 -104 -3 -13 -20 -39
-38 -59 -54 -59 -72 -88 -86 -134 -7 -24 -22 -58 -32 -76 -11 -18 -20 -46 -20
-64 0 -17 -5 -35 -11 -39 -7 -4 -8 -20 -4 -41 4 -22 1 -42 -7 -56 -8 -12 -15
-46 -16 -76 -1 -29 -5 -58 -9 -65 -12 -18 -5 -208 8 -236 6 -14 17 -38 24 -55
30 -70 41 -91 57 -106 10 -9 18 -21 18 -27 0 -6 10 -14 23 -18 12 -3 34 -15
48 -25 14 -10 38 -20 53 -23 15 -3 35 -11 43 -18 9 -7 30 -13 48 -13 19 -1 41
-7 49 -14 9 -8 26 -11 39 -7 13 3 42 8 63 12 21 3 52 12 68 20 16 8 38 12 48
8 10 -3 30 3 47 15 16 12 40 21 54 21 13 0 31 7 38 16 12 15 48 34 75 39 7 2
21 12 33 24 12 12 30 21 41 21 11 0 20 3 20 8 0 4 24 23 53 42 28 19 71 52 95
74 23 22 42 37 42 33 0 -3 19 14 41 38 23 25 45 42 50 40 4 -3 19 14 34 38 28
49 58 79 72 75 4 -2 25 13 44 32 43 42 94 80 109 80 5 0 10 -7 10 -15 0 -8 5
-15 10 -15 6 0 38 -27 71 -60 44 -43 72 -61 98 -66 20 -4 52 -14 71 -24 56
-28 97 -38 111 -29 20 12 63 11 77 -3 8 -8 15 -8 27 2 8 7 28 14 43 16 58 6
98 16 112 28 18 16 107 39 119 31 5 -3 11 1 14 9 3 8 28 17 59 21 29 4 60 13
68 19 8 7 31 13 50 15 19 1 45 9 57 17 12 7 29 11 38 8 9 -4 29 2 45 15 16 11
41 21 56 21 15 0 42 9 60 21 19 11 38 18 43 15 5 -4 26 5 47 19 21 14 45 23
54 20 10 -3 20 1 23 9 3 8 25 20 49 26 24 6 59 20 79 30 20 11 46 20 58 20 11
0 21 4 21 8 0 8 14 16 63 40 12 6 8 -44 -8 -82 -9 -20 -13 -42 -9 -47 3 -6 -3
-24 -15 -39 -16 -22 -17 -29 -7 -32 11 -2 6 -31 -23 -133 -21 -71 -44 -144
-53 -160 -9 -17 -20 -49 -23 -70 -4 -22 -14 -53 -23 -70 -8 -16 -10 -31 -5
-32 9 -3 7 -52 -4 -83 -2 -8 -6 -36 -8 -61 -2 -25 -11 -74 -20 -109 -9 -35
-14 -75 -12 -89 5 -23 -17 -174 -28 -191 -3 -5 -1 -11 5 -15 10 -6 3 -63 -12
-81 -4 -6 -5 -22 0 -34 5 -13 6 -40 2 -61 -8 -42 -4 -366 4 -389 3 -8 5 -31 4
-50 -2 -47 12 -212 19 -223 3 -5 7 -24 9 -41 2 -31 4 -42 26 -151 7 -33 12
-77 12 -97 0 -21 3 -38 7 -38 4 0 10 -25 14 -57 4 -31 10 -63 15 -72 4 -9 13
-41 19 -71 7 -30 16 -73 20 -95 5 -22 15 -56 23 -75 9 -19 13 -41 11 -47 -3
-7 0 -13 6 -13 6 0 11 -9 11 -19 0 -11 5 -23 10 -26 6 -4 10 -12 8 -18 -1 -7
6 -29 15 -51 9 -21 17 -47 17 -56 0 -10 12 -42 26 -70 14 -28 23 -58 20 -65
-3 -8 3 -19 14 -25 10 -5 22 -24 25 -42 4 -17 23 -60 42 -95 19 -35 31 -63 26
-63 -4 0 0 -5 9 -11 10 -5 29 -33 43 -62 28 -56 98 -162 142 -215 16 -18 75
-74 133 -124 58 -50 112 -99 120 -108 8 -9 31 -23 50 -30 19 -7 46 -24 61 -37
14 -12 32 -23 40 -23 7 0 28 -9 46 -19 17 -11 50 -25 72 -31 23 -6 41 -15 41
-21 0 -6 9 -8 20 -4 11 4 20 2 20 -4 0 -6 10 -11 23 -11 13 0 27 -4 33 -10 5
-5 23 -12 39 -14 38 -5 68 -17 77 -30 4 -7 16 -5 33 4 21 11 30 12 46 2 11 -7
37 -13 57 -13 20 1 55 -2 77 -4 53 -6 204 -6 280 1 33 3 76 6 95 8 19 1 48 8
64 14 16 7 37 10 46 7 10 -3 33 4 53 15 19 11 42 18 50 14 9 -3 30 4 47 16 16
12 34 19 39 16 5 -3 28 1 51 9 24 8 45 13 48 11 2 -3 26 6 52 19 26 13 50 22
53 18 3 -3 24 9 46 26 21 17 46 29 54 25 8 -3 31 4 51 16 21 11 41 18 46 15 4
-3 23 7 40 22 19 15 44 26 61 26 16 0 29 4 29 9 0 4 6 8 14 8 7 0 19 7 26 15
7 8 22 15 33 15 12 0 32 11 46 24 28 27 133 86 152 86 7 0 31 16 55 35 23 19
46 35 49 35 4 0 25 16 46 35 22 19 48 35 58 35 10 0 21 7 24 15 4 8 23 25 44
38 21 14 58 43 83 66 25 22 50 41 55 41 6 0 24 16 40 35 17 19 35 35 40 35 6
0 18 8 27 18 27 29 63 59 71 60 4 1 44 44 88 96 44 52 83 96 87 98 4 2 32 32
62 68 29 36 58 70 65 75 6 6 24 29 40 53 16 24 37 48 47 53 10 5 18 16 18 24
0 8 23 44 50 80 28 36 50 70 50 75 0 5 6 15 13 22 7 7 26 36 42 63 16 28 32
52 35 55 3 3 15 25 27 50 13 25 34 64 48 88 13 23 22 42 19 42 -3 0 8 24 24
53 15 28 38 79 51 112 12 33 29 72 37 87 8 14 14 34 14 45 0 22 47 189 61 219
6 11 9 27 8 35 -2 8 2 30 8 49 17 52 27 129 24 182 -2 34 1 48 10 48 9 0 10 3
3 10 -7 7 -8 29 -4 58 9 54 7 82 -4 100 -4 7 -2 19 4 27 7 9 9 26 5 46 -4 17
-7 46 -7 65 0 19 -4 37 -9 40 -6 3 -9 27 -8 52 1 26 -2 56 -8 67 -6 11 -16 52
-23 90 -15 85 -44 195 -58 221 -10 17 -24 64 -27 89 -2 11 -22 59 -36 87 -5
10 -9 24 -9 32 0 7 -7 19 -15 26 -8 7 -15 21 -15 31 0 22 -16 54 -43 85 -10
11 -19 35 -20 52 -1 18 -5 32 -9 32 -3 0 -30 48 -59 108 -29 59 -59 113 -66
120 -7 7 -13 20 -13 28 0 9 -11 30 -24 47 -13 18 -27 43 -31 57 -4 14 -19 42
-31 62 -13 21 -24 42 -24 47 0 6 -8 18 -18 28 -10 10 -31 47 -47 83 -15 36
-50 100 -77 142 -26 43 -48 82 -48 87 0 5 -7 14 -15 21 -20 16 -104 157 -111
187 -4 13 -11 27 -18 31 -15 9 -46 58 -46 72 0 6 -11 23 -25 38 -14 15 -30 43
-36 62 -6 19 -20 44 -31 56 -10 11 -20 36 -23 54 -2 19 -11 37 -19 42 -8 5
-34 48 -57 96 -23 48 -45 94 -50 102 -5 8 -14 26 -20 40 -5 14 -17 38 -25 54
-8 16 -14 39 -14 52 0 13 -4 26 -10 29 -5 3 -17 32 -26 63 -9 31 -29 77 -46
102 -40 61 -28 109 27 110 11 0 30 7 42 15 12 9 41 17 64 20 23 2 47 9 52 14
6 6 21 11 32 11 12 0 40 9 63 20 22 11 48 20 57 20 9 0 26 7 38 15 13 8 38 16
57 18 19 3 36 9 38 16 2 6 15 11 29 11 14 0 39 7 56 15 18 8 50 19 72 24 63
16 226 71 272 92 24 10 48 19 53 19 6 0 25 8 43 17 18 9 38 16 45 14 13 -2 30
4 128 50 22 10 44 19 48 19 4 0 22 6 39 13 18 8 70 26 117 42 47 15 89 32 94
36 6 5 17 9 26 9 8 0 44 14 78 31 35 17 66 28 69 25 4 -3 25 5 48 19 23 13 45
21 49 17 4 -3 10 -2 14 4 10 14 88 44 96 37 3 -4 17 4 31 17 13 12 35 23 49
23 14 0 33 8 42 18 9 11 25 19 35 19 10 0 21 5 24 10 4 6 11 8 16 4 6 -3 18 1
27 9 9 9 31 19 47 23 17 3 37 12 45 18 8 7 26 17 40 23 14 5 54 23 90 38 36
15 72 31 80 36 8 5 30 16 48 25 17 9 32 20 32 25 0 11 62 44 78 41 6 -2 12 3
12 9 0 7 3 10 6 6 4 -3 22 13 41 36 60 74 85 97 102 97 6 0 15 9 21 19 13 26
3 32 -68 38 -83 8 -120 5 -157 -13 -27 -12 -37 -13 -53 -3 -17 10 -24 9 -48
-10 -19 -15 -36 -20 -51 -16 -13 3 -23 2 -23 -2 0 -14 -59 -35 -80 -28 -14 5
-26 0 -38 -15 -10 -12 -32 -23 -52 -25 -19 -1 -53 -12 -75 -23 -22 -11 -44
-18 -48 -15 -5 3 -17 -3 -27 -12 -10 -9 -35 -17 -54 -17 -20 0 -39 -6 -44 -13
-6 -13 -23 -20 -134 -60 -24 -9 -56 -22 -73 -30 -16 -7 -43 -17 -59 -21 -16
-4 -41 -13 -55 -20 -14 -8 -32 -14 -39 -14 -7 0 -27 -7 -44 -16 -17 -9 -45
-18 -62 -21 -17 -3 -41 -14 -55 -24 -19 -15 -26 -17 -33 -7 -6 10 -8 10 -8 1
0 -7 -9 -13 -20 -13 -11 0 -20 -4 -20 -9 0 -6 -21 -13 -47 -17 -26 -4 -61 -15
-78 -25 -16 -11 -39 -19 -50 -19 -11 0 -29 -7 -39 -15 -11 -8 -28 -15 -38 -15
-10 0 -18 -4 -18 -10 0 -5 -9 -10 -19 -10 -11 0 -23 -5 -27 -11 -3 -6 -16 -8
-28 -5 -13 3 -39 -5 -65 -19 -23 -14 -46 -23 -51 -20 -4 2 -27 -5 -51 -17 -24
-12 -52 -21 -61 -19 -10 1 -18 -2 -18 -8 0 -5 -21 -13 -47 -17 -26 -4 -60 -15
-76 -25 -16 -9 -35 -15 -42 -13 -7 3 -28 -5 -48 -16 -20 -12 -41 -19 -47 -15
-6 3 -26 -3 -44 -15 -19 -11 -53 -23 -76 -25 -23 -2 -48 -9 -56 -16 -7 -6 -18
-8 -24 -4 -6 4 -27 -3 -47 -15 -20 -11 -42 -19 -50 -16 -7 3 -30 -3 -51 -14
-20 -11 -50 -20 -67 -20 -16 0 -39 -7 -49 -15 -11 -8 -29 -12 -39 -9 -11 4
-23 1 -28 -7 -15 -25 -38 12 -55 86 -14 62 -19 111 -29 285 -2 25 -7 63 -13
85 -6 22 -11 83 -10 136 0 54 -3 102 -7 108 -4 7 -1 18 5 26 6 8 8 20 4 27
-14 22 -3 255 13 280 4 7 9 22 9 33 5 61 13 107 22 118 5 7 12 35 15 64 10 87
91 343 109 343 5 0 7 4 3 10 -3 5 -2 17 3 27 6 10 15 30 22 45 7 15 18 25 23
21 6 -4 8 2 5 14 -3 11 3 37 13 58 11 21 19 45 19 52 0 8 7 16 15 19 8 4 15
15 15 25 0 20 54 132 80 164 9 11 22 38 29 60 8 22 34 71 60 110 25 38 54 86
65 105 10 19 32 51 47 70 16 19 29 38 29 43 0 4 35 52 78 105 81 101 142 186
142 197 0 4 12 19 28 34 15 15 34 37 42 50 8 13 24 34 35 47 11 12 27 31 36
41 103 121 167 194 195 220 19 18 34 36 34 40 0 11 70 83 80 83 5 0 11 9 15
19 6 21 65 91 65 78 0 -5 19 13 41 40 23 26 49 52 58 57 9 5 40 33 69 63 29
29 56 53 59 53 3 0 41 32 84 71 43 39 83 68 88 65 5 -3 16 5 25 19 9 14 25 25
36 25 13 0 18 5 14 15 -6 13 6 20 29 16 4 0 7 4 7 9 0 6 7 10 15 10 7 0 18 8
23 17 5 9 23 24 40 32 147 76 198 101 209 101 6 0 16 6 20 13 4 7 26 21 48 32
22 11 52 31 67 44 15 13 36 25 45 26 10 0 44 18 75 38 32 20 69 39 83 43 14 3
28 10 31 15 3 5 13 9 22 9 10 0 30 12 45 26 19 17 34 23 47 19 13 -4 31 2 50
15 17 12 37 19 45 16 18 -6 84 61 92 94 3 14 10 28 15 31 9 6 11 32 8 110 -1
38 -8 54 -36 84 -19 21 -34 41 -34 46 0 5 -4 9 -9 9 -5 0 -17 7 -26 16 -9 9
-37 21 -63 25 -25 5 -48 13 -51 17 -4 4 -30 8 -59 8 -42 0 -58 -5 -84 -27z
m-2554 -5100 c4 -23 13 -54 21 -68 7 -14 23 -55 34 -91 12 -36 35 -81 51 -100
16 -19 30 -43 30 -52 0 -9 14 -40 30 -68 17 -28 30 -57 30 -64 0 -8 6 -19 14
-25 12 -11 23 -37 26 -66 1 -5 7 -17 15 -25 7 -8 21 -31 30 -50 10 -19 21 -37
24 -40 16 -12 51 -79 51 -97 0 -12 6 -26 14 -33 20 -16 106 -155 106 -171 1
-8 14 -30 30 -49 17 -19 30 -39 30 -46 0 -6 9 -23 20 -37 24 -30 100 -172 100
-187 0 -5 7 -18 16 -27 27 -31 104 -155 104 -170 0 -7 7 -16 15 -19 8 -4 15
-12 15 -20 0 -11 10 -32 65 -131 6 -13 15 -20 18 -16 4 3 7 -5 7 -18 0 -13 9
-37 20 -54 24 -34 90 -172 90 -186 0 -5 4 -9 10 -9 5 0 13 -12 16 -27 4 -16
14 -38 22 -50 7 -12 12 -28 10 -35 -3 -7 1 -18 9 -23 7 -6 16 -28 20 -50 3
-22 16 -54 29 -72 14 -18 21 -38 18 -47 -3 -9 -2 -16 4 -16 5 0 12 -12 15 -27
2 -16 14 -54 26 -85 11 -32 21 -73 21 -92 0 -19 5 -38 10 -41 6 -3 10 -21 10
-38 0 -18 9 -49 20 -70 11 -20 16 -37 10 -37 -5 0 -7 -14 -4 -32 16 -94 4
-515 -15 -528 -4 -3 -8 -27 -8 -53 -1 -26 -7 -56 -15 -65 -8 -9 -15 -30 -16
-47 -1 -16 -8 -50 -16 -75 -7 -25 -20 -65 -27 -90 -8 -25 -14 -47 -14 -50 0
-3 -10 -19 -23 -37 -12 -17 -25 -46 -29 -65 -3 -18 -19 -56 -35 -84 -15 -28
-28 -58 -28 -66 0 -9 -7 -18 -15 -22 -8 -3 -15 -11 -15 -18 -1 -20 -65 -119
-73 -112 -4 4 -7 -2 -7 -12 0 -11 -5 -25 -11 -31 -6 -6 -16 -20 -23 -31 -35
-60 -108 -162 -138 -192 -19 -19 -47 -56 -63 -82 -16 -26 -39 -52 -52 -59 -12
-6 -37 -34 -55 -60 -18 -27 -39 -49 -45 -49 -7 0 -19 -16 -27 -35 -8 -19 -20
-35 -25 -35 -6 0 -11 -7 -11 -16 0 -9 -6 -14 -12 -12 -14 5 -68 -44 -68 -61 0
-6 -4 -11 -8 -11 -5 0 -29 -19 -53 -42 -68 -64 -161 -138 -174 -138 -6 0 -24
-14 -41 -31 -16 -17 -45 -40 -64 -52 -19 -11 -44 -31 -55 -44 -11 -13 -29 -23
-38 -23 -10 0 -20 -7 -23 -15 -4 -8 -12 -15 -19 -15 -6 0 -20 -9 -30 -20 -10
-12 -24 -19 -31 -16 -6 2 -27 -11 -45 -30 -18 -19 -40 -33 -48 -31 -9 1 -15
-4 -13 -12 2 -8 -3 -11 -12 -8 -8 3 -22 -3 -31 -13 -10 -11 -33 -22 -51 -26
-18 -3 -38 -12 -45 -20 -6 -8 -18 -14 -25 -14 -8 0 -14 -5 -14 -12 0 -6 -3 -9
-6 -5 -3 3 -25 -5 -49 -19 -24 -13 -51 -24 -59 -24 -8 0 -31 -9 -51 -21 -19
-12 -42 -19 -50 -15 -8 3 -17 1 -20 -4 -9 -14 -66 -40 -89 -40 -12 0 -34 -7
-49 -15 -15 -8 -34 -12 -42 -8 -8 3 -15 0 -15 -6 0 -6 -9 -11 -19 -11 -11 0
-23 -5 -26 -11 -4 -5 -19 -7 -34 -4 -16 3 -39 0 -55 -9 -16 -8 -35 -12 -42 -9
-8 3 -29 -2 -47 -10 -20 -10 -61 -16 -109 -16 -43 0 -86 -6 -97 -13 -15 -9
-25 -9 -46 0 -21 10 -31 10 -41 1 -8 -7 -24 -8 -41 -4 -16 5 -57 9 -93 10 -36
1 -85 8 -110 15 -25 8 -52 15 -60 15 -27 2 -70 17 -70 25 0 4 -18 10 -39 14
-22 3 -46 12 -53 19 -7 6 -34 22 -60 35 -26 13 -50 27 -53 33 -4 5 -10 7 -14
4 -5 -2 -19 7 -31 20 -13 14 -29 25 -36 25 -7 0 -18 9 -24 20 -6 11 -18 20
-27 20 -17 0 -83 57 -83 71 0 4 -22 31 -50 59 -27 28 -50 59 -50 69 0 10 -7
25 -17 32 -9 8 -22 28 -30 44 -8 17 -25 49 -38 72 -13 23 -20 45 -15 48 5 3
-6 22 -25 41 -19 19 -35 40 -35 47 0 7 -11 33 -25 59 -14 26 -25 57 -25 69 0
11 -7 35 -14 52 -23 49 -56 154 -56 176 0 11 -4 23 -10 26 -5 3 -10 22 -10 40
0 19 -9 52 -21 74 -13 25 -18 48 -14 61 4 12 1 30 -8 43 -14 22 -21 57 -33
160 -3 26 -10 47 -15 47 -6 0 -9 21 -8 48 1 26 -3 58 -8 72 -5 14 -7 36 -3 50
4 15 1 30 -7 39 -8 8 -13 33 -13 60 2 45 -5 179 -16 311 -9 115 -10 125 -5
134 2 5 6 79 7 165 5 224 8 269 22 283 7 7 8 16 2 23 -8 10 12 144 27 185 4 8
7 29 9 45 10 104 16 141 25 150 5 5 9 25 9 45 0 19 6 47 14 62 8 15 12 36 9
46 -5 22 22 82 37 82 6 0 8 16 4 39 -4 26 -1 46 9 62 8 13 18 44 22 69 4 25
14 53 22 62 8 9 12 21 9 27 -4 5 1 27 10 48 9 21 25 56 34 78 10 22 24 56 31
75 16 45 57 139 72 165 6 11 24 45 41 75 16 30 35 66 42 80 8 14 29 41 47 60
19 19 53 67 77 105 24 39 60 88 82 110 21 23 38 46 38 53 0 7 4 12 9 12 5 0
54 50 109 110 88 97 170 172 223 205 21 13 92 65 147 107 23 18 48 33 55 33 6
0 28 15 47 32 19 18 41 33 48 33 7 0 28 11 45 24 51 38 136 86 154 86 9 0 31
11 49 25 18 14 41 25 51 25 10 0 29 9 43 20 14 11 33 20 43 20 9 0 17 5 17 11
0 6 6 9 14 6 7 -3 30 6 50 19 20 14 41 22 46 19 6 -4 22 3 36 14 15 12 37 21
50 21 12 0 38 9 57 20 19 12 45 23 57 25 13 2 30 11 40 20 9 8 30 15 47 15 17
0 42 9 57 21 14 11 34 19 45 17 10 -2 27 4 37 13 18 16 49 25 162 49 23 5 51
14 61 20 11 5 30 10 43 10 13 0 34 7 47 16 14 10 33 14 51 10 16 -3 32 -1 35
4 13 21 42 -10 49 -51z m-3284 -669 c25 16 34 11 56 -28 21 -35 21 -41 9 -112
-11 -69 -43 -146 -76 -188 -8 -9 -23 -33 -33 -52 -10 -19 -29 -46 -40 -60 -12
-14 -35 -44 -50 -67 -16 -24 -38 -53 -50 -65 -12 -13 -35 -43 -51 -67 -16 -24
-40 -50 -52 -58 -13 -8 -21 -18 -18 -22 5 -9 -79 -91 -93 -91 -5 0 -17 -9 -27
-20 -10 -11 -24 -20 -30 -20 -7 0 -18 -7 -25 -15 -7 -8 -16 -12 -22 -9 -5 3
-14 1 -21 -4 -16 -13 -57 -17 -80 -7 -10 4 -23 2 -32 -5 -12 -10 -20 -8 -41
14 -15 14 -31 26 -35 26 -17 0 -51 41 -45 55 2 7 -2 16 -10 19 -10 4 -13 13
-9 26 4 12 2 20 -5 20 -6 0 -9 4 -6 9 4 5 -9 24 -26 42 -28 27 -33 40 -32 76
1 25 8 51 17 61 10 10 17 24 17 30 0 7 4 12 9 12 5 0 19 16 30 36 29 49 152
184 168 184 7 0 18 9 25 20 7 11 18 20 25 20 7 0 17 8 22 18 6 9 11 13 11 9 0
-5 19 8 42 27 23 20 49 36 57 36 9 0 29 12 44 26 15 14 34 23 42 20 8 -3 21 1
28 9 8 7 36 24 63 36 27 13 51 25 54 28 6 8 26 12 70 18 19 2 41 10 49 18 12
12 17 12 35 0 14 -10 26 -11 36 -5z"/>
<path d="M24582 9849 c-13 -5 -28 -7 -33 -4 -4 3 -28 -7 -51 -22 -24 -15 -48
-26 -55 -25 -7 2 -16 -5 -22 -15 -5 -10 -29 -29 -53 -42 -23 -13 -56 -41 -73
-62 -16 -21 -35 -38 -41 -39 -12 0 -304 -297 -304 -309 0 -4 -16 -23 -36 -42
-20 -18 -53 -57 -74 -85 -21 -28 -52 -64 -69 -81 -17 -18 -31 -37 -31 -44 0
-7 -3 -10 -6 -6 -4 3 -22 -17 -42 -46 -19 -28 -43 -60 -53 -71 -10 -10 -27
-38 -38 -61 -11 -23 -27 -45 -35 -48 -8 -3 -23 -23 -33 -44 -9 -21 -39 -70
-65 -109 -27 -40 -48 -75 -48 -79 0 -3 -11 -21 -25 -39 -14 -18 -25 -38 -25
-44 0 -7 -6 -12 -14 -12 -8 0 -17 -12 -21 -27 -12 -51 -40 -102 -58 -107 -13
-3 -17 -10 -13 -24 4 -12 -5 -33 -27 -63 -19 -24 -32 -49 -30 -55 2 -6 -3 -17
-12 -24 -8 -7 -15 -18 -15 -25 0 -7 -7 -18 -15 -25 -8 -7 -15 -27 -16 -44 0
-17 -9 -44 -20 -61 -10 -16 -22 -37 -25 -45 -14 -33 -42 -98 -67 -155 -14 -33
-37 -89 -51 -125 -14 -36 -32 -79 -40 -95 -9 -17 -19 -47 -22 -68 -4 -21 -15
-44 -25 -50 -11 -7 -19 -23 -19 -39 0 -15 -4 -37 -9 -50 -17 -43 -24 -63 -27
-84 -1 -12 -11 -39 -22 -60 -10 -22 -17 -45 -15 -52 3 -7 -3 -22 -13 -33 -11
-13 -17 -33 -16 -54 2 -19 -4 -45 -13 -58 -8 -13 -17 -42 -19 -63 -6 -61 -18
-104 -27 -104 -5 0 -9 -6 -9 -14 0 -8 -5 -27 -12 -43 -7 -15 -13 -32 -13 -38
-9 -66 -19 -106 -26 -111 -5 -3 -6 -16 -3 -29 4 -17 0 -27 -15 -36 -17 -11
-19 -20 -14 -56 4 -33 2 -48 -12 -63 -9 -10 -14 -23 -11 -29 4 -5 0 -29 -8
-53 -7 -24 -14 -60 -14 -81 0 -21 -7 -46 -17 -57 -9 -10 -12 -21 -7 -24 11 -7
-3 -93 -18 -112 -8 -8 -8 -14 0 -19 13 -8 13 -41 -2 -68 -6 -12 -13 -62 -14
-112 -2 -49 -3 -97 -3 -105 -3 -56 -3 -117 -1 -130 1 -8 3 -35 4 -60 2 -25 7
-63 12 -85 4 -22 7 -44 5 -49 -1 -6 10 -33 24 -62 15 -29 28 -58 29 -66 3 -15
21 -53 39 -83 25 -43 139 -145 162 -145 12 0 34 -11 48 -24 16 -15 34 -22 46
-19 10 3 30 -1 42 -8 28 -15 139 -21 155 -8 5 4 36 10 68 13 35 3 83 17 123
35 36 17 71 31 79 31 8 0 14 3 14 8 0 7 55 35 76 38 7 1 21 11 31 21 11 11 34
26 51 34 18 8 32 17 32 21 0 5 6 8 13 8 7 0 24 11 39 25 15 14 31 25 35 25 4
1 28 21 53 45 25 25 52 45 62 45 9 0 19 9 23 19 3 11 20 30 38 44 18 13 45 36
60 51 15 14 31 26 35 26 14 0 122 105 122 119 0 11 3 11 17 0 10 -9 14 -9 10
-2 -5 7 0 19 10 27 10 9 41 36 69 61 28 25 56 45 61 45 14 0 23 -35 13 -51 -5
-7 -4 -23 1 -36 5 -14 9 -37 9 -51 0 -15 6 -36 14 -47 7 -11 17 -31 21 -45 11
-36 95 -115 138 -129 19 -7 41 -18 47 -26 8 -9 22 -12 41 -8 17 3 41 0 54 -7
20 -11 30 -10 63 3 22 9 42 13 46 10 3 -3 21 6 40 21 19 14 40 26 46 26 11 0
59 49 60 61 0 4 16 24 35 45 19 21 35 46 35 56 0 10 5 18 10 18 6 0 10 7 10
15 0 9 9 33 20 55 32 63 22 130 -20 130 -11 0 -29 5 -39 12 -15 9 -24 7 -49
-10 -16 -12 -40 -22 -51 -22 -12 0 -21 -3 -21 -8 0 -9 -58 -36 -81 -38 -9 -1
-21 -4 -27 -8 -15 -9 -23 36 -13 70 5 16 22 56 39 89 16 33 38 86 48 118 10
32 26 63 36 68 10 5 18 20 18 33 0 13 14 38 30 56 17 18 40 47 52 64 12 17 31
37 41 45 10 7 16 19 13 26 -2 7 6 34 20 61 14 27 20 50 15 54 -6 3 -13 25 -17
48 -4 23 -10 42 -15 42 -5 0 -9 7 -9 15 0 9 -13 24 -30 33 -16 9 -30 20 -30
25 0 4 -11 7 -25 7 -14 0 -36 7 -50 16 -46 30 -130 5 -202 -62 -14 -13 -30
-24 -34 -24 -5 0 -9 -4 -9 -10 0 -20 -246 -270 -266 -270 -8 0 -14 -4 -14 -9
0 -5 -17 -24 -37 -43 -20 -18 -61 -57 -89 -85 -29 -29 -54 -53 -57 -53 -4 0
-50 -44 -237 -226 -19 -19 -40 -34 -45 -34 -6 0 -28 -20 -48 -45 -21 -25 -44
-45 -51 -45 -7 0 -26 -15 -43 -32 -38 -40 -59 -58 -71 -58 -5 0 -19 -12 -33
-26 -24 -26 -152 -114 -166 -114 -3 0 -16 -9 -27 -19 -31 -28 -155 -93 -169
-88 -7 2 -19 -2 -28 -10 -27 -23 -160 -34 -167 -14 -2 6 -9 8 -17 5 -7 -3 -16
0 -20 5 -3 6 -10 9 -15 6 -14 -9 -62 65 -65 100 -2 19 -7 40 -11 47 -5 7 -9
31 -11 53 -1 22 -5 59 -9 83 -4 26 -3 42 4 42 10 0 10 50 -1 68 -4 5 -3 21 1
34 5 12 7 40 4 60 -2 21 -1 46 3 55 5 10 10 52 12 92 3 41 9 83 14 92 5 10 9
40 9 68 0 27 5 53 10 56 6 4 8 15 5 25 -3 10 -2 21 3 24 5 3 10 26 10 51 1 43
9 75 49 210 9 28 15 61 15 75 0 14 7 36 16 50 8 13 16 36 18 50 1 14 7 43 14
65 6 22 13 53 15 68 2 16 10 36 18 45 8 9 15 24 15 32 1 25 40 158 53 182 7
13 14 28 14 33 3 25 18 73 35 110 33 69 50 117 50 137 0 10 6 21 14 24 8 3 17
22 21 42 4 20 15 51 26 68 10 17 19 37 19 43 0 7 11 36 24 64 13 29 32 79 42
112 10 33 21 62 24 65 4 3 33 59 65 125 32 66 71 138 86 160 15 23 29 50 31
60 1 11 13 30 26 42 12 12 22 26 22 30 0 16 37 82 64 113 14 17 26 37 26 44 0
7 11 26 25 42 14 16 34 47 46 69 53 102 69 128 93 150 14 13 26 31 26 39 0 8
25 40 55 71 30 32 55 62 55 67 0 14 54 89 94 130 20 20 36 41 36 46 0 5 20 28
45 51 25 23 45 45 45 49 0 4 23 32 52 62 28 30 57 65 65 78 9 12 24 22 34 22
11 0 19 6 19 13 0 13 60 77 72 77 3 0 25 18 49 40 24 22 52 40 62 40 10 0 20
7 23 15 7 16 39 21 48 6 3 -5 8 -29 11 -53 4 -33 1 -49 -10 -58 -17 -14 -21
-50 -5 -50 14 0 13 -36 -2 -63 -6 -12 -13 -35 -15 -50 -2 -16 -8 -38 -15 -50
-7 -12 -12 -25 -13 -29 0 -3 -3 -10 -7 -14 -5 -4 -8 -16 -8 -26 0 -10 -9 -36
-20 -58 -11 -22 -20 -46 -20 -55 0 -8 -9 -35 -21 -59 -11 -25 -22 -51 -23 -60
-1 -8 -10 -24 -20 -35 -10 -11 -15 -25 -11 -30 3 -6 -2 -23 -12 -39 -10 -15
-29 -49 -41 -77 -13 -27 -28 -57 -33 -65 -5 -8 -18 -33 -29 -56 -11 -22 -28
-52 -39 -65 -10 -13 -23 -40 -28 -59 -11 -38 -71 -138 -96 -159 -9 -7 -19 -27
-23 -44 -3 -17 -14 -43 -24 -57 -36 -51 -130 -200 -130 -206 0 -3 -13 -25 -30
-49 -16 -24 -30 -47 -30 -52 -1 -14 -37 -53 -50 -53 -6 0 -8 -4 -5 -10 3 -5 2
-10 -3 -10 -5 0 -15 -14 -22 -30 -7 -17 -23 -39 -35 -48 -30 -24 -50 -135 -27
-151 4 -3 12 -21 18 -40 7 -25 16 -35 34 -38 13 -2 34 -10 47 -18 12 -8 44
-15 70 -15 46 0 51 3 116 66 37 36 67 71 67 77 0 5 7 17 15 26 22 22 115 169
115 181 0 5 8 14 19 19 10 6 22 23 26 38 3 16 17 42 31 60 13 17 24 36 24 41
0 6 7 12 15 16 8 3 13 11 10 18 -2 7 4 29 15 48 10 19 26 52 36 73 9 21 25 42
35 48 11 5 19 16 19 24 0 20 78 171 96 186 8 6 14 18 14 25 0 21 42 95 57 101
8 3 11 13 7 25 -6 19 68 185 90 201 8 6 7 10 -2 14 -9 4 -6 14 13 38 14 19 25
38 25 42 0 5 9 28 20 51 11 22 20 48 20 56 0 8 5 18 10 21 6 3 10 14 10 24 0
10 6 31 14 46 8 15 12 34 9 41 -3 8 0 14 6 14 6 0 11 10 11 23 0 12 7 33 16
45 8 12 12 27 9 32 -4 6 -2 17 4 24 6 7 9 21 5 30 -3 9 -1 23 6 31 6 8 9 19 5
24 -3 6 2 28 12 48 20 44 23 125 6 203 -7 30 -10 56 -8 58 2 2 -7 22 -21 43
-13 21 -24 41 -24 44 0 3 -16 20 -36 39 -20 19 -33 39 -30 45 5 7 -8 9 -38 7
-26 -3 -46 0 -46 5 0 24 -135 45 -178 28z"/>
<path d="M26570 8218 c0 -4 -21 -20 -47 -35 -97 -56 -129 -114 -113 -205 5
-23 6 -46 4 -50 -3 -5 -1 -8 5 -8 6 0 17 -12 26 -27 27 -50 65 -85 98 -89 18
-3 43 -9 57 -15 19 -7 36 -6 64 6 21 9 40 14 43 11 9 -8 69 59 87 99 10 22 25
48 33 57 12 13 13 24 5 50 -5 18 -10 53 -10 77 -1 24 -8 51 -17 60 -8 10 -15
22 -15 27 0 5 -15 19 -34 32 -30 20 -44 23 -110 20 -42 -2 -76 -6 -76 -10z"/>
<path d="M22289 7070 c-19 -10 -48 -25 -65 -34 -29 -15 -43 -38 -58 -91 -16
-58 114 -224 177 -226 18 0 41 -3 52 -5 28 -7 34 -6 85 8 59 17 100 46 100 69
0 11 4 19 8 19 5 0 21 19 36 42 22 34 27 50 22 78 -7 42 -53 86 -107 100 -21
6 -43 18 -48 28 -5 9 -24 18 -43 19 -18 1 -54 4 -79 6 -30 3 -57 -1 -80 -13z"/>
<path d="M21368 5757 c-12 -4 -29 -5 -37 -2 -10 4 -31 -10 -58 -37 -24 -24
-55 -55 -70 -69 -16 -14 -47 -48 -71 -75 -85 -97 -177 -184 -194 -184 -10 0
-18 -4 -18 -10 0 -9 -89 -75 -102 -75 -4 0 -15 -10 -23 -22 -9 -13 -23 -23
-30 -23 -8 0 -27 -13 -41 -29 -14 -16 -40 -35 -57 -42 -18 -7 -41 -20 -52 -30
-11 -9 -36 -25 -55 -36 -19 -10 -46 -26 -60 -35 -14 -9 -37 -18 -51 -20 -14
-2 -38 -14 -54 -26 -16 -13 -36 -20 -46 -17 -11 4 -26 -2 -38 -14 -27 -27
-150 -24 -182 4 -45 41 -66 136 -42 187 26 55 43 97 43 107 0 6 4 11 9 11 5 0
12 8 15 18 8 22 88 109 95 102 3 -3 13 9 21 26 13 28 19 31 47 27 26 -4 34 -2
40 13 3 11 9 21 13 24 3 3 18 21 32 40 l26 35 -20 45 c-25 56 -46 80 -68 80
-10 0 -23 6 -29 13 -18 23 -206 14 -254 -11 -59 -32 -153 -136 -187 -208 -17
-36 -37 -67 -46 -71 -8 -3 -13 -12 -9 -21 3 -8 -3 -29 -14 -47 -11 -19 -17
-43 -14 -58 5 -25 -15 -87 -28 -87 -3 0 -5 -19 -5 -41 1 -40 0 -41 -32 -44
-31 -3 -32 -2 -18 14 18 20 21 41 6 41 -5 0 -10 7 -10 16 0 8 -10 36 -22 62
-12 26 -21 54 -20 63 2 9 -15 28 -38 44 -22 15 -40 31 -40 35 0 4 -15 23 -34
43 -27 29 -39 35 -65 32 -22 -3 -39 3 -61 21 -16 14 -41 27 -55 29 -14 1 -35
11 -46 21 -12 11 -29 18 -38 17 -9 -2 -34 3 -55 11 -25 9 -50 11 -68 6 -21 -7
-32 -4 -45 8 -9 9 -17 16 -17 14 -1 -4 -54 7 -76 16 -8 3 -31 7 -50 9 -19 2
-45 8 -57 15 -17 8 -26 8 -37 -1 -13 -11 -20 -9 -42 8 -19 15 -41 21 -78 21
-29 0 -57 5 -64 12 -9 9 -12 9 -12 -1 0 -14 -96 -13 -116 1 -16 12 -79 -28
-131 -82 -40 -42 -43 -48 -44 -105 -2 -75 -4 -86 -12 -105 -4 -8 -9 -30 -11
-47 -2 -18 -10 -40 -17 -49 -8 -9 -14 -22 -14 -28 -2 -18 -17 -46 -25 -46 -4
0 -22 29 -40 65 -18 36 -41 70 -51 75 -10 6 -20 19 -24 29 -3 11 -14 23 -23
26 -9 3 -28 21 -42 40 -14 19 -30 33 -37 30 -7 -2 -15 0 -18 5 -4 6 -16 10
-29 10 -12 0 -26 4 -31 9 -25 25 -217 54 -249 38 -10 -5 -34 -6 -53 -2 -24 4
-42 1 -59 -10 -15 -9 -34 -13 -49 -9 -16 4 -34 -1 -55 -16 -16 -12 -34 -19
-39 -16 -5 3 -20 -3 -33 -14 -14 -10 -38 -22 -54 -26 -16 -4 -40 -15 -54 -24
-22 -15 -54 -31 -70 -34 -12 -4 -56 -30 -68 -43 -8 -7 -18 -11 -23 -8 -5 4 -9
-1 -9 -9 0 -9 -7 -16 -15 -16 -8 0 -30 -14 -50 -31 -19 -17 -35 -27 -35 -23 0
5 -8 -1 -18 -12 -33 -41 -157 -141 -170 -136 -7 2 -27 -3 -45 -11 -18 -8 -53
-18 -79 -21 -26 -4 -54 -14 -62 -22 -9 -9 -17 -10 -21 -4 -11 17 -22 11 -34
-18 -7 -15 -24 -41 -39 -57 -15 -16 -27 -32 -27 -35 -1 -3 -6 -15 -13 -27 -6
-12 -9 -28 -6 -36 3 -8 -5 -30 -16 -50 -12 -20 -19 -41 -16 -46 4 -5 2 -12 -3
-15 -4 -3 -16 -45 -26 -93 -10 -49 -22 -93 -27 -100 -6 -7 -4 -19 3 -31 9 -14
9 -30 1 -62 -7 -28 -7 -51 -1 -68 5 -13 7 -27 5 -30 -3 -2 2 -18 10 -34 8 -16
12 -33 9 -38 -3 -5 -1 -11 5 -15 5 -3 10 -17 10 -31 0 -14 11 -40 25 -58 14
-18 25 -40 25 -49 0 -24 155 -144 178 -139 8 2 31 -8 51 -21 26 -17 50 -25 76
-23 22 1 39 -4 42 -11 4 -9 10 -10 23 -3 26 14 87 12 93 -2 4 -10 7 -10 18 0
7 6 26 12 41 12 16 0 40 7 53 16 17 11 36 14 55 10 19 -3 30 -1 30 6 0 6 3 9
6 5 4 -3 20 1 37 9 16 9 40 17 51 18 12 2 34 15 48 29 15 15 36 27 46 27 11 0
22 6 25 14 3 8 33 29 66 46 33 18 94 61 136 97 41 35 75 61 75 56 0 -4 10 6
21 24 11 18 29 35 40 38 10 4 19 10 19 14 0 10 100 111 111 111 5 0 9 7 9 15
0 8 5 15 10 15 6 0 10 6 10 13 0 8 19 34 42 58 23 24 47 54 54 66 36 66 49 82
68 87 11 3 17 8 14 12 -7 6 43 108 90 184 12 19 22 45 22 56 0 12 7 27 15 34
12 10 21 7 52 -20 20 -18 51 -39 69 -46 18 -8 35 -18 39 -24 16 -27 116 8 134
47 6 12 15 23 21 23 5 0 10 9 10 20 0 11 11 27 25 36 14 9 24 22 22 28 -2 6 2
17 10 24 7 8 11 17 8 22 -3 4 4 10 14 13 14 3 21 15 23 38 2 25 8 34 21 33 9
-1 25 11 34 27 24 41 64 50 184 45 57 -2 106 -5 109 -6 3 -1 17 -1 31 0 15 0
34 -6 43 -16 10 -9 37 -19 62 -22 24 -2 44 -9 44 -13 0 -5 11 -7 24 -5 18 3
32 -4 53 -28 45 -52 64 -93 50 -109 -19 -21 -37 -55 -37 -72 0 -8 -4 -15 -8
-15 -5 0 -13 -9 -18 -20 -20 -43 -229 -260 -251 -260 -7 0 -13 -6 -13 -14 0
-18 -48 -49 -65 -42 -17 6 -15 78 3 84 7 2 12 22 12 46 0 80 -68 114 -146 73
-32 -17 -94 -81 -94 -97 0 -6 -6 -10 -13 -10 -13 0 -30 -24 -59 -82 -10 -20
-22 -40 -28 -43 -5 -3 -10 -12 -10 -20 0 -7 -10 -35 -22 -62 -12 -26 -22 -57
-24 -68 -1 -11 -7 -36 -13 -55 -10 -30 -8 -37 13 -60 13 -14 26 -34 28 -44 1
-10 11 -24 22 -30 10 -6 29 -20 41 -31 13 -11 33 -21 44 -22 12 -1 34 -8 50
-16 23 -12 31 -12 46 -1 12 9 23 10 35 4 12 -6 29 -3 56 10 21 11 45 20 53 20
8 0 24 8 35 18 12 10 44 27 71 37 28 10 54 24 58 32 4 7 13 13 18 13 6 0 30
20 54 45 24 25 50 43 57 40 8 -3 19 7 27 26 7 16 27 40 45 51 17 11 42 35 56
53 13 17 39 42 57 56 18 13 33 28 33 32 0 17 55 86 77 98 13 7 25 21 29 32 7
23 61 104 75 112 5 4 9 15 9 26 0 10 4 19 9 19 5 0 11 13 14 30 4 16 16 39 27
50 11 11 20 30 20 42 0 21 0 21 21 2 16 -15 20 -27 16 -56 -3 -21 -2 -38 2
-38 6 0 16 -22 41 -90 7 -19 17 -39 22 -44 4 -6 8 -17 8 -25 0 -20 68 -81 91
-81 11 0 19 -7 19 -16 0 -8 4 -13 9 -10 5 3 11 -4 14 -15 3 -12 10 -18 16 -15
5 4 12 2 16 -4 3 -5 15 -10 26 -10 11 0 27 -7 35 -15 9 -8 25 -15 37 -16 12 0
31 -2 42 -5 41 -8 101 -16 120 -15 91 5 118 9 124 19 7 11 150 62 175 62 7 0
21 9 31 20 10 11 25 20 34 20 9 0 36 14 61 30 25 16 53 30 63 30 10 0 34 18
54 39 20 22 41 37 49 34 7 -2 28 9 46 26 18 17 39 31 45 31 7 0 20 12 30 26
16 25 47 43 88 51 10 2 22 9 26 15 11 18 59 0 69 -26 5 -14 18 -27 29 -31 11
-3 37 -22 57 -41 22 -19 45 -32 53 -29 7 3 25 -2 38 -10 13 -9 45 -19 71 -22
26 -3 49 -7 51 -9 2 -2 15 3 30 10 14 8 39 12 54 9 18 -4 34 0 46 11 11 10 34
18 52 18 21 1 48 12 70 29 20 16 40 29 44 29 6 0 99 76 116 95 5 6 22 26 39
45 16 19 30 39 30 45 0 12 96 126 116 138 8 4 14 14 14 21 0 7 8 20 18 29 10
9 24 32 32 52 8 19 17 35 21 35 5 0 11 17 14 38 4 20 13 51 20 67 33 75 36 87
22 104 -8 9 -17 28 -21 43 -10 43 -48 47 -88 9 -18 -17 -36 -31 -40 -31 -9 0
-81 -65 -152 -137 -34 -35 -67 -63 -73 -63 -7 0 -19 -13 -28 -29 -8 -16 -25
-33 -37 -36 -13 -4 -41 -24 -63 -45 -56 -52 -104 -75 -122 -57 -12 12 -9 19
16 46 33 35 53 89 40 107 -5 5 1 25 13 44 l20 34 -20 41 c-11 22 -23 48 -26
57 -5 17 -66 61 -121 87 -34 16 -86 20 -117 8z m-3442 -469 c25 -24 35 -98 13
-98 -8 0 -8 -4 0 -13 8 -10 7 -21 -2 -40 -6 -15 -15 -27 -18 -27 -4 0 -19 -26
-34 -57 -15 -32 -34 -65 -41 -73 -7 -9 -24 -37 -38 -62 -28 -53 -48 -79 -93
-122 -18 -17 -33 -35 -33 -40 0 -4 -18 -26 -40 -47 -22 -22 -40 -36 -40 -31 0
4 -9 -8 -21 -27 -11 -18 -29 -35 -40 -38 -10 -3 -19 -10 -19 -16 0 -6 -3 -8
-6 -5 -3 3 -18 -6 -33 -20 -74 -71 -228 -178 -249 -174 -6 2 -27 -9 -46 -23
-18 -14 -44 -25 -58 -25 -14 0 -33 -9 -44 -21 -12 -13 -25 -18 -40 -15 -13 4
-34 2 -48 -3 -17 -7 -26 -7 -30 2 -3 8 -7 9 -13 2 -10 -12 -43 -16 -43 -5 0 5
6 11 13 14 6 3 0 3 -15 0 -21 -5 -30 -2 -35 12 -4 11 -13 25 -21 33 -7 8 -11
22 -9 32 3 10 0 20 -6 22 -13 4 -18 46 -8 72 5 11 14 42 20 68 6 27 18 56 27
64 8 9 13 22 9 31 -3 9 3 21 15 29 11 8 18 19 15 24 -4 5 3 9 14 9 11 0 22 9
26 20 3 11 15 20 25 20 18 0 60 56 60 81 0 14 87 99 101 99 5 0 19 10 32 23
29 26 100 76 136 96 14 8 42 27 61 43 19 16 40 32 46 36 32 22 52 33 74 43 14
6 32 15 40 20 26 16 64 31 90 36 14 2 33 12 43 21 11 9 28 16 39 14 10 -2 25
1 32 7 7 6 32 10 55 9 23 -1 47 4 53 10 19 19 58 14 84 -10z"/>
<path d="M165 1750 c-3 -5 -1 -10 4 -10 6 0 11 5 11 10 0 6 -2 10 -4 10 -3 0
-8 -4 -11 -10z"/>
<path d="M280 1426 c0 -2 7 -7 16 -10 8 -3 12 -2 9 4 -6 10 -25 14 -25 6z"/>
<path d="M301 1304 c0 -11 3 -14 6 -6 3 7 2 16 -1 19 -3 4 -6 -2 -5 -13z"/>
</g>
</svg>
