<?xml version="1.0" standalone="no"?>
<!DOCTYPE svg PUBLIC "-//W3C//DTD SVG 20010904//EN"
 "http://www.w3.org/TR/2001/REC-SVG-20010904/DTD/svg10.dtd">
<svg version="1.0" xmlns="http://www.w3.org/2000/svg"
 viewBox="0 0 2756.000000 1129.000000"
 preserveAspectRatio="xMidYMid meet">

<g transform="translate(0.000000,1129.000000) scale(0.100000,-0.100000)"
fill="#000000" stroke="none">
<path d="M7117 6812 c-16 -17 -17 -110 -17 -1129 0 -1286 -15 -1143 122 -1143
75 0 87 2 106 23 l22 23 0 1100 0 1101 -23 21 c-20 19 -35 22 -109 22 -70 0
-88 -3 -101 -18z"/>
<path d="M19877 6812 c-16 -17 -17 -110 -17 -1129 0 -1286 -15 -1143 122
-1143 75 0 87 2 106 23 l22 23 0 1100 0 1101 -23 21 c-20 19 -35 22 -109 22
-70 0 -88 -3 -101 -18z"/>
<path d="M13138 6745 c-65 -21 -120 -77 -148 -150 -19 -51 -24 -85 -28 -227
l-5 -168 -67 0 c-92 0 -110 -19 -110 -117 0 -92 11 -103 108 -103 l72 0 0
-703 c0 -669 1 -705 18 -720 14 -13 39 -17 104 -17 75 0 87 2 106 23 l22 23 0
697 0 697 93 0 c59 0 97 4 105 12 7 7 12 43 12 93 0 108 -7 115 -123 115 l-87
0 0 129 c0 189 12 210 117 198 32 -3 54 0 70 10 21 14 23 22 23 104 0 88 0 90
-27 100 -48 19 -203 21 -255 4z"/>
<path d="M18762 6667 c-20 -21 -22 -34 -22 -153 0 -123 1 -132 23 -152 20 -19
35 -22 109 -22 119 0 118 -1 118 177 0 174 1 173 -122 173 -75 0 -87 -2 -106
-23z"/>
<path d="M20972 6667 c-20 -21 -22 -34 -22 -153 0 -123 1 -132 23 -152 20 -19
35 -22 109 -22 119 0 118 -1 118 177 0 174 1 173 -122 173 -75 0 -87 -2 -106
-23z"/>
<path d="M10050 6217 c-156 -37 -233 -130 -278 -337 -13 -63 -16 -147 -16
-510 0 -490 4 -535 69 -667 65 -131 160 -186 325 -187 120 0 182 20 249 80 92
82 125 188 137 431 9 183 9 183 -116 183 -120 0 -117 4 -122 -195 -3 -140 -6
-166 -26 -206 -26 -53 -54 -69 -122 -69 -64 0 -103 32 -127 103 -15 45 -18
108 -21 486 -3 452 2 541 37 610 23 45 56 61 121 61 101 0 140 -80 140 -286 0
-141 2 -144 122 -144 121 0 123 3 114 167 -8 161 -26 247 -67 324 -55 103
-144 154 -286 163 -47 4 -100 0 -133 -7z"/>
<path d="M11603 6220 c-195 -35 -288 -169 -308 -447 l-7 -93 109 0 c136 0 143
5 143 106 1 143 52 214 152 214 95 0 118 -51 125 -280 l5 -155 -74 -39 c-193
-103 -325 -204 -387 -297 -129 -193 -114 -499 31 -634 64 -61 107 -78 193 -79
86 -1 164 33 219 94 20 22 38 40 41 40 3 0 5 -15 5 -32 0 -77 2 -78 106 -78
86 0 95 2 107 23 20 35 6 1275 -16 1370 -20 82 -70 179 -111 214 -78 66 -210
95 -333 73z m217 -1103 c0 -232 2 -225 -64 -295 -59 -64 -130 -80 -179 -42
-53 42 -73 182 -42 287 20 67 84 137 188 208 45 30 85 55 90 55 4 0 7 -96 7
-213z"/>
<path d="M14410 6216 c-143 -30 -229 -128 -275 -311 -26 -102 -34 -850 -11
-1001 36 -238 131 -355 314 -385 190 -31 350 51 416 215 47 118 51 169 51 636
0 467 -4 518 -51 636 -70 173 -241 254 -444 210z m165 -228 c33 -15 60 -67 74
-143 7 -36 11 -217 11 -475 0 -258 -4 -439 -11 -475 -21 -114 -57 -155 -139
-155 -80 0 -111 30 -135 132 -22 92 -22 904 0 996 17 71 33 100 67 119 29 16
99 16 133 1z"/>
<path d="M15959 6220 c-106 -18 -198 -91 -246 -195 -24 -52 -28 -75 -31 -172
-8 -211 34 -289 292 -552 194 -198 227 -249 234 -356 5 -79 -10 -134 -48 -170
-29 -27 -38 -30 -100 -30 -65 0 -71 2 -104 34 -44 43 -73 110 -88 205 -17 109
-29 115 -142 74 -63 -23 -86 -36 -86 -48 0 -10 7 -57 15 -106 47 -272 228
-422 465 -385 39 6 93 22 118 35 218 112 266 452 99 704 -26 38 -121 146 -211
241 -191 200 -216 239 -216 341 0 105 47 160 136 160 79 0 127 -66 147 -201 9
-64 15 -82 34 -94 21 -14 29 -13 95 13 l73 28 -3 64 c-11 215 -109 364 -268
405 -62 16 -93 17 -165 5z"/>
<path d="M17460 6217 c-156 -37 -233 -130 -278 -337 -13 -63 -16 -147 -16
-510 0 -490 4 -535 69 -667 65 -131 160 -186 325 -187 120 0 182 20 249 80 92
82 125 188 137 431 9 183 9 183 -116 183 -120 0 -117 4 -122 -195 -3 -140 -6
-166 -26 -206 -26 -53 -54 -69 -122 -69 -64 0 -103 32 -127 103 -15 45 -18
108 -21 486 -3 452 2 541 37 610 23 45 56 61 121 61 101 0 140 -80 140 -286 0
-141 2 -144 122 -144 121 0 123 3 114 167 -8 161 -26 247 -67 324 -55 103
-144 154 -286 163 -47 4 -100 0 -133 -7z"/>
<path d="M23370 6217 c-156 -37 -233 -130 -278 -337 -13 -63 -16 -147 -16
-510 0 -490 4 -535 69 -667 65 -131 160 -186 325 -187 120 0 182 20 249 80 92
82 125 188 137 431 9 183 9 183 -116 183 -120 0 -117 4 -122 -195 -3 -140 -6
-166 -26 -206 -26 -53 -54 -69 -122 -69 -64 0 -103 32 -127 103 -15 45 -18
108 -21 486 -3 452 2 541 37 610 23 45 56 61 121 61 101 0 140 -80 140 -286 0
-141 2 -144 122 -144 121 0 123 3 114 167 -8 161 -26 247 -67 324 -55 103
-144 154 -286 163 -47 4 -100 0 -133 -7z"/>
<path d="M24910 6216 c-143 -30 -229 -128 -275 -311 -26 -102 -34 -850 -11
-1001 36 -238 131 -355 314 -385 190 -31 350 51 416 215 47 118 51 169 51 636
0 467 -4 518 -51 636 -70 173 -241 254 -444 210z m165 -228 c33 -15 60 -67 74
-143 7 -36 11 -217 11 -475 0 -258 -4 -439 -11 -475 -21 -114 -57 -155 -139
-155 -80 0 -111 30 -135 132 -22 92 -22 904 0 996 17 71 33 100 67 119 29 16
99 16 133 1z"/>
<path d="M26620 6211 c-38 -12 -111 -51 -147 -79 l-33 -24 0 24 c0 14 -10 34
-23 46 -20 19 -35 22 -98 22 -66 0 -78 -3 -97 -23 l-22 -23 0 -785 0 -786 23
-21 c20 -19 35 -22 98 -22 66 0 78 3 97 23 l22 23 0 649 0 649 46 42 c83 77
190 109 226 67 36 -43 38 -74 38 -748 l0 -662 23 -21 c20 -19 35 -22 104 -22
65 0 83 3 96 18 15 17 17 78 17 672 l0 654 46 42 c83 77 190 109 226 67 36
-43 38 -74 38 -748 l0 -662 23 -21 c20 -19 35 -22 98 -22 66 0 78 3 97 23 l22
23 0 636 c0 398 -4 666 -11 715 -19 142 -84 243 -174 273 -23 8 -68 11 -115 8
-93 -5 -159 -34 -238 -104 -43 -37 -56 -44 -63 -33 -5 8 -9 17 -9 21 0 18 -69
83 -105 99 -42 19 -156 25 -205 10z"/>
<path d="M55 6176 c-15 -23 -9 -75 95 -823 61 -439 114 -801 116 -805 3 -5 57
-8 119 -8 111 0 115 1 120 23 2 12 41 245 85 517 44 272 83 506 86 520 4 15
43 -184 100 -515 51 -297 93 -541 93 -542 1 -2 50 -3 111 -3 l109 0 6 33 c3
17 55 381 114 807 l109 775 -21 23 c-18 20 -30 22 -108 22 l-87 0 -6 -27 c-3
-16 -33 -260 -68 -543 -35 -283 -64 -506 -66 -495 -2 11 -43 254 -90 540 l-87
520 -103 3 c-76 2 -104 -1 -107 -10 -3 -7 -43 -251 -91 -543 -47 -291 -86
-531 -87 -532 -1 -1 -33 240 -71 535 -37 295 -70 540 -73 545 -2 4 -44 7 -93
7 -84 0 -91 -2 -105 -24z"/>
<path d="M2035 6176 c-15 -23 -9 -75 95 -823 61 -439 114 -801 116 -805 3 -5
57 -8 119 -8 111 0 115 1 120 23 2 12 41 245 85 517 44 272 83 506 86 520 4
15 43 -184 100 -515 51 -297 93 -541 93 -542 1 -2 50 -3 111 -3 l109 0 6 33
c3 17 55 381 114 807 l109 775 -21 23 c-18 20 -30 22 -108 22 l-87 0 -6 -27
c-3 -16 -33 -260 -68 -543 -35 -283 -64 -506 -66 -495 -2 11 -43 254 -90 540
l-87 520 -103 3 c-76 2 -104 -1 -107 -10 -3 -7 -43 -251 -91 -543 -47 -291
-86 -531 -87 -532 -1 -1 -33 240 -71 535 -37 295 -70 540 -73 545 -2 4 -44 7
-93 7 -84 0 -91 -2 -105 -24z"/>
<path d="M4005 6176 c-15 -23 -9 -75 95 -823 61 -439 114 -801 116 -805 3 -5
57 -8 119 -8 111 0 115 1 120 23 2 12 41 245 85 517 44 272 83 506 86 520 4
15 43 -184 100 -515 51 -297 93 -541 93 -542 1 -2 50 -3 111 -3 l109 0 6 33
c3 17 55 381 114 807 l109 775 -21 23 c-18 20 -30 22 -108 22 l-87 0 -6 -27
c-3 -16 -33 -260 -68 -543 -35 -283 -64 -506 -66 -495 -2 11 -43 254 -90 540
l-87 520 -103 3 c-76 2 -104 -1 -107 -10 -3 -7 -43 -251 -91 -543 -47 -291
-86 -531 -87 -532 -1 -1 -33 240 -71 535 -37 295 -70 540 -73 545 -2 4 -44 7
-93 7 -84 0 -91 -2 -105 -24z"/>
<path d="M8192 6177 l-22 -23 0 -646 c0 -670 5 -764 41 -848 44 -99 112 -144
214 -143 85 1 159 27 233 83 l52 40 0 -28 c0 -17 10 -38 23 -50 20 -19 35 -22
109 -22 70 0 88 3 101 18 16 17 17 88 17 814 0 757 -1 796 -18 811 -14 13 -39
17 -104 17 -75 0 -87 -2 -106 -23 l-22 -23 0 -641 0 -641 -42 -42 c-76 -75
-165 -103 -208 -65 -37 33 -40 97 -40 759 0 610 -1 644 -18 659 -14 13 -39 17
-104 17 -75 0 -87 -2 -106 -23z"/>
<path d="M18762 6177 l-22 -23 0 -785 0 -786 23 -21 c20 -19 35 -22 109 -22
70 0 88 3 101 18 16 17 17 88 17 814 0 757 -1 796 -18 811 -14 13 -39 17 -104
17 -75 0 -87 -2 -106 -23z"/>
<path d="M20972 6177 l-22 -23 0 -785 0 -786 23 -21 c20 -19 35 -22 109 -22
70 0 88 3 101 18 16 17 17 88 17 814 0 757 -1 796 -18 811 -14 13 -39 17 -104
17 -75 0 -87 -2 -106 -23z"/>
<path d="M6052 4897 c-21 -22 -22 -33 -22 -168 0 -139 1 -146 23 -167 20 -19
35 -22 108 -22 76 0 88 2 107 23 21 22 22 33 22 168 0 139 -1 146 -23 167 -20
19 -35 22 -108 22 -76 0 -88 -2 -107 -23z"/>
<path d="M22072 4897 c-21 -22 -22 -33 -22 -168 0 -139 1 -146 23 -167 20 -19
35 -22 108 -22 76 0 88 2 107 23 21 22 22 33 22 168 0 139 -1 146 -23 167 -20
19 -35 22 -108 22 -76 0 -88 -2 -107 -23z"/>
</g>
</svg>
