<svg   xmlns="http://www.w3.org/2000/svg" viewBox="0 0 386.25 193.13"><path d="M100.5,352.06V197.56H61.88V158.94h77.24V352.06H100.5m347.62-38.62a38.61,38.61,0,0,1-38.62,38.62H332.25V313.44H409.5V274.81H370.88V236.19H409.5V197.56H332.25V158.94H409.5a38.62,38.62,0,0,1,38.62,38.62v29a29,29,0,0,1-29,29,29,29,0,0,1,29,29v29m-154.5,0v38.62H177.75V274.81a38.61,38.61,0,0,1,38.63-38.62H255V197.56H177.75V158.94H255a38.62,38.62,0,0,1,38.62,38.62v38.63A38.61,38.61,0,0,1,255,274.81H216.38v38.63Z" transform="translate(-61.88 -158.94)"/></svg>