<svg
              version="1.1"
              xmlns="http://www.w3.org/2000/svg"
              xmlns:xlink="http://www.w3.org/1999/xlink"
              x="0px"
              y="0px"
              viewBox="0 0 519.3 212.4"
              style="enable-background: new 0 0 519.3 212.4"
              xml:space="preserve"
            >
              <g>
                <g>
                  <path
                    d="M65,120c0,7.8-2.9,13.9-8.6,18.3c-5.7,4.4-14,6.6-24.9,6.6c-4.6,0-8.9-0.4-12.8-1.2c-3.9-0.8-7.2-1.8-10-3.1
			c-2.7-1.3-4.9-2.8-6.4-4.4c-1.5-1.7-2.3-3.3-2.3-5c0-1.5,0.4-2.9,1.2-4.2c0.8-1.3,2-2.5,3.6-3.5c3.3,2.4,7.1,4.6,11.5,6.5
			c4.4,1.9,9.4,2.8,15,2.8c12.7,0,19.1-4.3,19.1-12.8c0-7-4.2-11.5-12.6-13.6l-15.2-4c-7.5-2-12.9-4.8-16.3-8.5
			c-3.4-3.7-5.1-8.5-5.1-14.4c0-3.2,0.6-6.2,1.9-9.2c1.3-2.9,3.3-5.5,6-7.7c2.7-2.2,6-3.9,10-5.2c4-1.3,8.6-1.9,14-1.9
			c8.5,0,15.5,1.3,20.7,3.8c5.3,2.5,7.9,5.4,7.9,8.7c0,1.6-0.4,3-1.2,4.2c-0.8,1.2-1.9,2.1-3.2,2.8c-2.2-1.5-5.3-3.1-9.3-4.8
			c-4-1.7-8.8-2.6-14.3-2.6s-9.9,1-13.1,3.1c-3.2,2.1-4.9,5-4.9,8.8c0,2.8,0.9,5.2,2.8,7.1c1.8,2,4.9,3.4,9.2,4.4l12.6,3.1
			c8.3,2.1,14.5,5.2,18.7,9.3C63,107.5,65,113.1,65,120z"
                  />
                  <path
                    d="M189.5,71.8c-3.4-2.8-8-4.2-13.7-4.2c-7.9,0-15,2.8-21.3,8.4c0.7,2.4,1.1,5.1,1.1,7.9v58.3
			c-0.6,0.2-1.6,0.5-2.8,0.8c-1.3,0.3-2.6,0.5-3.9,0.5c-5.3,0-7.9-2.2-7.9-6.6V85c0-6-1.7-10.4-5.1-13.2c-3.4-2.8-8.1-4.2-13.9-4.2
			c-3.9,0-7.6,0.6-11.1,1.8c-3.5,1.2-6.4,2.6-8.9,4.2v68.5c-0.6,0.2-1.5,0.5-2.7,0.8c-1.2,0.3-2.6,0.5-4,0.5c-5.3,0-7.9-2.2-7.9-6.6
			V74.4c0-2.4,0.5-4.5,1.6-6.1c1-1.6,2.8-3.3,5.4-5c3.3-2.1,7.5-3.9,12.6-5.4c5.1-1.5,10.2-2.3,15.3-2.3c6,0,11.3,0.9,15.9,2.7
			s8.2,4.2,10.6,7.2c3.2-2.8,7.1-5.2,11.9-7.1c4.8-1.9,10.2-2.8,16.3-2.8c9.9,0,17.8,2.4,23.6,7.1c5.9,4.7,8.8,11.9,8.8,21.7v57.9
			c-0.6,0.2-1.6,0.5-2.8,0.8c-1.3,0.3-2.6,0.5-3.9,0.5c-5.3,0-7.9-2.2-7.9-6.6V85C194.6,79,192.9,74.7,189.5,71.8z"
                  />
                  <path
                    d="M247.2,108.9c3.3,16,13.8,24,31.5,24c5.1,0,9.8-0.9,13.9-2.6c4.2-1.7,7.4-3.5,9.9-5.5c2.9,1.7,4.4,4,4.4,7
			c0,1.7-0.8,3.4-2.3,5c-1.5,1.6-3.6,3-6.2,4.2c-2.6,1.2-5.7,2.2-9.2,2.9c-3.5,0.7-7.2,1.1-11.3,1.1c-14.2,0-25.4-3.9-33.6-11.5
			c-8.2-7.7-12.4-18.9-12.4-33.7c0-7,1-13.2,3-18.6c2-5.4,4.8-10.1,8.4-13.8c3.6-3.8,7.9-6.7,12.9-8.7c5-2,10.4-3,16.3-3
			c5.5,0,10.6,0.9,15.2,2.8c4.6,1.8,8.6,4.4,12,7.8c3.4,3.4,6,7.3,7.9,11.9c1.9,4.6,2.8,9.6,2.8,15.1c0,2.7-0.6,4.6-1.8,5.8
			c-1.2,1.2-2.9,1.9-5.1,2.1L247.2,108.9z M272.5,67.4c-7.5,0-13.6,2.6-18.5,7.8c-4.9,5.2-7.5,12.6-7.7,22.3l50.4-7
			c-0.6-6.7-3-12.2-7.1-16.6C285.5,69.6,279.8,67.4,272.5,67.4z"
                  />
                  <g>
                    <path
                      d="M501.4,0.8H326.4c0,0-17.9,0-17.9,19.5v171.8c0,0,0,19.5,17.9,19.5h175.1c0,0,17.9,0,17.9-19.5V20.3
				C519.3,20.3,519.3,0.8,501.4,0.8z M400.9,128.8c0,2.6-0.3,4.6-1,6.1c-0.7,1.5-2.3,3-4.9,4.5c-2.8,1.6-6.7,3.1-11.6,4.6
				c-5,1.5-10.9,2.2-17.9,2.2c-12.2,0-21.6-2.7-28.1-8.1c-6.5-5.4-9.8-13.8-9.8-25.3V59.5c0.6-0.2,1.6-0.5,2.8-0.8
				c1.3-0.3,2.7-0.5,4.1-0.5c5.1,0,7.7,2.3,7.7,6.8v47.1c0,7.9,2.1,13.6,6.2,16.9c4.2,3.4,9.9,5,17.2,5c4.9,0,9-0.5,12.5-1.6
				c3.4-1,6.1-2.1,8.1-3.2V59.5c0.6-0.2,1.6-0.5,2.8-0.8c1.3-0.3,2.6-0.5,3.9-0.5c5.2,0,7.9,2.3,7.9,6.8V128.8z M496.7,121.1
				c-2,5.6-4.9,10.3-8.5,14c-3.7,3.7-8,6.5-13.1,8.3c-5.1,1.8-10.6,2.8-16.6,2.8c-4.3,0-8.3-0.5-12.1-1.5c-3.8-1-6.9-2.1-9.3-3.5
				v35.5c-0.6,0.2-1.5,0.5-2.7,0.8c-1.2,0.3-2.6,0.5-4,0.5c-5.3,0-7.9-2.3-7.9-6.8V74.5c0-2.4,0.4-4.4,1.3-5.9
				c0.9-1.5,2.6-3,5.3-4.6c3.3-1.8,7.2-3.5,11.8-5c4.6-1.5,9.8-2.3,15.7-2.3c6,0,11.6,0.9,17,2.6c5.3,1.7,9.9,4.4,13.7,8
				c3.8,3.6,6.9,8.2,9.2,13.8c2.3,5.6,3.4,12.3,3.4,20.1C499.7,108.9,498.7,115.5,496.7,121.1z"
                    />
                    <path
                      d="M476.3,76c-2.6-2.6-5.7-4.4-9.1-5.5c-3.4-1.1-7-1.7-10.8-1.7c-4.4,0-8.1,0.6-11.2,1.7
				c-3.1,1.1-5.8,2.3-8.2,3.7v54.1c2.3,1.7,5.1,3.1,8.2,4.2c3.2,1.1,6.9,1.7,11.2,1.7c8.5,0,15.4-2.6,20.6-7.8
				c5.2-5.2,7.8-13.5,7.8-25c0-6-0.8-11.1-2.3-15.2C481,81.9,479,78.6,476.3,76z"
                    />
                  </g>
                </g>
              </g>
              <g></g>
            </svg>