<svg  viewBox="0 0 24 24" fill="none" xmlns="http://www.w3.org/2000/svg">
<path d="M6.48333 10.95L5.48333 11.5C5.25 11.6333 5 11.6667 4.73333 11.6C4.46667 11.5333 4.26667 11.3833 4.13333 11.15L2.13333 7.65C2 7.41667 1.96667 7.16667 2.03333 6.9C2.1 6.63333 2.25 6.43333 2.48333 6.3L8.23333 3H9.98333C10.1333 3 10.2542 3.04583 10.3458 3.1375C10.4375 3.22917 10.4833 3.35 10.4833 3.5V4C10.4833 4.55 10.6792 5.02083 11.0708 5.4125C11.4625 5.80417 11.9333 6 12.4833 6C13.0333 6 13.5042 5.80417 13.8958 5.4125C14.2875 5.02083 14.4833 4.55 14.4833 4V3.5C14.4833 3.35 14.5292 3.22917 14.6208 3.1375C14.7125 3.04583 14.8333 3 14.9833 3H16.7333L22.4833 6.3C22.7167 6.43333 22.8667 6.63333 22.9333 6.9C23 7.16667 22.9667 7.41667 22.8333 7.65L20.8333 11.15C20.7 11.3833 20.5042 11.5292 20.2458 11.5875C19.9875 11.6458 19.7333 11.6083 19.4833 11.475L18.4833 10.975V20C18.4833 20.2833 18.3875 20.5208 18.1958 20.7125C18.0042 20.9042 17.7667 21 17.4833 21H7.48333C7.2 21 6.9625 20.9042 6.77083 20.7125C6.57917 20.5208 6.48333 20.2833 6.48333 20V10.95Z" fill="black"/>
</svg>
