<svg viewBox="0 0 24 24" fill="none" xmlns="http://www.w3.org/2000/svg">
<path d="M4 18V4.77778H7.77778V1H17.2222V8.55556H21V18H13.4444V14.2222H11.5556V18H4ZM5.88889 16.1111H7.77778V14.2222H5.88889V16.1111ZM5.88889 12.3333H7.77778V10.4444H5.88889V12.3333ZM5.88889 8.55556H7.77778V6.66667H5.88889V8.55556ZM9.66667 12.3333H11.5556V10.4444H9.66667V12.3333ZM9.66667 8.55556H11.5556V6.66667H9.66667V8.55556ZM9.66667 4.77778H11.5556V2.88889H9.66667V4.77778ZM13.4444 12.3333H15.3333V10.4444H13.4444V12.3333ZM13.4444 8.55556H15.3333V6.66667H13.4444V8.55556ZM13.4444 4.77778H15.3333V2.88889H13.4444V4.77778ZM17.2222 16.1111H19.1111V14.2222H17.2222V16.1111ZM17.2222 12.3333H19.1111V10.4444H17.2222V12.3333Z" fill="black"/>
<path d="M7.00049 19.0737H8.22241C8.7452 19.0737 9.14087 19.1471 9.40942 19.2939C9.67798 19.4408 9.81226 19.6986 9.81226 20.0674C9.81226 20.216 9.78809 20.3503 9.73975 20.4702C9.6932 20.5902 9.62516 20.6886 9.53564 20.7656C9.44613 20.8426 9.33691 20.8927 9.20801 20.916V20.9429C9.3387 20.9697 9.45687 21.0163 9.5625 21.0825C9.66813 21.147 9.75228 21.2419 9.81494 21.3672C9.87939 21.4907 9.91162 21.6554 9.91162 21.8613C9.91162 22.0994 9.85343 22.3035 9.73706 22.4736C9.62069 22.6437 9.45418 22.7744 9.23755 22.8657C9.02271 22.9552 8.76668 23 8.46948 23H7.00049V19.0737ZM7.83301 20.6287H8.31641C8.55811 20.6287 8.7255 20.5911 8.8186 20.5159C8.9117 20.4389 8.95825 20.3261 8.95825 20.1775C8.95825 20.0271 8.90275 19.9197 8.79175 19.8552C8.68254 19.789 8.50887 19.7559 8.27075 19.7559H7.83301V20.6287ZM7.83301 21.2893V22.3125H8.37549C8.62614 22.3125 8.8007 22.2642 8.89917 22.1675C8.99764 22.0708 9.04688 21.941 9.04688 21.7781C9.04688 21.6814 9.02539 21.5964 8.98242 21.5229C8.93945 21.4495 8.86694 21.3923 8.76489 21.3511C8.66463 21.3099 8.52588 21.2893 8.34863 21.2893H7.83301Z" fill="black"/>
<path d="M11.8398 19.0737C12.1961 19.0737 12.4897 19.1167 12.7207 19.2026C12.9535 19.2886 13.1262 19.4184 13.239 19.592C13.3518 19.7657 13.4082 19.985 13.4082 20.25C13.4082 20.429 13.3742 20.5857 13.3062 20.72C13.2381 20.8542 13.1486 20.9679 13.0376 21.061C12.9266 21.1541 12.8066 21.2302 12.6777 21.2893L13.8325 23H12.9087L11.9714 21.4934H11.5283V23H10.6958V19.0737H11.8398ZM11.7808 19.7559H11.5283V20.8167H11.7969C12.0726 20.8167 12.2695 20.771 12.3877 20.6797C12.5076 20.5866 12.5676 20.4505 12.5676 20.2715C12.5676 20.0853 12.5032 19.9528 12.3743 19.874C12.2472 19.7952 12.0493 19.7559 11.7808 19.7559Z" fill="black"/>
<path d="M17.5225 19.0737V21.6143C17.5225 21.8846 17.4625 22.129 17.3425 22.3474C17.2244 22.564 17.0444 22.7359 16.8027 22.863C16.5628 22.9902 16.2603 23.0537 15.895 23.0537C15.3758 23.0537 14.9801 22.9212 14.708 22.6562C14.4359 22.3913 14.2998 22.0404 14.2998 21.6035V19.0737H15.1296V21.4773C15.1296 21.8014 15.1959 22.0287 15.3284 22.1594C15.4609 22.2901 15.6569 22.3555 15.9165 22.3555C16.0991 22.3555 16.2468 22.3241 16.3596 22.2615C16.4742 22.1988 16.5583 22.1021 16.6121 21.9714C16.6658 21.8407 16.6926 21.6742 16.6926 21.4719V19.0737H17.5225Z" fill="black"/>
</svg>
