<svg  viewBox="0 0 24 24" fill="none" xmlns="http://www.w3.org/2000/svg">
<path d="M11 21V18H4V16H20V18H13V21H11ZM9 10.5C9.28333 10.5 9.52083 10.4042 9.7125 10.2125C9.90417 10.0208 10 9.78333 10 9.5C10 9.21667 9.90417 8.97917 9.7125 8.7875C9.52083 8.59583 9.28333 8.5 9 8.5C8.71667 8.5 8.47917 8.59583 8.2875 8.7875C8.09583 8.97917 8 9.21667 8 9.5C8 9.78333 8.09583 10.0208 8.2875 10.2125C8.47917 10.4042 8.71667 10.5 9 10.5ZM15 10.5C15.2833 10.5 15.5208 10.4042 15.7125 10.2125C15.9042 10.0208 16 9.78333 16 9.5C16 9.21667 15.9042 8.97917 15.7125 8.7875C15.5208 8.59583 15.2833 8.5 15 8.5C14.7167 8.5 14.4792 8.59583 14.2875 8.7875C14.0958 8.97917 14 9.21667 14 9.5C14 9.78333 14.0958 10.0208 14.2875 10.2125C14.4792 10.4042 14.7167 10.5 15 10.5ZM5 7.6L6.65 2.8C6.73333 2.56667 6.87083 2.375 7.0625 2.225C7.25417 2.075 7.46667 2 7.7 2H16.3C16.5333 2 16.7458 2.075 16.9375 2.225C17.1292 2.375 17.2667 2.56667 17.35 2.8L19 7.6V14.2C19 14.4333 18.925 14.625 18.775 14.775C18.625 14.925 18.4333 15 18.2 15H17.8C17.5667 15 17.375 14.925 17.225 14.775C17.075 14.625 17 14.4333 17 14.2V13H7V14.2C7 14.4333 6.925 14.625 6.775 14.775C6.625 14.925 6.43333 15 6.2 15H5.8C5.56667 15 5.375 14.925 5.225 14.775C5.075 14.625 5 14.4333 5 14.2V7.6ZM7.65 6H16.35L15.65 4H8.35L7.65 6Z" fill="#1C1B1F"/>
</svg>
