<svg  viewBox="0 0 24 24" fill="none" xmlns="http://www.w3.org/2000/svg">
<path d="M3.10161 10.6471C2.68053 9.35402 3.62078 8.01871 4.95236 8.01871H19.0476C20.3792 8.01871 21.3195 9.35402 20.8984 10.6471L18.9475 16.6377C18.682 17.4531 17.9365 18.0031 17.0968 18.0031H6.90322C6.06351 18.0031 5.31801 17.4531 5.05247 16.6377L3.10161 10.6471Z" fill="black"/>
<path d="M10.5362 18.003H5.65904C5.65904 16.6245 6.75083 15.5069 8.09762 15.5069C9.44441 15.5069 10.5362 16.6245 10.5362 18.003Z" fill="white"/>
<path d="M18.3397 18.003C18.3397 18.003 17.2479 18.003 15.9011 18.003C14.5543 18.003 13.4625 18.003 13.4625 18.003C13.4625 16.6245 14.5543 15.5069 15.9011 15.5069C17.2479 15.5069 18.3397 16.6245 18.3397 18.003Z" fill="white"/>
<path d="M10.0491 18.0031C10.0491 19.106 9.1757 20 8.09827 20C7.02084 20 6.14741 19.106 6.14741 18.0031C6.14741 16.9003 7.02084 16.0062 8.09827 16.0062C9.1757 16.0062 10.0491 16.9003 10.0491 18.0031Z" fill="black"/>
<path fill-rule="evenodd" clip-rule="evenodd" d="M12.1927 4.48268C13.1625 4.29643 13.9487 3.93707 14.784 4.41014C15.6698 4.91173 15.4561 5.22049 16.2005 5.86913C16.9237 6.4993 18.6896 6.7045 19.2098 7.46621L4.81654 7.55719L5.0211 7.18101C5.38439 6.42714 6.95183 6.72386 7.57777 6.11045C8.16872 5.53133 8.74067 4.32989 9.5827 4.05623C10.4523 3.77361 11.2838 4.65724 12.1927 4.48268Z" fill="black"/>
<path d="M17.8526 18.0031C17.8526 19.106 16.9792 20 15.9017 20C14.8243 20 13.9509 19.106 13.9509 18.0031C13.9509 16.9003 14.8243 16.0062 15.9017 16.0062C16.9792 16.0062 17.8526 16.9003 17.8526 18.0031Z" fill="black"/>
<path d="M12.362 11.0233C12.2207 11.0233 12.0953 11.0517 11.9857 11.1086C11.8778 11.1639 11.7865 11.2443 11.7118 11.3499C11.6388 11.4556 11.5833 11.5831 11.5451 11.7326C11.507 11.8821 11.488 12.0503 11.488 12.2372C11.488 12.4891 11.5182 12.7044 11.5785 12.8832C11.6404 13.0603 11.7357 13.196 11.8643 13.2903C11.9929 13.3829 12.1588 13.4292 12.362 13.4292C12.5033 13.4292 12.6446 13.413 12.7859 13.3805C12.9288 13.348 13.0835 13.3016 13.2502 13.2415V13.8753C13.0962 13.9403 12.9446 13.9866 12.7954 14.0142C12.6462 14.0435 12.4787 14.0581 12.2929 14.0581C11.9341 14.0581 11.6388 13.9825 11.407 13.8314C11.1768 13.6787 11.0062 13.4658 10.895 13.1928C10.7839 12.9181 10.7283 12.598 10.7283 12.2323C10.7283 11.9626 10.764 11.7156 10.8355 11.4913C10.9069 11.2671 11.0117 11.0729 11.1498 10.9087C11.288 10.7446 11.4586 10.6178 11.6618 10.5285C11.8651 10.4391 12.0984 10.3944 12.362 10.3944C12.535 10.3944 12.7081 10.4171 12.8811 10.4626C13.0558 10.5065 13.2225 10.5675 13.3812 10.6455L13.1431 11.2597C13.0129 11.1964 12.8819 11.1411 12.7501 11.094C12.6184 11.0469 12.489 11.0233 12.362 11.0233Z" fill="white"/>
</svg>
