<svg  viewBox="0 0 24 24" fill="none" xmlns="http://www.w3.org/2000/svg">
<path d="M5.0285 21C4.1785 21 3.57434 20.6208 3.216 19.8625C2.85767 19.1042 2.94517 18.4 3.4785 17.75L9.0285 11V5H8.0285C7.74517 5 7.50767 4.90417 7.316 4.7125C7.12434 4.52083 7.0285 4.28333 7.0285 4C7.0285 3.71667 7.12434 3.47917 7.316 3.2875C7.50767 3.09583 7.74517 3 8.0285 3H16.0285C16.3118 3 16.5493 3.09583 16.741 3.2875C16.9327 3.47917 17.0285 3.71667 17.0285 4C17.0285 4.28333 16.9327 4.52083 16.741 4.7125C16.5493 4.90417 16.3118 5 16.0285 5H15.0285V11L20.5785 17.75C21.1118 18.4 21.1993 19.1042 20.841 19.8625C20.4827 20.6208 19.8785 21 19.0285 21H5.0285Z" fill="black"/>
</svg>
