<svg viewBox="0 0 24 24" fill="none" xmlns="http://www.w3.org/2000/svg">
<path d="M17.3846 21C17.2479 21 17.1111 20.9824 16.9744 20.9471C16.8376 20.9119 16.7094 20.8502 16.5897 20.7621L13.5128 18.9119C13.2735 18.7709 13.0897 18.5815 12.9615 18.3436C12.8333 18.1057 12.7692 17.8458 12.7692 17.5639V13.837C12.7692 13.5551 12.8333 13.2952 12.9615 13.0573C13.0897 12.8194 13.2735 12.63 13.5128 12.489L16.5897 10.6388C16.7094 10.5507 16.8376 10.489 16.9744 10.4537C17.1111 10.4185 17.2479 10.4009 17.3846 10.4009C17.5214 10.4009 17.6538 10.4229 17.7821 10.467C17.9103 10.511 18.0342 10.5683 18.1538 10.6388L21.2308 12.489C21.4701 12.63 21.6581 12.8194 21.7949 13.0573C21.9316 13.2952 22 13.5551 22 13.837V17.5639C22 17.8458 21.9316 18.1057 21.7949 18.3436C21.6581 18.5815 21.4701 18.7709 21.2308 18.9119L18.1538 20.7621C18.0342 20.8326 17.9103 20.8899 17.7821 20.9339C17.6538 20.978 17.5214 21 17.3846 21ZM2 19.9163V16.9559C2 16.3744 2.1453 15.8282 2.4359 15.3172C2.7265 14.8062 3.12821 14.4185 3.64103 14.1542C4.51282 13.696 5.49573 13.3084 6.58974 12.9912C7.68376 12.674 8.88889 12.5154 10.2051 12.5154H10.5641C10.6667 12.5154 10.7692 12.533 10.8718 12.5683C10.3761 13.837 10.1709 15.0969 10.2564 16.348C10.3419 17.5991 10.7521 18.7885 11.4872 19.9163H2ZM10.2051 11.4582C9.07692 11.4582 8.11111 11.0441 7.30769 10.2159C6.50427 9.38767 6.10256 8.39207 6.10256 7.22908C6.10256 6.06608 6.50427 5.07048 7.30769 4.24229C8.11111 3.4141 9.07692 3 10.2051 3C11.3333 3 12.2991 3.4141 13.1026 4.24229C13.906 5.07048 14.3077 6.06608 14.3077 7.22908C14.3077 8.39207 13.906 9.38767 13.1026 10.2159C12.2991 11.0441 11.3333 11.4582 10.2051 11.4582ZM14.9744 13.4141L17.3846 14.8678L19.7949 13.4141L17.3846 11.9868L14.9744 13.4141ZM18.1538 18.9119L20.4615 17.5374V14.63L18.1538 16.0308V18.9119ZM14.3077 17.5374L16.6154 18.9383V16.0573L14.3077 14.6564V17.5374Z" fill="black"/>
</svg>
