<svg  viewBox="0 0 24 24" fill="none" xmlns="http://www.w3.org/2000/svg">
<path d="M3.95 19L2.05 12.3C2 12.1 2.02083 11.8667 2.1125 11.6C2.20417 11.3333 2.4 11.15 2.7 11.05L4 10.6V6C4 5.45 4.19583 4.97917 4.5875 4.5875C4.97917 4.19583 5.45 4 6 4H9V1H15V4H18C18.55 4 19.0208 4.19583 19.4125 4.5875C19.8042 4.97917 20 5.45 20 6V10.6L21.3 11.05C21.65 11.1833 21.8583 11.3792 21.925 11.6375C21.9917 11.8958 22 12.1167 21.95 12.3L20.05 19C19.2167 19 18.4583 18.8042 17.775 18.4125C17.0917 18.0208 16.5 17.55 16 17C15.5 17.55 14.9083 18.0208 14.225 18.4125C13.5417 18.8042 12.8 19 12 19C11.2 19 10.4583 18.8042 9.775 18.4125C9.09167 18.0208 8.5 17.55 8 17C7.5 17.55 6.90833 18.0208 6.225 18.4125C5.54167 18.8042 4.78333 19 3.95 19ZM2 23V21H4C4.7 21 5.39167 20.8917 6.075 20.675C6.75833 20.4583 7.4 20.1333 8 19.7C8.6 20.1333 9.24167 20.45 9.925 20.65C10.6083 20.85 11.3 20.95 12 20.95C12.7 20.95 13.3917 20.85 14.075 20.65C14.7583 20.45 15.4 20.1333 16 19.7C16.6 20.1333 17.2417 20.4583 17.925 20.675C18.6083 20.8917 19.3 21 20 21H22V23H20C19.3 23 18.6167 22.9167 17.95 22.75C17.2833 22.5833 16.6333 22.3333 16 22C15.3667 22.3333 14.7125 22.5833 14.0375 22.75C13.3625 22.9167 12.6833 23 12 23C11.3167 23 10.6375 22.9167 9.9625 22.75C9.2875 22.5833 8.63333 22.3333 8 22C7.36667 22.3333 6.71667 22.5833 6.05 22.75C5.38333 22.9167 4.7 23 4 23H2ZM6 9.95L12 8L18 9.95V6H6V9.95Z" fill="black"/>
</svg>
