<svg viewBox="0 0 24 24" fill="none" xmlns="http://www.w3.org/2000/svg">
<path d="M7.20388 19C6.81853 19 6.48864 18.8629 6.21422 18.5887C5.9398 18.3146 5.80259 17.985 5.80259 17.6C5.80259 17.215 5.9398 16.8854 6.21422 16.6112C6.48864 16.3371 6.81853 16.2 7.20388 16.2C7.58924 16.2 7.91913 16.3371 8.19355 16.6112C8.46797 16.8854 8.60518 17.215 8.60518 17.6C8.60518 17.985 8.46797 18.3146 8.19355 18.5887C7.91913 18.8629 7.58924 19 7.20388 19ZM14.2104 19C13.825 19 13.4951 18.8629 13.2207 18.5887C12.9463 18.3146 12.8091 17.985 12.8091 17.6C12.8091 17.215 12.9463 16.8854 13.2207 16.6112C13.4951 16.3371 13.825 16.2 14.2104 16.2C14.5957 16.2 14.9256 16.3371 15.2 16.6112C15.4744 16.8854 15.6117 17.215 15.6117 17.6C15.6117 17.985 15.4744 18.3146 15.2 18.5887C14.9256 18.8629 14.5957 19 14.2104 19ZM5.94272 6.4H16.2773C16.5458 6.4 16.7502 6.51958 16.8903 6.75875C17.0305 6.99792 17.0363 7.24 16.9078 7.485L14.4206 11.965C14.2921 12.1983 14.1199 12.3792 13.9038 12.5075C13.6878 12.6358 13.4513 12.7 13.1944 12.7H7.9746L7.20388 14.1H15.6117V15.5H7.20388C6.6784 15.5 6.28136 15.2696 6.01278 14.8088C5.7442 14.3479 5.73252 13.89 5.97775 13.435L6.92362 11.72L4.40129 6.4H3V5H5.2771L5.94272 6.4Z" fill="black"/>
<path d="M21.0909 18L18.9318 15.8409L18.3636 17.5455L17 13L21.5455 14.3636L19.8636 14.9545L22 17.0909L21.0909 18Z" fill="black"/>
</svg>
