<svg viewBox="0 0 24 24" fill="none" xmlns="http://www.w3.org/2000/svg">
<path d="M4 18V4.77778H7.77778V1H17.2222V8.55556H21V18H13.4444V14.2222H11.5556V18H4ZM5.88889 16.1111H7.77778V14.2222H5.88889V16.1111ZM5.88889 12.3333H7.77778V10.4444H5.88889V12.3333ZM5.88889 8.55556H7.77778V6.66667H5.88889V8.55556ZM9.66667 12.3333H11.5556V10.4444H9.66667V12.3333ZM9.66667 8.55556H11.5556V6.66667H9.66667V8.55556ZM9.66667 4.77778H11.5556V2.88889H9.66667V4.77778ZM13.4444 12.3333H15.3333V10.4444H13.4444V12.3333ZM13.4444 8.55556H15.3333V6.66667H13.4444V8.55556ZM13.4444 4.77778H15.3333V2.88889H13.4444V4.77778ZM17.2222 16.1111H19.1111V14.2222H17.2222V16.1111ZM17.2222 12.3333H19.1111V10.4444H17.2222V12.3333Z" fill="black"/>
<path d="M10.2617 23H8.00049V19.0737H10.2617V19.7559H8.83301V20.6179H10.1624V21.3H8.83301V22.3125H10.2617V23Z" fill="black"/>
<path d="M12.2275 19.0737C12.5838 19.0737 12.8774 19.1167 13.1084 19.2026C13.3411 19.2886 13.5139 19.4184 13.6267 19.592C13.7395 19.7657 13.7959 19.985 13.7959 20.25C13.7959 20.429 13.7619 20.5857 13.6938 20.72C13.6258 20.8542 13.5363 20.9679 13.4253 21.061C13.3143 21.1541 13.1943 21.2302 13.0654 21.2893L14.2202 23H13.2964L12.3591 21.4934H11.916V23H11.0835V19.0737H12.2275ZM12.1685 19.7559H11.916V20.8167H12.1846C12.4603 20.8167 12.6572 20.771 12.7754 20.6797C12.8953 20.5866 12.9553 20.4505 12.9553 20.2715C12.9553 20.0853 12.8909 19.9528 12.762 19.874C12.6348 19.7952 12.437 19.7559 12.1685 19.7559Z" fill="black"/>
<path d="M14.7144 19.0737H15.9363C16.4591 19.0737 16.8547 19.1471 17.1233 19.2939C17.3918 19.4408 17.5261 19.6986 17.5261 20.0674C17.5261 20.216 17.502 20.3503 17.4536 20.4702C17.4071 20.5902 17.339 20.6886 17.2495 20.7656C17.16 20.8426 17.0508 20.8927 16.9219 20.916V20.9429C17.0526 20.9697 17.1707 21.0163 17.2764 21.0825C17.382 21.147 17.4661 21.2419 17.5288 21.3672C17.5933 21.4907 17.6255 21.6554 17.6255 21.8613C17.6255 22.0994 17.5673 22.3035 17.4509 22.4736C17.3346 22.6437 17.1681 22.7744 16.9514 22.8657C16.7366 22.9552 16.4806 23 16.1833 23H14.7144V19.0737ZM15.5469 20.6287H16.0303C16.272 20.6287 16.4394 20.5911 16.5325 20.5159C16.6256 20.4389 16.6721 20.3261 16.6721 20.1775C16.6721 20.0271 16.6166 19.9197 16.5056 19.8552C16.3964 19.789 16.2227 19.7559 15.9846 19.7559H15.5469V20.6287ZM15.5469 21.2893V22.3125H16.0894C16.34 22.3125 16.5146 22.2642 16.613 22.1675C16.7115 22.0708 16.7607 21.941 16.7607 21.7781C16.7607 21.6814 16.7393 21.5964 16.6963 21.5229C16.6533 21.4495 16.5808 21.3923 16.4788 21.3511C16.3785 21.3099 16.2397 21.2893 16.0625 21.2893H15.5469Z" fill="black"/>
</svg>
