<svg viewBox="0 0 24 24" fill="none" xmlns="http://www.w3.org/2000/svg">
<path d="M4 18V4.77778H7.77778V1H17.2222V8.55556H21V18H13.4444V14.2222H11.5556V18H4ZM5.88889 16.1111H7.77778V14.2222H5.88889V16.1111ZM5.88889 12.3333H7.77778V10.4444H5.88889V12.3333ZM5.88889 8.55556H7.77778V6.66667H5.88889V8.55556ZM9.66667 12.3333H11.5556V10.4444H9.66667V12.3333ZM9.66667 8.55556H11.5556V6.66667H9.66667V8.55556ZM9.66667 4.77778H11.5556V2.88889H9.66667V4.77778ZM13.4444 12.3333H15.3333V10.4444H13.4444V12.3333ZM13.4444 8.55556H15.3333V6.66667H13.4444V8.55556ZM13.4444 4.77778H15.3333V2.88889H13.4444V4.77778ZM17.2222 16.1111H19.1111V14.2222H17.2222V16.1111ZM17.2222 12.3333H19.1111V10.4444H17.2222V12.3333Z" fill="black"/>
<path d="M8.81885 23H7.99976V19.0737H10.2502V19.7559H8.81885V20.7683H10.1509V21.4478H8.81885V23Z" fill="black"/>
<path d="M13.4219 23L13.1372 22.0654H11.7058L11.4211 23H10.5242L11.9099 19.0576H12.9277L14.3188 23H13.4219ZM12.9385 21.3672L12.6538 20.4541C12.6359 20.3932 12.6117 20.3153 12.5813 20.2205C12.5527 20.1238 12.5231 20.0262 12.4927 19.9277C12.464 19.8275 12.4408 19.7406 12.4229 19.6672C12.4049 19.7406 12.3799 19.8319 12.3477 19.9412C12.3172 20.0486 12.2877 20.1506 12.259 20.2473C12.2304 20.344 12.2098 20.4129 12.1973 20.4541L11.9153 21.3672H12.9385Z" fill="black"/>
<path d="M17.0769 23H14.8157V19.0737H17.0769V19.7559H15.6482V20.6179H16.9775V21.3H15.6482V22.3125H17.0769V23Z" fill="black"/>
</svg>
