<svg  viewBox="0 0 24 24" fill="none" xmlns="http://www.w3.org/2000/svg">
<path d="M8.58333 18V16.2H10.9167V18H8.58333ZM5.08333 18V15.6H1L3.24583 12H2.16667L6.25 6L10.3333 12H9.25417L11.5146 15.6H7.41667V18H5.08333ZM12.2292 15.6L10.3333 12.6H11.4563L8.36458 8.055L9.75 6L13.8333 12H12.7542L15 15.6H12.2292Z" fill="black"/>
<path d="M14.5625 18V16.9H17.9375V14.7H16.8125C16.0344 14.7 15.3711 14.4319 14.8227 13.8956C14.2742 13.3594 14 12.7108 14 11.95C14 11.4 14.1547 10.8935 14.4641 10.4306C14.7734 9.96771 15.1906 9.63083 15.7156 9.42C15.8 8.7325 16.107 8.15729 16.6367 7.69438C17.1664 7.23146 17.7875 7 18.5 7C19.2125 7 19.8336 7.23146 20.3633 7.69438C20.893 8.15729 21.2 8.7325 21.2844 9.42C21.8094 9.63083 22.2266 9.96771 22.5359 10.4306C22.8453 10.8935 23 11.4 23 11.95C23 12.7108 22.7258 13.3594 22.1773 13.8956C21.6289 14.4319 20.9656 14.7 20.1875 14.7H19.0625V16.9H22.4375V18H14.5625Z" fill="black"/>
</svg>
