<svg  viewBox="0 0 24 24" fill="none" xmlns="http://www.w3.org/2000/svg">
<path d="M3.975 20C3.14167 20 2.4375 19.7083 1.8625 19.125C1.2875 18.5417 1 17.8333 1 17V11C1 10.45 1.19583 9.97917 1.5875 9.5875C1.97917 9.19583 2.45 9 3 9H8V4H13C13.8333 4 14.5417 4.29167 15.125 4.875C15.7083 5.45833 16 6.16667 16 7V11H16.975V9.825C16.975 9.55833 17.0292 9.3 17.1375 9.05C17.2458 8.8 17.3917 8.58333 17.575 8.4L19.5 6.5L23.975 15H18.975C18.425 15 17.9542 14.8042 17.5625 14.4125C17.1708 14.0208 16.975 13.55 16.975 13H15.975V14.75C16.3083 15.0333 16.5625 15.3708 16.7375 15.7625C16.9125 16.1542 17 16.5667 17 17C17 17.8333 16.7083 18.5417 16.125 19.125C15.5417 19.7083 14.8333 20 14 20C13.3667 20 12.7917 19.8167 12.275 19.45C11.7583 19.0833 11.3833 18.6 11.15 18H6.825C6.59167 18.6 6.21667 19.0833 5.7 19.45C5.18333 19.8167 4.60833 20 3.975 20ZM3.975 18C4.25833 18 4.5 17.9042 4.7 17.7125C4.9 17.5208 5 17.2833 5 17C5 16.7167 4.90417 16.4792 4.7125 16.2875C4.52083 16.0958 4.28333 16 4 16C3.71667 16 3.47917 16.0958 3.2875 16.2875C3.09583 16.4792 3 16.7167 3 17C3 17.2833 3.09167 17.5208 3.275 17.7125C3.45833 17.9042 3.69167 18 3.975 18ZM14 18C14.2833 18 14.5208 17.9042 14.7125 17.7125C14.9042 17.5208 15 17.2833 15 17C15 16.7167 14.9042 16.4792 14.7125 16.2875C14.5208 16.0958 14.2833 16 14 16C13.7167 16 13.4792 16.0958 13.2875 16.2875C13.0958 16.4792 13 16.7167 13 17C13 17.2833 13.0958 17.5208 13.2875 17.7125C13.4792 17.9042 13.7167 18 14 18ZM20.675 13L19 9.825V13H20.675ZM10 11H14V7C14 6.71667 13.9042 6.47917 13.7125 6.2875C13.5208 6.09583 13.2833 6 13 6H10V11Z" fill="black"/>
</svg>
