<svg viewBox="0 0 24 24" fill="none" xmlns="http://www.w3.org/2000/svg">
<path d="M4 18V4.77778H7.77778V1H17.2222V8.55556H21V18H13.4444V14.2222H11.5556V18H4ZM5.88889 16.1111H7.77778V14.2222H5.88889V16.1111ZM5.88889 12.3333H7.77778V10.4444H5.88889V12.3333ZM5.88889 8.55556H7.77778V6.66667H5.88889V8.55556ZM9.66667 12.3333H11.5556V10.4444H9.66667V12.3333ZM9.66667 8.55556H11.5556V6.66667H9.66667V8.55556ZM9.66667 4.77778H11.5556V2.88889H9.66667V4.77778ZM13.4444 12.3333H15.3333V10.4444H13.4444V12.3333ZM13.4444 8.55556H15.3333V6.66667H13.4444V8.55556ZM13.4444 4.77778H15.3333V2.88889H13.4444V4.77778ZM17.2222 16.1111H19.1111V14.2222H17.2222V16.1111ZM17.2222 12.3333H19.1111V10.4444H17.2222V12.3333Z" fill="black"/>
<path d="M8.66528 20.7952H10.2229V22.8308C10.017 22.8988 9.80306 22.9535 9.58105 22.9946C9.35905 23.034 9.1075 23.0537 8.82642 23.0537C8.43612 23.0537 8.1049 22.9767 7.83276 22.8228C7.56063 22.6688 7.35384 22.4414 7.2124 22.1406C7.07096 21.8398 7.00024 21.4701 7.00024 21.0315C7.00024 20.6197 7.07902 20.2634 7.23657 19.9626C7.39591 19.6619 7.62777 19.4291 7.93213 19.2644C8.23828 19.0997 8.61157 19.0173 9.052 19.0173C9.25968 19.0173 9.46468 19.0397 9.66699 19.0845C9.8693 19.1292 10.0528 19.1874 10.2175 19.259L9.94092 19.925C9.82096 19.8642 9.684 19.8132 9.53003 19.772C9.37606 19.7308 9.21493 19.7102 9.04663 19.7102C8.80493 19.7102 8.59456 19.7657 8.41553 19.8767C8.23828 19.9877 8.10042 20.1435 8.00195 20.344C7.90527 20.5427 7.85693 20.7773 7.85693 21.0476C7.85693 21.3036 7.89185 21.531 7.96167 21.7297C8.03149 21.9267 8.1416 22.0815 8.29199 22.1943C8.44238 22.3053 8.63843 22.3608 8.88013 22.3608C8.99829 22.3608 9.09766 22.3555 9.17822 22.3447C9.26058 22.3322 9.33757 22.3197 9.40918 22.3071V21.488H8.66528V20.7952Z" fill="black"/>
<path d="M13.5637 23L13.2791 22.0654H11.8477L11.563 23H10.666L12.0518 19.0576H13.0696L14.4607 23H13.5637ZM13.0803 21.3672L12.7957 20.4541C12.7778 20.3932 12.7536 20.3153 12.7231 20.2205C12.6945 20.1238 12.665 20.0262 12.6345 19.9277C12.6059 19.8275 12.5826 19.7406 12.5647 19.6672C12.5468 19.7406 12.5217 19.8319 12.4895 19.9412C12.4591 20.0486 12.4295 20.1506 12.4009 20.2473C12.3722 20.344 12.3516 20.4129 12.3391 20.4541L12.0571 21.3672H13.0803Z" fill="black"/>
<path d="M14.9575 23V19.0737H15.79V22.3125H17.3826V23H14.9575Z" fill="black"/>
</svg>
