<svg viewBox="0 0 24 24" fill="none" xmlns="http://www.w3.org/2000/svg">
<path d="M9.80488 9.79487C8.73171 9.79487 7.81301 9.41325 7.04878 8.65C6.28455 7.88675 5.90244 6.96923 5.90244 5.89744C5.90244 4.82564 6.28455 3.90812 7.04878 3.14487C7.81301 2.38162 8.73171 2 9.80488 2C10.878 2 11.7967 2.38162 12.561 3.14487C13.3252 3.90812 13.7073 4.82564 13.7073 5.89744C13.7073 6.96923 13.3252 7.88675 12.561 8.65C11.7967 9.41325 10.878 9.79487 9.80488 9.79487ZM20.6341 21L17.5122 17.8821C17.1707 18.0769 16.8049 18.2393 16.4146 18.3692C16.0244 18.4991 15.6098 18.5641 15.1707 18.5641C13.9512 18.5641 12.9146 18.1378 12.061 17.2853C11.2073 16.4327 10.7805 15.3974 10.7805 14.1795C10.7805 12.9615 11.2073 11.9263 12.061 11.0737C12.9146 10.2212 13.9512 9.79487 15.1707 9.79487C16.3902 9.79487 17.4268 10.2212 18.2805 11.0737C19.1341 11.9263 19.561 12.9615 19.561 14.1795C19.561 14.6179 19.4959 15.0321 19.3659 15.4218C19.2358 15.8115 19.0732 16.1769 18.878 16.5179L22 19.6359L20.6341 21ZM15.1707 16.6154C15.8537 16.6154 16.4309 16.3799 16.9024 15.909C17.374 15.438 17.6098 14.8615 17.6098 14.1795C17.6098 13.4974 17.374 12.9209 16.9024 12.45C16.4309 11.9791 15.8537 11.7436 15.1707 11.7436C14.4878 11.7436 13.9106 11.9791 13.439 12.45C12.9675 12.9209 12.7317 13.4974 12.7317 14.1795C12.7317 14.8615 12.9675 15.438 13.439 15.909C13.9106 16.3799 14.4878 16.6154 15.1707 16.6154ZM9.82927 10.7692C9.14634 11.7761 8.80488 12.9128 8.80488 14.1795C8.80488 15.4462 9.14634 16.5829 9.82927 17.5897H2V14.8859C2 14.3338 2.13821 13.8222 2.41463 13.3513C2.69106 12.8803 3.07317 12.5231 3.56098 12.2795C4.39024 11.8573 5.3252 11.5 6.36585 11.2077C7.4065 10.9154 8.56098 10.7692 9.82927 10.7692Z" fill="black"/>
</svg>
