<svg viewBox="0 0 24 24" fill="none" xmlns="http://www.w3.org/2000/svg">
<path d="M4 18V4.77778H7.77778V1H17.2222V8.55556H21V18H13.4444V14.2222H11.5556V18H4ZM5.88889 16.1111H7.77778V14.2222H5.88889V16.1111ZM5.88889 12.3333H7.77778V10.4444H5.88889V12.3333ZM5.88889 8.55556H7.77778V6.66667H5.88889V8.55556ZM9.66667 12.3333H11.5556V10.4444H9.66667V12.3333ZM9.66667 8.55556H11.5556V6.66667H9.66667V8.55556ZM9.66667 4.77778H11.5556V2.88889H9.66667V4.77778ZM13.4444 12.3333H15.3333V10.4444H13.4444V12.3333ZM13.4444 8.55556H15.3333V6.66667H13.4444V8.55556ZM13.4444 4.77778H15.3333V2.88889H13.4444V4.77778ZM17.2222 16.1111H19.1111V14.2222H17.2222V16.1111ZM17.2222 12.3333H19.1111V10.4444H17.2222V12.3333Z" fill="black"/>
<path d="M8.00098 23V19.0737H8.8335V23H8.00098Z" fill="black"/>
<path d="M11.4841 23L10.5388 19.9197H10.5146C10.5182 19.9931 10.5236 20.1041 10.5308 20.2527C10.5397 20.3995 10.5478 20.5562 10.5549 20.7227C10.5621 20.8892 10.5657 21.0396 10.5657 21.1738V23H9.82178V19.0737H10.9551L11.8843 22.0762H11.9004L12.886 19.0737H14.0193V23H13.2432V21.1416C13.2432 21.0181 13.245 20.8757 13.2485 20.7146C13.2539 20.5535 13.2602 20.4004 13.2673 20.2554C13.2745 20.1086 13.2799 19.9985 13.2834 19.925H13.2593L12.2468 23H11.4841Z" fill="black"/>
<path d="M15.0103 23V19.0737H15.8428V22.3125H17.4353V23H15.0103Z" fill="black"/>
</svg>
