<svg viewBox="0 0 24 24" fill="none" xmlns="http://www.w3.org/2000/svg">
<path d="M12 6.54545C13.4466 6.54545 14.834 7.12013 15.8569 8.14305C16.8799 9.16598 17.4545 10.5534 17.4545 12C17.4545 14.0182 16.3545 15.7818 14.7273 16.7273V18.3636C14.7273 18.6047 14.6315 18.836 14.461 19.0065C14.2905 19.1769 14.0593 19.2727 13.8182 19.2727H10.1818C9.94071 19.2727 9.70948 19.1769 9.53899 19.0065C9.36851 18.836 9.27273 18.6047 9.27273 18.3636V16.7273C7.64545 15.7818 6.54545 14.0182 6.54545 12C6.54545 10.5534 7.12013 9.16598 8.14305 8.14305C9.16598 7.12013 10.5534 6.54545 12 6.54545ZM13.8182 20.1818V21.0909C13.8182 21.332 13.7224 21.5632 13.5519 21.7337C13.3814 21.9042 13.1502 22 12.9091 22H11.0909C10.8498 22 10.6186 21.9042 10.4481 21.7337C10.2776 21.5632 10.1818 21.332 10.1818 21.0909V20.1818H13.8182ZM19.2727 11.0909H22V12.9091H19.2727V11.0909ZM2 11.0909H4.72727V12.9091H2V11.0909ZM12.9091 2V4.72727H11.0909V2H12.9091ZM5.56364 4.27273L7.5 6.21818L6.20909 7.5L4.27273 5.57273L5.56364 4.27273ZM16.5 6.20909L18.4273 4.27273L19.7273 5.57273L17.7909 7.5L16.5 6.20909Z" fill="black"/>
</svg>
