<svg  viewBox="0 0 24 24" fill="none" xmlns="http://www.w3.org/2000/svg">
<path fill-rule="evenodd" clip-rule="evenodd" d="M6 2H18C19.105 2 20 2.895 20 4V20C20 21.105 19.105 22 18 22H6C4.895 22 4 21.105 4 20V4C4 2.895 4.895 2 6 2ZM14.896 12.3582C14.9521 12.1311 14.9802 11.9016 14.9802 11.6697C14.9802 11.1179 14.8618 10.6431 14.625 10.2451C14.3882 9.84717 14.061 9.54077 13.6436 9.32593C13.2285 9.10864 12.7537 9 12.219 9C11.7283 9 11.2839 9.08179 10.886 9.24536C10.4905 9.40894 10.1523 9.63721 9.87158 9.93018C9.59082 10.2207 9.37476 10.5613 9.22339 10.9519C9.07446 11.3401 9 11.7612 9 12.2153C9 12.7939 9.11597 13.2908 9.3479 13.7058C9.58228 14.1184 9.91919 14.4346 10.3586 14.6543C10.7981 14.874 11.3279 14.9839 11.948 14.9839C12.2776 14.9839 12.5901 14.9534 12.8855 14.8923C13.1809 14.8337 13.4482 14.7544 13.6875 14.6543V13.9475C13.4263 14.0452 13.1382 14.127 12.8232 14.1929C12.5107 14.2563 12.2092 14.2881 11.9187 14.2881C11.4646 14.2881 11.0801 14.2075 10.7651 14.0464C10.4526 13.8853 10.2158 13.6484 10.0547 13.3359C9.89355 13.0234 9.81299 12.6426 9.81299 12.1934C9.81299 11.832 9.86426 11.4988 9.9668 11.1936C10.0718 10.8884 10.2256 10.6235 10.4282 10.3989C10.6333 10.1743 10.886 9.99976 11.1863 9.87524C11.4866 9.75073 11.8333 9.68848 12.2263 9.68848C12.5999 9.68848 12.9331 9.7666 13.2261 9.92285C13.5215 10.0767 13.7534 10.3013 13.9219 10.5967C14.0928 10.8896 14.1782 11.2449 14.1782 11.6624C14.1782 11.887 14.1587 12.0933 14.1196 12.2812C14.0806 12.4692 14.0232 12.6194 13.9475 12.7317C13.8718 12.844 13.7778 12.9001 13.6655 12.9001C13.5947 12.9001 13.53 12.8672 13.4714 12.8013C13.4153 12.7329 13.3872 12.595 13.3872 12.3875V12.2886C13.3896 12.2373 13.3933 12.186 13.3982 12.1348L13.4714 10.5967C13.3298 10.5479 13.1333 10.5027 12.8818 10.4612C12.6328 10.4172 12.3899 10.3953 12.1531 10.3953C11.7917 10.3953 11.478 10.4685 11.2119 10.615C10.9458 10.7615 10.7407 10.9641 10.5967 11.2229C10.4526 11.4792 10.3806 11.7759 10.3806 12.1128C10.3806 12.5474 10.5015 12.8989 10.7432 13.1675C10.9849 13.4336 11.3291 13.5667 11.7759 13.5667C12.0127 13.5667 12.2141 13.519 12.3801 13.4238C12.5461 13.3286 12.6804 13.2188 12.783 13.0942H12.8416C12.8977 13.2334 12.9954 13.3469 13.1345 13.4348C13.2761 13.5227 13.4385 13.5667 13.6216 13.5667C13.8535 13.5667 14.0537 13.5129 14.2222 13.4055C14.3931 13.2957 14.5347 13.1504 14.647 12.9697C14.7593 12.7866 14.8423 12.5828 14.896 12.3582ZM11.3987 12.7207C11.2864 12.5986 11.2302 12.4009 11.2302 12.1274C11.2302 11.9492 11.2607 11.7795 11.3218 11.6184C11.3853 11.4548 11.4878 11.3218 11.6294 11.2192C11.771 11.1143 11.9602 11.0618 12.197 11.0618C12.28 11.0618 12.3569 11.0654 12.4277 11.0728C12.4985 11.0776 12.562 11.0862 12.6182 11.0984L12.5706 11.9077C12.5535 12.2031 12.4937 12.4424 12.3911 12.6255C12.2886 12.8086 12.1116 12.9001 11.8601 12.9001C11.6672 12.9001 11.5134 12.8403 11.3987 12.7207Z" fill="black"/>
<rect x="18" y="4" width="2" height="2" fill="white"/>
<rect x="18" y="8" width="2" height="2" fill="white"/>
<rect x="18" y="14" width="2" height="2" fill="white"/>
<rect x="18" y="17" width="2" height="2" fill="white"/>
</svg>
