<svg viewBox="0 0 24 24" fill="none" xmlns="http://www.w3.org/2000/svg">
<path d="M2.24167 7.93263C4.78333 5.49895 8.21667 4 12 4C15.775 4 19.2083 5.49895 21.75 7.93263C21.9 8.08421 22 8.28632 22 8.52211C22 8.75789 21.9083 8.96842 21.7583 9.12L19.6917 11.2084C19.5417 11.36 19.3333 11.4526 19.0833 11.4526C18.875 11.4526 18.6667 11.3684 18.5167 11.2168C17.8333 10.6021 17.1083 10.0716 16.2917 9.65895C16.0167 9.52421 15.825 9.22947 15.825 8.90105V6.29053C14.6167 5.89474 13.325 5.68421 12 5.68421C10.6583 5.68421 9.375 5.89474 8.16667 6.29895V8.90947C8.16667 9.24632 7.975 9.53263 7.7 9.66737C6.89167 10.08 6.14167 10.6021 5.48333 11.2253C5.33333 11.3684 5.125 11.4611 4.91667 11.4611C4.66667 11.4611 4.45833 11.3684 4.30833 11.2168L2.24167 9.12842C2.09167 8.97684 2 8.76632 2 8.53053C2 8.29474 2.09167 8.08421 2.24167 7.93263Z" fill="black"/>
<path d="M10 17.6608H9.33333V17.0058H10V17.6608Z" fill="black"/>
<path d="M10 16.3509H9.33333V15.6959H10V16.3509Z" fill="black"/>
<path d="M10 15.0409H9.33333V14.386H10V15.0409Z" fill="black"/>
<path d="M10 13.731H9.33333V13.076H10V13.731Z" fill="black"/>
<path d="M11.3333 17.6608H10.6667V17.0058H11.3333V17.6608Z" fill="black"/>
<path d="M11.3333 16.3509H10.6667V15.6959H11.3333V16.3509Z" fill="black"/>
<path d="M11.3333 15.0409H10.6667V14.386H11.3333V15.0409Z" fill="black"/>
<path d="M11.3333 13.731H10.6667V13.076H11.3333V13.731Z" fill="black"/>
<path fill-rule="evenodd" clip-rule="evenodd" d="M14.6667 17.6608H12V17.0058H12.6667V16.3509H12V15.6959H12.6667V15.0409H12V14.386H14.6667V17.6608ZM13.3333 15.0409V15.6959H14V15.0409H13.3333ZM13.3333 16.3509V17.0058H14V16.3509H13.3333Z" fill="black"/>
<path fill-rule="evenodd" clip-rule="evenodd" d="M9.5 9.89474V7.36842H11.1667V9.05263H12.8333V7.36842H14.5V9.89474C14.5 9.89474 19.5 14.1053 19.5 16.6316V20H4.5V16.6316C4.5 14.1053 9.5 9.89474 9.5 9.89474ZM8.66667 12.4211V18.3158H15.3333V13.731H12V12.4211H8.66667Z" fill="black"/>
</svg>
