<svg  viewBox="0 0 24 24" fill="none" xmlns="http://www.w3.org/2000/svg">
<path d="M9.10332 2.10839C8.88998 2.22173 8.80332 2.44173 8.74332 2.97506C8.58998 4.40839 7.42332 5.13506 5.62332 4.92839C5.01665 4.86173 4.95665 4.86173 4.78998 4.98173C4.60998 5.11506 3.20332 7.76839 3.03665 8.28173C2.91665 8.65506 3.08998 8.94173 3.57665 9.20173C3.78998 9.31506 4.09665 9.55506 4.24998 9.72839C4.83665 10.3884 5.22998 11.5684 5.14332 12.3951C5.00998 13.6617 4.29665 15.0684 3.47665 15.6751C3.12332 15.9351 2.95665 16.2417 3.01665 16.5217C3.06998 16.7684 4.56998 18.9951 4.79665 19.1684C4.96332 19.2884 5.00998 19.2951 5.56332 19.2217C7.53665 18.9551 8.76998 19.3284 9.98332 20.5617C10.2366 20.8084 10.6033 21.2417 10.81 21.5151C11.2233 22.0551 11.33 22.1417 11.6433 22.1417C11.9566 22.1417 12.07 22.0551 12.5033 21.4817C14.01 19.5017 15.4433 18.8884 17.7566 19.2217C18.2767 19.2951 18.3233 19.2951 18.49 19.1684C18.6767 19.0284 20.1367 16.9084 20.2567 16.6084C20.37 16.3151 20.2167 15.9884 19.8367 15.6951C18.6967 14.8351 17.9233 12.8284 18.21 11.4751C18.43 10.4351 19.0033 9.56839 19.71 9.20839C20.19 8.96839 20.37 8.66173 20.25 8.28173C20.0833 7.76839 18.6767 5.11506 18.4966 4.98173C18.33 4.86173 18.27 4.86173 17.6633 4.92839C15.8433 5.13506 14.6833 4.39506 14.5433 2.94839C14.49 2.42173 14.41 2.22839 14.1633 2.10173C13.8967 1.96173 9.35665 1.96839 9.10332 2.10839ZM13.2766 3.92173C13.47 4.52839 13.7566 4.98173 14.2167 5.40173C14.9433 6.06839 15.6566 6.33506 16.9033 6.39506L17.7233 6.44173L18.1633 7.30173L18.5967 8.16173L18.35 8.36173C17.69 8.89506 16.9966 10.1417 16.7833 11.1951C16.6833 11.6951 16.69 12.6484 16.81 13.1951C17.03 14.2684 17.6033 15.4417 18.2633 16.1817L18.59 16.5484L18.2033 17.1417L17.81 17.7417L17.0766 17.6951C15.0833 17.5884 13.5833 18.1817 12.1966 19.6284L11.65 20.2017L11.0966 19.6284C9.67665 18.1751 8.20332 17.5884 6.20998 17.6951L5.47665 17.7417L5.08332 17.1417L4.69665 16.5484L5.02332 16.1751C5.52332 15.6151 5.99665 14.7684 6.27665 13.9284C6.48998 13.2817 6.52998 13.0684 6.56332 12.4084C6.58332 11.8484 6.56332 11.5017 6.48332 11.1151C6.28332 10.1484 5.56332 8.86173 4.93665 8.36173L4.69665 8.16839L5.12998 7.29506L5.56998 6.42839L6.38998 6.38839C6.96332 6.36839 7.34332 6.31506 7.66332 6.21506C8.81665 5.84839 9.67665 5.00839 10.01 3.94173C10.07 3.74173 10.13 3.53506 10.15 3.48839C10.17 3.42173 10.5033 3.40839 11.65 3.42173L13.1233 3.44173L13.2766 3.92173Z" fill="black"/>
<path d="M6 5H18V19H6V5Z" fill="black"/>
<path d="M15 6C15 7.65686 13.433 9 11.5 9C9.567 9 8 7.65686 8 6C8 4.34315 9.567 3 11.5 3C13.433 3 15 4.34315 15 6Z" fill="black"/>
<path d="M19 8C19 9.10457 17.433 10 15.5 10C13.567 10 12 9.10457 12 8C12 6.89543 13.567 6 15.5 6C17.433 6 19 6.89543 19 8Z" fill="black"/>
<path d="M11 8C11 9.10457 9.433 10 7.5 10C5.567 10 4 9.10457 4 8C4 6.89543 5.567 6 7.5 6C9.433 6 11 6.89543 11 8Z" fill="black"/>
<path d="M11 16.5C11 17.8807 9.433 19 7.5 19C5.567 19 4 17.8807 4 16.5C4 15.1193 5.567 14 7.5 14C9.433 14 11 15.1193 11 16.5Z" fill="black"/>
<path d="M19 16.5C19 17.8807 17.433 19 15.5 19C13.567 19 12 17.8807 12 16.5C12 15.1193 13.567 14 15.5 14C17.433 14 19 15.1193 19 16.5Z" fill="black"/>
<path d="M14 18.5C14 19.8807 13.1046 21 12 21C10.8954 21 10 19.8807 10 18.5C10 17.1193 10.8954 16 12 16C13.1046 16 14 17.1193 14 18.5Z" fill="black"/>
</svg>
