<svg  viewBox="0 0 24 24" fill="none" xmlns="http://www.w3.org/2000/svg">
<path d="M3 22C2.71667 22 2.47917 21.9042 2.2875 21.7125C2.09583 21.5208 2 21.2833 2 21V13C2 12.7167 2.09583 12.4792 2.2875 12.2875C2.47917 12.0958 2.71667 12 3 12H6V8C6 6.33333 6.58333 4.91667 7.75 3.75C8.91667 2.58333 10.3333 2 12 2H16C17.6667 2 19.0833 2.58333 20.25 3.75C21.4167 4.91667 22 6.33333 22 8V22H20V19H16V21C16 21.2833 15.9042 21.5208 15.7125 21.7125C15.5208 21.9042 15.2833 22 15 22H3ZM9 18.6L14 15.75V14L9 16.85L4 14V15.75L9 18.6ZM16 17H20V8C20 6.9 19.6083 5.95833 18.825 5.175C18.0417 4.39167 17.1 4 16 4H12C10.9 4 9.95833 4.39167 9.175 5.175C8.39167 5.95833 8 6.9 8 8V12H15C15.2833 12 15.5208 12.0958 15.7125 12.2875C15.9042 12.4792 16 12.7167 16 13V17ZM10 10V8H18V10H10Z" fill="black"/>
</svg>
