<svg  viewBox="0 0 24 24" fill="none" xmlns="http://www.w3.org/2000/svg">
<path d="M17 8.5C16.7239 8.5 16.5 8.72386 16.5 9C16.5 9.27614 16.7239 9.5 17 9.5C17.2761 9.5 17.5 9.27614 17.5 9C17.5 8.72386 17.2761 8.5 17 8.5Z" fill="black"/>
<path fill-rule="evenodd" clip-rule="evenodd" d="M16 2H18V6H19.3C19.3 6 20.5443 6.44628 21.1 7.16667C21.6557 7.88705 22 8.48122 22 9.5C22 10.5188 21.6557 11.1129 21.1 11.8333C20.5443 12.5537 19.3 13 19.3 13H13V6H16V2ZM15.5 9C15.5 8.17157 16.1716 7.5 17 7.5C17.8284 7.5 18.5 8.17157 18.5 9C18.5 9.82843 17.8284 10.5 17 10.5C16.1716 10.5 15.5 9.82843 15.5 9Z" fill="black"/>
<path d="M10 6C10 5.44772 10.4477 5 11 5C11.5523 5 12 5.44772 12 6V13C12 13.5523 11.5523 14 11 14C10.4477 14 10 13.5523 10 13V6Z" fill="black"/>
<path d="M9 12.1667V11C9 11 7.02571 11.5542 6.02158 12.5556C4.55737 14.0157 5.07021 17.4133 5.15881 17.9329C4.91858 17.8565 4.71696 17.714 4.5 17.5C4.06037 17.0664 4 16 4 16H2V21H12V16H10C10 16 9.93963 17.0664 9.5 17.5C9.20646 17.7895 8.94101 17.9482 8.57 17.9892C8.48671 17.7911 7.30296 14.9133 8.14915 13.3333C8.41251 12.8416 9 12.1667 9 12.1667Z" fill="black"/>
</svg>
