<svg  viewBox="0 0 24 24" fill="none" xmlns="http://www.w3.org/2000/svg">
<path d="M9.45842 5.10596C9.35118 5.21191 9.35118 5.22414 9.35118 5.79875V6.38558H5.3505C0.933248 6.38558 1.11472 6.37335 1.02398 6.63417C0.978616 6.7605 0.990989 6.79718 1.11885 7.05799C1.29207 7.40031 1.91486 8.33354 2.33555 8.87147C2.73974 9.3931 3.54813 10.2367 4.05131 10.6605C5.49485 11.8871 7.08275 12.6085 8.76552 12.8122L9.35118 12.8856V13.7658C9.35118 14.9558 9.28932 15.2411 8.97174 15.5426C8.7119 15.7871 8.11386 15.9583 7.70142 15.9053C7.48695 15.8768 7.30547 15.9257 7.22298 16.0357C7.18174 16.0887 7.16937 16.321 7.16524 16.9527C7.16524 17.8003 7.16524 17.8003 7.26835 17.8981L7.36734 18H12.2713H17.1752L17.2742 17.894C17.369 17.7922 17.3732 17.7677 17.3855 17.0505C17.3938 16.6429 17.3897 16.2476 17.3732 16.1784C17.3319 15.9583 17.1999 15.9053 16.6968 15.8972C15.975 15.889 15.5873 15.7016 15.3522 15.2492L15.2285 15.0088L15.2161 13.2564C15.2037 11.3777 15.2202 11.1577 15.4017 10.7298C15.6822 10.0696 16.3297 9.44201 17.2494 8.94075C18.4084 8.30909 20.3634 7.76301 22.24 7.54702C22.7102 7.49404 22.7844 7.47367 22.8793 7.38401L22.9824 7.28213L22.9948 6.37335C23.0113 5.35454 22.9948 5.23636 22.8586 5.09781L22.7597 5H16.1647H9.56978L9.45842 5.10596Z" fill="black"/>
</svg>
