<svg viewBox="0 0 24 24" fill="none" xmlns="http://www.w3.org/2000/svg">
<path fill-rule="evenodd" clip-rule="evenodd" d="M20 4H4V20H20V4ZM11.0906 7.4812C11.1256 7.36808 11.1431 7.24276 11.1431 7.10522C11.1431 6.91886 11.1117 6.75732 11.0491 6.62061C10.9872 6.48307 10.8957 6.37646 10.7744 6.30078C10.654 6.2251 10.5055 6.18726 10.3289 6.18726C10.1441 6.18726 9.99032 6.2255 9.86743 6.302C9.74536 6.3785 9.65422 6.48551 9.59399 6.62305C9.53377 6.76058 9.50366 6.92049 9.50366 7.10278C9.50366 7.24032 9.52035 7.36564 9.55371 7.47876C9.58789 7.59188 9.63875 7.68913 9.7063 7.77051C9.77466 7.85189 9.86011 7.91455 9.96265 7.9585C10.066 8.00244 10.1868 8.02441 10.3252 8.02441C10.4595 8.02441 10.5775 8.00244 10.6792 7.9585C10.7809 7.91455 10.866 7.85229 10.9343 7.77173C11.0035 7.69035 11.0556 7.59351 11.0906 7.4812ZM9.78687 7.49829C9.74373 7.38761 9.72217 7.25659 9.72217 7.10522C9.72217 6.95304 9.74373 6.82243 9.78687 6.71338C9.83081 6.60352 9.89754 6.51888 9.98706 6.45947C10.0766 6.40007 10.1905 6.37036 10.3289 6.37036C10.5331 6.37036 10.6833 6.43547 10.7793 6.56567C10.8761 6.69507 10.9246 6.87492 10.9246 7.10522C10.9246 7.25659 10.9034 7.38761 10.8611 7.49829C10.8188 7.60897 10.7533 7.69442 10.6646 7.75464C10.5767 7.81486 10.4635 7.84497 10.3252 7.84497C10.1877 7.84497 10.0741 7.81486 9.98462 7.75464C9.89591 7.69442 9.83 7.60897 9.78687 7.49829ZM7.53223 6.42041L8.13159 8H8.30127L8.90796 6.42285H8.91772C8.91528 6.45785 8.91284 6.49935 8.9104 6.54736C8.90796 6.59456 8.90592 6.64502 8.9043 6.69873C8.90267 6.75163 8.90186 6.80452 8.90186 6.85742V8H9.10693V6.21533H8.80176L8.22803 7.69971H8.21948L7.6543 6.21533H7.34668V8H7.53955V6.87207C7.53955 6.81348 7.53874 6.7561 7.53711 6.69995C7.53548 6.64298 7.53345 6.59049 7.53101 6.54248C7.52856 6.49447 7.52572 6.45378 7.52246 6.42041H7.53223ZM11.541 6.21533H12.0464C12.2694 6.21533 12.437 6.2487 12.5493 6.31543C12.6616 6.38216 12.7178 6.49569 12.7178 6.65601C12.7178 6.72518 12.7043 6.78743 12.6775 6.84277C12.6514 6.8973 12.6132 6.94246 12.5627 6.97827C12.5123 7.01408 12.45 7.0389 12.376 7.05273V7.06494C12.4541 7.07715 12.5233 7.09953 12.5835 7.13208C12.6437 7.16463 12.6909 7.21021 12.7251 7.2688C12.7593 7.32739 12.7764 7.40186 12.7764 7.49219C12.7764 7.60205 12.7507 7.69482 12.6995 7.77051C12.649 7.84619 12.5774 7.90356 12.4846 7.94263C12.3918 7.98088 12.282 8 12.155 8H11.541V6.21533ZM11.7485 6.98071H12.0903C12.2458 6.98071 12.3532 6.95508 12.4126 6.90381C12.4728 6.85254 12.5029 6.77767 12.5029 6.6792C12.5029 6.57747 12.4671 6.50423 12.3955 6.45947C12.3247 6.41471 12.2116 6.39233 12.0562 6.39233H11.7485V6.98071ZM11.7485 7.15527V7.823H12.1196C12.2783 7.823 12.3906 7.79207 12.4565 7.73022C12.5225 7.66756 12.5554 7.58333 12.5554 7.47754C12.5554 7.40999 12.5404 7.35221 12.5103 7.3042C12.481 7.25618 12.4329 7.21956 12.3662 7.19434C12.3003 7.16829 12.212 7.15527 12.1013 7.15527H11.7485ZM13.1377 7.7522C13.11 7.7758 13.0962 7.81608 13.0962 7.87305C13.0962 7.9292 13.11 7.9703 13.1377 7.99634C13.1654 8.02157 13.1991 8.03418 13.239 8.03418C13.2805 8.03418 13.3155 8.02157 13.344 7.99634C13.3725 7.9703 13.3867 7.9292 13.3867 7.87305C13.3867 7.81608 13.3725 7.7758 13.344 7.7522C13.3155 7.72778 13.2805 7.71558 13.239 7.71558C13.1991 7.71558 13.1654 7.72778 13.1377 7.7522ZM15.1641 6.21533V7.37012C15.1641 7.49626 15.1384 7.60856 15.0872 7.70703C15.0367 7.8055 14.9602 7.88322 14.8577 7.94019C14.7551 7.99634 14.6265 8.02441 14.4719 8.02441C14.2514 8.02441 14.0833 7.9646 13.9678 7.84497C13.853 7.72534 13.7957 7.56543 13.7957 7.36523V6.21533H14.0044V7.37134C14.0044 7.52271 14.0443 7.63949 14.124 7.72168C14.2046 7.80387 14.3246 7.84497 14.4841 7.84497C14.5932 7.84497 14.6823 7.82544 14.7515 7.78638C14.8215 7.7465 14.8731 7.69116 14.9065 7.62036C14.9407 7.54875 14.9578 7.46615 14.9578 7.37256V6.21533H15.1641ZM16.6082 6.35083C16.5024 6.2605 16.3343 6.21533 16.104 6.21533H15.6377V8H15.8452V7.2981H16.0625C16.1927 7.2981 16.3026 7.28345 16.3921 7.25415C16.4824 7.22404 16.5553 7.18335 16.6106 7.13208C16.6659 7.08 16.7058 7.02018 16.7302 6.95264C16.7555 6.88428 16.7681 6.81226 16.7681 6.73657C16.7681 6.56893 16.7148 6.44035 16.6082 6.35083ZM15.8452 6.39233H16.0845C16.2456 6.39233 16.364 6.42163 16.4397 6.48022C16.5154 6.538 16.5532 6.6263 16.5532 6.74512C16.5532 6.83626 16.5341 6.90951 16.4958 6.96484C16.4576 7.01937 16.4002 7.05884 16.3237 7.08325C16.248 7.10767 16.1532 7.11987 16.0393 7.11987H15.8452V6.39233ZM9.6123 14L8.75293 11.1997H8.73096L8.74561 11.5024C8.75374 11.6359 8.76107 11.7783 8.76758 11.9297C8.77409 12.0811 8.77734 12.2178 8.77734 12.3398V14H8.10107V10.4307H9.13135L9.97607 13.1602H9.99072L10.8867 10.4307H11.917V14H11.2114V12.3105C11.2114 12.1982 11.2131 12.0688 11.2163 11.9224C11.2212 11.7759 11.2269 11.6367 11.2334 11.5049L11.248 11.2046H11.2261L10.3057 14H9.6123ZM15.9551 12.9624C16.0234 12.7362 16.0576 12.4855 16.0576 12.2104C16.0576 11.8394 15.9966 11.5163 15.8745 11.2412C15.7541 10.9661 15.5685 10.7529 15.3179 10.6016C15.0688 10.4502 14.7507 10.3745 14.3633 10.3745C13.9743 10.3745 13.6536 10.4502 13.4014 10.6016C13.1491 10.7529 12.9619 10.9661 12.8398 11.2412C12.7194 11.5146 12.6592 11.8361 12.6592 12.2056C12.6592 12.4823 12.6934 12.7337 12.7617 12.96C12.8301 13.1862 12.9334 13.3807 13.0718 13.5435C13.2118 13.7062 13.3883 13.8315 13.6016 13.9194C13.8148 14.0057 14.0671 14.0488 14.3584 14.0488C14.6497 14.0488 14.902 14.0057 15.1152 13.9194C15.3285 13.8315 15.5042 13.7062 15.6426 13.5435C15.7826 13.3807 15.8867 13.187 15.9551 12.9624ZM13.5454 12.855C13.4836 12.6743 13.4526 12.4595 13.4526 12.2104C13.4526 11.9598 13.4836 11.745 13.5454 11.5659C13.6089 11.3853 13.7074 11.2469 13.8408 11.1509C13.9759 11.0532 14.1501 11.0044 14.3633 11.0044C14.6839 11.0044 14.9142 11.1118 15.0542 11.3267C15.1942 11.5415 15.2642 11.8361 15.2642 12.2104C15.2642 12.4595 15.2332 12.6743 15.1714 12.855C15.1112 13.034 15.0143 13.1724 14.8809 13.27C14.7474 13.366 14.5732 13.4141 14.3584 13.4141C14.1468 13.4141 13.9743 13.366 13.8408 13.27C13.7074 13.1724 13.6089 13.034 13.5454 12.855Z" fill="black"/>
</svg>
