<svg viewBox="0 0 24 24" fill="none" xmlns="http://www.w3.org/2000/svg">
<path d="M10.5 18.1963H8H5.5C5.5 16.8156 6.61929 15.6963 8 15.6963C9.38071 15.6963 10.5 16.8156 10.5 18.1963Z" fill="white"/>
<path d="M18.5 18.1963C18.5 18.1963 17.3807 18.1963 16 18.1963C14.6193 18.1963 13.5 18.1963 13.5 18.1963C13.5 16.8156 14.6193 15.6963 16 15.6963C17.3807 15.6963 18.5 16.8156 18.5 18.1963Z" fill="white"/>
<path d="M4 18V4.77778H7.77778V1H17.2222V8.55556H21V18H13.4444V14.2222H11.5556V18H4ZM5.88889 16.1111H7.77778V14.2222H5.88889V16.1111ZM5.88889 12.3333H7.77778V10.4444H5.88889V12.3333ZM5.88889 8.55556H7.77778V6.66667H5.88889V8.55556ZM9.66667 12.3333H11.5556V10.4444H9.66667V12.3333ZM9.66667 8.55556H11.5556V6.66667H9.66667V8.55556ZM9.66667 4.77778H11.5556V2.88889H9.66667V4.77778ZM13.4444 12.3333H15.3333V10.4444H13.4444V12.3333ZM13.4444 8.55556H15.3333V6.66667H13.4444V8.55556ZM13.4444 4.77778H15.3333V2.88889H13.4444V4.77778ZM17.2222 16.1111H19.1111V14.2222H17.2222V16.1111ZM17.2222 12.3333H19.1111V10.4444H17.2222V12.3333Z" fill="black"/>
<path d="M7.66211 23L6.7168 19.9197H6.69263C6.69621 19.9931 6.70158 20.1041 6.70874 20.2527C6.71769 20.3995 6.72575 20.5562 6.73291 20.7227C6.74007 20.8892 6.74365 21.0396 6.74365 21.1738V23H5.99976V19.0737H7.13306L8.06226 22.0762H8.07837L9.06396 19.0737H10.1973V23H9.42114V21.1416C9.42114 21.0181 9.42293 20.8757 9.42651 20.7146C9.43188 20.5535 9.43815 20.4004 9.44531 20.2554C9.45247 20.1086 9.45785 19.9985 9.46143 19.925H9.43726L8.4248 23H7.66211Z" fill="black"/>
<path d="M14.752 21.0315C14.752 21.3341 14.7144 21.6098 14.6392 21.8586C14.564 22.1057 14.4494 22.3188 14.2954 22.4978C14.1432 22.6768 13.9499 22.8147 13.7153 22.9114C13.4808 23.0063 13.2033 23.0537 12.8828 23.0537C12.5623 23.0537 12.2848 23.0063 12.0503 22.9114C11.8158 22.8147 11.6215 22.6768 11.4675 22.4978C11.3153 22.3188 11.2017 22.1048 11.1265 21.856C11.0513 21.6071 11.0137 21.3305 11.0137 21.0261C11.0137 20.6197 11.0799 20.2661 11.2124 19.9653C11.3467 19.6628 11.5526 19.4282 11.8301 19.2617C12.1076 19.0952 12.4603 19.012 12.8882 19.012C13.3143 19.012 13.6643 19.0952 13.9382 19.2617C14.2139 19.4282 14.4181 19.6628 14.5505 19.9653C14.6848 20.2679 14.752 20.6233 14.752 21.0315ZM11.8865 21.0315C11.8865 21.3054 11.9205 21.5417 11.9885 21.7405C12.0583 21.9374 12.1667 22.0896 12.3135 22.197C12.4603 22.3027 12.6501 22.3555 12.8828 22.3555C13.1191 22.3555 13.3107 22.3027 13.4575 22.197C13.6043 22.0896 13.7109 21.9374 13.7771 21.7405C13.8451 21.5417 13.8792 21.3054 13.8792 21.0315C13.8792 20.6197 13.8022 20.2957 13.6482 20.0593C13.4942 19.823 13.2409 19.7048 12.8882 19.7048C12.6536 19.7048 12.4621 19.7585 12.3135 19.866C12.1667 19.9716 12.0583 20.1238 11.9885 20.3225C11.9205 20.5194 11.8865 20.7558 11.8865 21.0315Z" fill="black"/>
<path d="M18.8232 20.9993C18.8232 21.4415 18.7382 21.8112 18.5681 22.1084C18.3998 22.4038 18.1554 22.6267 17.835 22.7771C17.5145 22.9257 17.1287 23 16.6775 23H15.5657V19.0737H16.7983C17.2101 19.0737 17.5673 19.1471 17.8699 19.2939C18.1724 19.439 18.407 19.6547 18.5735 19.9412C18.74 20.2258 18.8232 20.5785 18.8232 20.9993ZM17.9585 21.0208C17.9585 20.7307 17.9155 20.4926 17.8296 20.3064C17.7454 20.1184 17.6201 19.9797 17.4536 19.8901C17.2889 19.8006 17.0848 19.7559 16.8413 19.7559H16.3982V22.3125H16.7554C17.1618 22.3125 17.4635 22.2042 17.6604 21.9875C17.8591 21.7709 17.9585 21.4486 17.9585 21.0208Z" fill="black"/>
</svg>
