<svg viewBox="0 0 24 24" fill="none" xmlns="http://www.w3.org/2000/svg">
<path d="M4 18V4.77778H7.77778V1H17.2222V8.55556H21V18H13.4444V14.2222H11.5556V18H4ZM5.88889 16.1111H7.77778V14.2222H5.88889V16.1111ZM5.88889 12.3333H7.77778V10.4444H5.88889V12.3333ZM5.88889 8.55556H7.77778V6.66667H5.88889V8.55556ZM9.66667 12.3333H11.5556V10.4444H9.66667V12.3333ZM9.66667 8.55556H11.5556V6.66667H9.66667V8.55556ZM9.66667 4.77778H11.5556V2.88889H9.66667V4.77778ZM13.4444 12.3333H15.3333V10.4444H13.4444V12.3333ZM13.4444 8.55556H15.3333V6.66667H13.4444V8.55556ZM13.4444 4.77778H15.3333V2.88889H13.4444V4.77778ZM17.2222 16.1111H19.1111V14.2222H17.2222V16.1111ZM17.2222 12.3333H19.1111V10.4444H17.2222V12.3333Z" fill="black"/>
<path d="M8.66333 23L7.71802 19.9197H7.69385C7.69743 19.9931 7.7028 20.1041 7.70996 20.2527C7.71891 20.3995 7.72697 20.5562 7.73413 20.7227C7.74129 20.8892 7.74487 21.0396 7.74487 21.1738V23H7.00098V19.0737H8.13428L9.06348 22.0762H9.07959L10.0652 19.0737H11.1985V23H10.4224V21.1416C10.4224 21.0181 10.4242 20.8757 10.4277 20.7146C10.4331 20.5535 10.4394 20.4004 10.4465 20.2554C10.4537 20.1086 10.4591 19.9985 10.4626 19.925H10.4385L9.42603 23H8.66333Z" fill="black"/>
<path d="M13.4436 19.0737C13.9503 19.0737 14.32 19.1829 14.5527 19.4014C14.7855 19.618 14.9019 19.917 14.9019 20.2983C14.9019 20.4702 14.8759 20.6349 14.824 20.7925C14.7721 20.9482 14.687 21.087 14.5688 21.2087C14.4525 21.3305 14.2967 21.4272 14.1016 21.4988C13.9064 21.5686 13.6656 21.6035 13.3792 21.6035H13.022V23H12.1895V19.0737H13.4436ZM13.4006 19.7559H13.022V20.9214H13.2959C13.4517 20.9214 13.5868 20.9008 13.7014 20.8596C13.816 20.8184 13.9046 20.754 13.9673 20.6663C14.0299 20.5785 14.0613 20.4657 14.0613 20.3279C14.0613 20.1345 14.0076 19.9913 13.9001 19.8982C13.7927 19.8033 13.6262 19.7559 13.4006 19.7559Z" fill="black"/>
<path d="M15.6431 23V19.0737H16.4756V22.3125H18.0681V23H15.6431Z" fill="black"/>
</svg>
