<svg  viewBox="0 0 24 24" fill="none" xmlns="http://www.w3.org/2000/svg">
<path fill-rule="evenodd" clip-rule="evenodd" d="M4.90945 2.05873C4.28844 1.83946 3.62581 2.25831 3.55658 2.91389L3.00569 8.13028C2.96387 8.52629 3.1555 8.90287 3.48321 9.10563V21.9999H4.50265V9.20601C4.68532 9.12815 4.84613 8.99667 4.95979 8.82024L6.22743 6.85259L11.5521 8.73267H11.129C10.566 8.73267 10.1096 9.18959 10.1096 9.75323C10.1096 10.0679 10.2518 10.3493 10.4755 10.5365L8.66141 20.9794H8.58041C8.2989 20.9794 8.07069 21.2079 8.07069 21.4897C8.07069 21.7715 8.2989 22 8.58041 22H17.7554C18.0369 22 18.2651 21.7715 18.2651 21.4897C18.2651 21.2079 18.0369 20.9794 17.7554 20.9794H17.6744L15.8602 10.5366C15.9343 10.4746 15.9994 10.4024 16.0534 10.322L19.2845 11.4629V21.9999H20.304V11.5941C20.5914 11.4976 20.833 11.2742 20.9417 10.9658C21.1289 10.4342 20.8503 9.85135 20.3194 9.66388L7.3634 5.08932L7.79972 4.41207C8.15662 3.85808 7.90309 3.11574 7.28208 2.89647L4.90945 2.05873ZM11.469 10.7738H12.6582V11.4595L11.0745 13.0449L11.469 10.7738ZM10.8405 14.3918L10.2681 17.6868L12.2 15.7528L10.8405 14.3918ZM9.69615 20.9794L10.0595 18.8877L12.149 20.9794H9.69615ZM16.6396 20.9794H14.1876L16.2764 18.8884L16.6396 20.9794ZM15.4953 14.3924L16.0675 17.6858L14.1365 15.7527L15.4953 14.3924ZM15.3308 18.3916L13.6776 16.7366V20.0467L15.3308 18.3916ZM12.6582 16.7374L11.0057 18.3916L12.6582 20.0459V16.7374ZM15.2611 13.0441L14.8667 10.7738H13.6776V11.4589L15.2611 13.0441ZM13.6776 12.9022L14.6099 13.8355L13.6776 14.7688V12.9022ZM12.6582 14.7682L11.7265 13.8355L12.6582 12.9028V14.7682Z" fill="black"/>
</svg>
