<svg viewBox="0 0 24 24" fill="none" xmlns="http://www.w3.org/2000/svg">
<path d="M4 18V4.77778H7.77778V1H17.2222V8.55556H21V18H13.4444V14.2222H11.5556V18H4ZM5.88889 16.1111H7.77778V14.2222H5.88889V16.1111ZM5.88889 12.3333H7.77778V10.4444H5.88889V12.3333ZM5.88889 8.55556H7.77778V6.66667H5.88889V8.55556ZM9.66667 12.3333H11.5556V10.4444H9.66667V12.3333ZM9.66667 8.55556H11.5556V6.66667H9.66667V8.55556ZM9.66667 4.77778H11.5556V2.88889H9.66667V4.77778ZM13.4444 12.3333H15.3333V10.4444H13.4444V12.3333ZM13.4444 8.55556H15.3333V6.66667H13.4444V8.55556ZM13.4444 4.77778H15.3333V2.88889H13.4444V4.77778ZM17.2222 16.1111H19.1111V14.2222H17.2222V16.1111ZM17.2222 12.3333H19.1111V10.4444H17.2222V12.3333Z" fill="black"/>
<path d="M8.25391 19.0737C8.76058 19.0737 9.13029 19.1829 9.36304 19.4014C9.59578 19.618 9.71216 19.917 9.71216 20.2983C9.71216 20.4702 9.6862 20.6349 9.63428 20.7925C9.58236 20.9482 9.49731 21.087 9.37915 21.2087C9.26278 21.3305 9.10701 21.4272 8.91187 21.4988C8.71672 21.5686 8.47591 21.6035 8.18945 21.6035H7.83228V23H6.99976V19.0737H8.25391ZM8.21094 19.7559H7.83228V20.9214H8.1062C8.26196 20.9214 8.39714 20.9008 8.51172 20.8596C8.6263 20.8184 8.71493 20.754 8.77759 20.6663C8.84025 20.5785 8.87158 20.4657 8.87158 20.3279C8.87158 20.1345 8.81787 19.9913 8.71045 19.8982C8.60303 19.8033 8.43652 19.7559 8.21094 19.7559Z" fill="black"/>
<path d="M13.7109 20.9993C13.7109 21.4415 13.6259 21.8112 13.4558 22.1084C13.2875 22.4038 13.0431 22.6267 12.7227 22.7771C12.4022 22.9257 12.0164 23 11.5652 23H10.4534V19.0737H11.686C12.0978 19.0737 12.455 19.1471 12.7576 19.2939C13.0601 19.439 13.2947 19.6547 13.4612 19.9412C13.6277 20.2258 13.7109 20.5785 13.7109 20.9993ZM12.8462 21.0208C12.8462 20.7307 12.8032 20.4926 12.7173 20.3064C12.6331 20.1184 12.5078 19.9797 12.3413 19.8901C12.1766 19.8006 11.9725 19.7559 11.729 19.7559H11.2859V22.3125H11.6431C12.0495 22.3125 12.3512 22.2042 12.5481 21.9875C12.7468 21.7709 12.8462 21.4486 12.8462 21.0208Z" fill="black"/>
<path d="M17.605 19.0737L16.2703 23H15.3625L14.0305 19.0737H14.8711L15.6096 21.4102C15.6222 21.4495 15.6427 21.5238 15.6714 21.6331C15.7 21.7405 15.7287 21.8551 15.7573 21.9768C15.7878 22.0968 15.8083 22.1961 15.8191 22.2749C15.8298 22.1961 15.8486 22.0968 15.8755 21.9768C15.9041 21.8569 15.9319 21.7432 15.9587 21.6357C15.9874 21.5265 16.008 21.4513 16.0205 21.4102L16.7644 19.0737H17.605Z" fill="black"/>
</svg>
