<svg viewBox="0 0 24 24" fill="none" xmlns="http://www.w3.org/2000/svg">
<path d="M4 18V4.77778H7.77778V1H17.2222V8.55556H21V18H13.4444V14.2222H11.5556V18H4ZM5.88889 16.1111H7.77778V14.2222H5.88889V16.1111ZM5.88889 12.3333H7.77778V10.4444H5.88889V12.3333ZM5.88889 8.55556H7.77778V6.66667H5.88889V8.55556ZM9.66667 12.3333H11.5556V10.4444H9.66667V12.3333ZM9.66667 8.55556H11.5556V6.66667H9.66667V8.55556ZM9.66667 4.77778H11.5556V2.88889H9.66667V4.77778ZM13.4444 12.3333H15.3333V10.4444H13.4444V12.3333ZM13.4444 8.55556H15.3333V6.66667H13.4444V8.55556ZM13.4444 4.77778H15.3333V2.88889H13.4444V4.77778ZM17.2222 16.1111H19.1111V14.2222H17.2222V16.1111ZM17.2222 12.3333H19.1111V10.4444H17.2222V12.3333Z" fill="black"/>
<path d="M8.25464 19.0737C8.76131 19.0737 9.13102 19.1829 9.36377 19.4014C9.59652 19.618 9.71289 19.917 9.71289 20.2983C9.71289 20.4702 9.68693 20.6349 9.63501 20.7925C9.58309 20.9482 9.49805 21.087 9.37988 21.2087C9.26351 21.3305 9.10775 21.4272 8.9126 21.4988C8.71745 21.5686 8.47664 21.6035 8.19019 21.6035H7.83301V23H7.00049V19.0737H8.25464ZM8.21167 19.7559H7.83301V20.9214H8.10693C8.2627 20.9214 8.39787 20.9008 8.51245 20.8596C8.62703 20.8184 8.71566 20.754 8.77832 20.6663C8.84098 20.5785 8.87231 20.4657 8.87231 20.3279C8.87231 20.1345 8.8186 19.9913 8.71118 19.8982C8.60376 19.8033 8.43726 19.7559 8.21167 19.7559Z" fill="black"/>
<path d="M12.8577 23L12.573 22.0654H11.1416L10.8569 23H9.95996L11.3457 19.0576H12.3635L13.7546 23H12.8577ZM12.3743 21.3672L12.0896 20.4541C12.0717 20.3932 12.0475 20.3153 12.0171 20.2205C11.9884 20.1238 11.9589 20.0262 11.9285 19.9277C11.8998 19.8275 11.8765 19.7406 11.8586 19.6672C11.8407 19.7406 11.8157 19.8319 11.7834 19.9412C11.753 20.0486 11.7235 20.1506 11.6948 20.2473C11.6662 20.344 11.6456 20.4129 11.6331 20.4541L11.3511 21.3672H12.3743Z" fill="black"/>
<path d="M15.3955 19.0737C15.7518 19.0737 16.0454 19.1167 16.2764 19.2026C16.5091 19.2886 16.6819 19.4184 16.7947 19.592C16.9075 19.7657 16.9639 19.985 16.9639 20.25C16.9639 20.429 16.9299 20.5857 16.8618 20.72C16.7938 20.8542 16.7043 20.9679 16.5933 21.061C16.4823 21.1541 16.3623 21.2302 16.2334 21.2893L17.3882 23H16.4644L15.5271 21.4934H15.084V23H14.2515V19.0737H15.3955ZM15.3364 19.7559H15.084V20.8167H15.3525C15.6283 20.8167 15.8252 20.771 15.9434 20.6797C16.0633 20.5866 16.1233 20.4505 16.1233 20.2715C16.1233 20.0853 16.0588 19.9528 15.9299 19.874C15.8028 19.7952 15.605 19.7559 15.3364 19.7559Z" fill="black"/>
</svg>
