<svg  viewBox="0 0 24 24" fill="none" xmlns="http://www.w3.org/2000/svg">
<path fill-rule="evenodd" clip-rule="evenodd" d="M12 6.34286C9.36853 6.34286 7.23529 8.53027 7.23529 11.2286C7.23529 13.9269 9.36853 16.1143 12 16.1143C14.6315 16.1143 16.7647 13.9269 16.7647 11.2286C16.7647 8.53027 14.6315 6.34286 12 6.34286ZM8.29412 11.2286C8.29412 9.12989 9.9533 7.42857 12 7.42857C14.0467 7.42857 15.7059 9.12989 15.7059 11.2286C15.7059 13.3273 14.0467 15.0286 12 15.0286C9.9533 15.0286 8.29412 13.3273 8.29412 11.2286Z" fill="black"/>
<path fill-rule="evenodd" clip-rule="evenodd" d="M3 21H6.17647V18.265C7.74579 19.6318 9.77913 20.4571 12 20.4571C14.2209 20.4571 16.2539 19.6323 17.8235 18.2651V21H21V11.2286C21 6.13177 16.9706 2 12 2C7.02944 2 3 6.13177 3 11.2286V21ZM12 3.08571C7.61421 3.08571 4.05882 6.7314 4.05882 11.2286V19.9143H5.11765V11.2286C5.11765 7.33102 8.19898 4.17143 12 4.17143C15.801 4.17143 18.8824 7.33102 18.8824 11.2286C18.8824 15.1261 15.801 18.2857 12 18.2857C9.54801 18.2857 7.39551 16.9709 6.17647 14.9913V16.7647C7.62746 18.3688 9.69923 19.3714 12 19.3714C16.3858 19.3714 19.9412 15.7257 19.9412 11.2286C19.9412 6.7314 16.3858 3.08571 12 3.08571ZM19.9412 19.9143V15.5753C19.6378 16.1569 19.2754 16.7013 18.8622 17.2H18.8824V19.9143H19.9412ZM6.17647 11.2286C6.17647 14.5265 8.78375 17.2 12 17.2C15.2162 17.2 17.8235 14.5265 17.8235 11.2286C17.8235 7.93064 15.2162 5.25714 12 5.25714C8.78375 5.25714 6.17647 7.93064 6.17647 11.2286Z" fill="black"/>
<path fill-rule="evenodd" clip-rule="evenodd" d="M12 6.34286C9.36853 6.34286 7.23529 8.53027 7.23529 11.2286C7.23529 13.9269 9.36853 16.1143 12 16.1143C14.6315 16.1143 16.7647 13.9269 16.7647 11.2286C16.7647 8.53027 14.6315 6.34286 12 6.34286ZM8.29412 11.2286C8.29412 9.12989 9.9533 7.42857 12 7.42857C14.0467 7.42857 15.7059 9.12989 15.7059 11.2286C15.7059 13.3273 14.0467 15.0286 12 15.0286C9.9533 15.0286 8.29412 13.3273 8.29412 11.2286Z" stroke="black" stroke-width="0.5"/>
<path fill-rule="evenodd" clip-rule="evenodd" d="M3 21H6.17647V18.265C7.74579 19.6318 9.77913 20.4571 12 20.4571C14.2209 20.4571 16.2539 19.6323 17.8235 18.2651V21H21V11.2286C21 6.13177 16.9706 2 12 2C7.02944 2 3 6.13177 3 11.2286V21ZM12 3.08571C7.61421 3.08571 4.05882 6.7314 4.05882 11.2286V19.9143H5.11765V11.2286C5.11765 7.33102 8.19898 4.17143 12 4.17143C15.801 4.17143 18.8824 7.33102 18.8824 11.2286C18.8824 15.1261 15.801 18.2857 12 18.2857C9.54801 18.2857 7.39551 16.9709 6.17647 14.9913V16.7647C7.62746 18.3688 9.69923 19.3714 12 19.3714C16.3858 19.3714 19.9412 15.7257 19.9412 11.2286C19.9412 6.7314 16.3858 3.08571 12 3.08571ZM19.9412 19.9143V15.5753C19.6378 16.1569 19.2754 16.7013 18.8622 17.2H18.8824V19.9143H19.9412ZM6.17647 11.2286C6.17647 14.5265 8.78375 17.2 12 17.2C15.2162 17.2 17.8235 14.5265 17.8235 11.2286C17.8235 7.93064 15.2162 5.25714 12 5.25714C8.78375 5.25714 6.17647 7.93064 6.17647 11.2286Z" stroke="black" stroke-width="0.5"/>
</svg>
