<svg  viewBox="0 0 24 24" fill="none" xmlns="http://www.w3.org/2000/svg">
<path d="M4 21.5059V18.5059H7.1L4.55 10.1559C4.1 9.90588 3.72917 9.53922 3.4375 9.05588C3.14583 8.57255 3 8.05588 3 7.50588C3 6.67255 3.29167 5.96422 3.875 5.38088C4.45833 4.79755 5.16667 4.50588 6 4.50588C6.65 4.50588 7.22917 4.69338 7.7375 5.06838C8.24583 5.44338 8.6 5.92255 8.8 6.50588H12V5.50588C12 5.22255 12.0958 4.98505 12.2875 4.79338C12.4792 4.60172 12.7167 4.50588 13 4.50588C13.15 4.50588 13.2958 4.53922 13.4375 4.60588C13.5792 4.67255 13.7 4.77255 13.8 4.90588L15.5 3.30588C15.65 3.15588 15.8292 3.06005 16.0375 3.01838C16.2458 2.97672 16.45 3.00588 16.65 3.10588L20.55 4.90588C20.75 5.00588 20.8875 5.15172 20.9625 5.34338C21.0375 5.53505 21.0333 5.72255 20.95 5.90588C20.85 6.10588 20.7042 6.23505 20.5125 6.29338C20.3208 6.35172 20.1333 6.33922 19.95 6.25588L16.35 4.60588L14 6.80588V8.20588L16.35 10.3559L19.95 8.70588C20.1333 8.62255 20.325 8.61422 20.525 8.68088C20.725 8.74755 20.8667 8.87255 20.95 9.05588C21.05 9.25588 21.0583 9.44755 20.975 9.63088C20.8917 9.81422 20.75 9.95588 20.55 10.0559L16.65 11.9059C16.45 12.0059 16.2458 12.035 16.0375 11.9934C15.8292 11.9517 15.65 11.8559 15.5 11.7059L13.8 10.1059C13.7 10.2059 13.5792 10.2975 13.4375 10.3809C13.2958 10.4642 13.15 10.5059 13 10.5059C12.7167 10.5059 12.4792 10.41 12.2875 10.2184C12.0958 10.0267 12 9.78922 12 9.50588V8.50588H8.8C8.75 8.63922 8.69583 8.76422 8.6375 8.88088C8.57917 8.99755 8.5 9.12255 8.4 9.25588L13.4 18.5059H17V21.5059H4ZM6 8.50588C6.28333 8.50588 6.52083 8.41005 6.7125 8.21838C6.90417 8.02672 7 7.78922 7 7.50588C7 7.22255 6.90417 6.98505 6.7125 6.79338C6.52083 6.60172 6.28333 6.50588 6 6.50588C5.71667 6.50588 5.47917 6.60172 5.2875 6.79338C5.09583 6.98505 5 7.22255 5 7.50588C5 7.78922 5.09583 8.02672 5.2875 8.21838C5.47917 8.41005 5.71667 8.50588 6 8.50588Z" fill="black"/>
</svg>
