<svg  viewBox="0 0 24 24" fill="none" xmlns="http://www.w3.org/2000/svg">
<path d="M10.7156 15.3158C10.7156 14.0368 10.8265 13.1171 11.0482 12.5566C11.2699 11.9961 11.7401 11.3842 12.4587 10.7211C13.0856 10.1526 13.5635 9.65921 13.8922 9.24079C14.2209 8.82237 14.3853 8.34474 14.3853 7.80789C14.3853 7.16053 14.1751 6.62368 13.7546 6.19737C13.3341 5.77105 12.7492 5.55789 12 5.55789C11.2202 5.55789 10.6277 5.80263 10.2225 6.29211C9.81728 6.78158 9.53058 7.27895 9.36239 7.78421L7 6.74211C7.3211 5.73158 7.90979 4.85526 8.76605 4.11316C9.62232 3.37105 10.7003 3 12 3C13.6055 3 14.8402 3.46184 15.7041 4.38553C16.568 5.30921 17 6.41842 17 7.71316C17 8.50263 16.8356 9.17763 16.5069 9.73816C16.1781 10.2987 15.6621 10.9342 14.9587 11.6447C14.2095 12.3868 13.7546 12.9513 13.594 13.3382C13.4335 13.725 13.3532 14.3842 13.3532 15.3158H10.7156ZM12 21C11.4954 21 11.0635 20.8145 10.7041 20.4434C10.3448 20.0724 10.1651 19.6263 10.1651 19.1053C10.1651 18.5842 10.3448 18.1382 10.7041 17.7671C11.0635 17.3961 11.4954 17.2105 12 17.2105C12.5046 17.2105 12.9365 17.3961 13.2959 17.7671C13.6552 18.1382 13.8349 18.5842 13.8349 19.1053C13.8349 19.6263 13.6552 20.0724 13.2959 20.4434C12.9365 20.8145 12.5046 21 12 21Z" fill="black"/>
</svg>
