<svg  viewBox="0 0 24 24" fill="none" xmlns="http://www.w3.org/2000/svg">
<path d="M3 18V15.2C3 14.6333 3.14583 14.1125 3.4375 13.6375C3.72917 13.1625 4.11667 12.8 4.6 12.55C5.63333 12.0333 6.68333 11.6458 7.75 11.3875C8.81667 11.1292 9.9 11 11 11C11.3333 11 11.6667 11.0125 12 11.0375C12.3333 11.0625 12.6667 11.1 13 11.15V18H3ZM11 10C9.9 10 8.95833 9.60833 8.175 8.825C7.39167 8.04167 7 7.1 7 6C7 4.9 7.39167 3.95833 8.175 3.175C8.95833 2.39167 9.9 2 11 2C12.1 2 13.0417 2.39167 13.825 3.175C14.6083 3.95833 15 4.9 15 6C15 7.1 14.6083 8.04167 13.825 8.825C13.0417 9.60833 12.1 10 11 10ZM17 22V17H15V11H21L19 15H21L17 22Z" fill="black"/>
</svg>
