<svg  viewBox="0 0 24 24" fill="none" xmlns="http://www.w3.org/2000/svg">
<path d="M10.1894 8.2L12.4115 4.525L10.9384 2.075C10.7387 1.74167 10.4515 1.575 10.077 1.575C9.7025 1.575 9.41537 1.74167 9.21563 2.075L6.76881 6.15L10.1894 8.2ZM19.8518 15L17.6297 11.3L21.1002 9.3L22.6981 11.975C22.8812 12.2583 22.9811 12.575 22.9977 12.925C23.0144 13.275 22.9395 13.6 22.773 13.9C22.6066 14.2333 22.3611 14.5 22.0365 14.7C21.7119 14.9 21.3582 15 20.9754 15H19.8518ZM16.9805 22L12.9857 18L16.9805 14V16H21.7244L20.2763 18.9C20.0932 19.2333 19.8435 19.5 19.5272 19.7C19.211 19.9 18.8614 20 18.4786 20H16.9805V22ZM7.31809 20C6.98519 20 6.68142 19.9125 6.40678 19.7375C6.13213 19.5625 5.92823 19.3333 5.79507 19.05C5.66191 18.7833 5.59949 18.5042 5.60781 18.2125C5.61614 17.9208 5.6952 17.65 5.84501 17.4L6.6939 16H10.9883V20H7.31809ZM4.8463 17.15L3.22341 13.9C3.07361 13.6 3.00286 13.2792 3.01119 12.9375C3.01951 12.5958 3.11522 12.275 3.29831 11.975L3.6978 11.3L2 10.275L7.4679 8.9L8.84111 14.4L7.11835 13.35L4.8463 17.15ZM18.3288 8.6L12.8609 7.225L14.5837 6.2L11.4627 1H14.9831C15.3327 1 15.6614 1.0875 15.9694 1.2625C16.2773 1.4375 16.5228 1.675 16.7059 1.975L18.0042 4.15L19.702 3.1L18.3288 8.6Z" fill="#1C1B1F"/>
</svg>
