<svg viewBox="0 0 24 24" fill="none" xmlns="http://www.w3.org/2000/svg">
<path d="M9.04545 15.8571V14.1429H10.9239C10.8519 14.4286 10.8051 14.7143 10.7835 15C10.7619 15.2857 10.7655 15.5714 10.7943 15.8571H9.04545ZM9.04545 20.1429C7.85076 20.1429 6.83239 19.725 5.99034 18.8893C5.1483 18.0536 4.72727 17.0429 4.72727 15.8571V8.14286C4.25227 8.14286 3.84564 7.975 3.50739 7.63929C3.16913 7.30357 3 6.9 3 6.42857V4.71429C3 4.24286 3.16913 3.83929 3.50739 3.50357C3.84564 3.16786 4.25227 3 4.72727 3H13.3636C13.8386 3 14.2453 3.16786 14.5835 3.50357C14.9218 3.83929 15.0909 4.24286 15.0909 4.71429V6.42857C15.0909 6.9 14.9218 7.30357 14.5835 7.63929C14.2453 7.975 13.8386 8.14286 13.3636 8.14286V10.7357C13.0182 10.95 12.7015 11.2 12.4136 11.4857C12.1258 11.7714 11.8739 12.0857 11.658 12.4286H9.04545V10.7143H11.6364V8.14286H6.45455V15.8571C6.45455 16.5714 6.70644 17.1786 7.21023 17.6786C7.71402 18.1786 8.32576 18.4286 9.04545 18.4286C9.47727 18.4286 9.86951 18.3357 10.2222 18.15C10.5748 17.9643 10.8735 17.7071 11.1182 17.3786C11.2333 17.6643 11.3629 17.9357 11.5068 18.1929C11.6508 18.45 11.8235 18.7 12.025 18.9429C11.6364 19.3143 11.1902 19.6071 10.6864 19.8214C10.1826 20.0357 9.63561 20.1429 9.04545 20.1429ZM16.3864 17.5714C16.9909 17.5714 17.5019 17.3643 17.9193 16.95C18.3367 16.5357 18.5455 16.0286 18.5455 15.4286C18.5455 14.8286 18.3367 14.3214 17.9193 13.9071C17.5019 13.4929 16.9909 13.2857 16.3864 13.2857C15.7818 13.2857 15.2708 13.4929 14.8534 13.9071C14.436 14.3214 14.2273 14.8286 14.2273 15.4286C14.2273 16.0286 14.436 16.5357 14.8534 16.95C15.2708 17.3643 15.7818 17.5714 16.3864 17.5714ZM20.7909 21L18.4591 18.6857C18.1424 18.8857 17.8114 19.0357 17.4659 19.1357C17.1205 19.2357 16.7606 19.2857 16.3864 19.2857C15.3068 19.2857 14.3892 18.9107 13.6335 18.1607C12.8778 17.4107 12.5 16.5 12.5 15.4286C12.5 14.3571 12.8778 13.4464 13.6335 12.6964C14.3892 11.9464 15.3068 11.5714 16.3864 11.5714C17.4659 11.5714 18.3835 11.9464 19.1392 12.6964C19.8949 13.4464 20.2727 14.3571 20.2727 15.4286C20.2727 15.8 20.2223 16.1571 20.1216 16.5C20.0208 16.8429 19.8697 17.1714 19.6682 17.4857L22 19.8L20.7909 21Z" fill="black"/>
</svg>
