<svg viewBox="0 0 24 24" fill="none" xmlns="http://www.w3.org/2000/svg">
<path d="M4 18V4.77778H7.77778V1H17.2222V8.55556H21V18H13.4444V14.2222H11.5556V18H4ZM5.88889 16.1111H7.77778V14.2222H5.88889V16.1111ZM5.88889 12.3333H7.77778V10.4444H5.88889V12.3333ZM5.88889 8.55556H7.77778V6.66667H5.88889V8.55556ZM9.66667 12.3333H11.5556V10.4444H9.66667V12.3333ZM9.66667 8.55556H11.5556V6.66667H9.66667V8.55556ZM9.66667 4.77778H11.5556V2.88889H9.66667V4.77778ZM13.4444 12.3333H15.3333V10.4444H13.4444V12.3333ZM13.4444 8.55556H15.3333V6.66667H13.4444V8.55556ZM13.4444 4.77778H15.3333V2.88889H13.4444V4.77778ZM17.2222 16.1111H19.1111V14.2222H17.2222V16.1111ZM17.2222 12.3333H19.1111V10.4444H17.2222V12.3333Z" fill="black"/>
<path d="M8.89844 23H8.06592V19.7666H6.99976V19.0737H9.9646V19.7666H8.89844V23Z" fill="black"/>
<path d="M14.1326 21.0315C14.1326 21.3341 14.095 21.6098 14.0198 21.8586C13.9446 22.1057 13.83 22.3188 13.676 22.4978C13.5238 22.6768 13.3305 22.8147 13.0959 22.9114C12.8614 23.0063 12.5839 23.0537 12.2634 23.0537C11.943 23.0537 11.6654 23.0063 11.4309 22.9114C11.1964 22.8147 11.0021 22.6768 10.8481 22.4978C10.696 22.3188 10.5823 22.1048 10.5071 21.856C10.4319 21.6071 10.3943 21.3305 10.3943 21.0261C10.3943 20.6197 10.4605 20.2661 10.593 19.9653C10.7273 19.6628 10.9332 19.4282 11.2107 19.2617C11.4882 19.0952 11.8409 19.012 12.2688 19.012C12.6949 19.012 13.0449 19.0952 13.3188 19.2617C13.5946 19.4282 13.7987 19.6628 13.9312 19.9653C14.0654 20.2679 14.1326 20.6233 14.1326 21.0315ZM11.2671 21.0315C11.2671 21.3054 11.3011 21.5417 11.3691 21.7405C11.439 21.9374 11.5473 22.0896 11.6941 22.197C11.8409 22.3027 12.0307 22.3555 12.2634 22.3555C12.4998 22.3555 12.6913 22.3027 12.8381 22.197C12.9849 22.0896 13.0915 21.9374 13.1577 21.7405C13.2257 21.5417 13.2598 21.3054 13.2598 21.0315C13.2598 20.6197 13.1828 20.2957 13.0288 20.0593C12.8748 19.823 12.6215 19.7048 12.2688 19.7048C12.0343 19.7048 11.8427 19.7585 11.6941 19.866C11.5473 19.9716 11.439 20.1238 11.3691 20.3225C11.3011 20.5194 11.2671 20.7558 11.2671 21.0315Z" fill="black"/>
<path d="M16.0903 19.0737C16.4466 19.0737 16.7402 19.1167 16.9712 19.2026C17.2039 19.2886 17.3767 19.4184 17.4895 19.592C17.6023 19.7657 17.6587 19.985 17.6587 20.25C17.6587 20.429 17.6247 20.5857 17.5566 20.72C17.4886 20.8542 17.3991 20.9679 17.2881 21.061C17.1771 21.1541 17.0571 21.2302 16.9282 21.2893L18.083 23H17.1592L16.2219 21.4934H15.7788V23H14.9463V19.0737H16.0903ZM16.0312 19.7559H15.7788V20.8167H16.0474C16.3231 20.8167 16.52 20.771 16.6382 20.6797C16.7581 20.5866 16.8181 20.4505 16.8181 20.2715C16.8181 20.0853 16.7537 19.9528 16.6248 19.874C16.4976 19.7952 16.2998 19.7559 16.0312 19.7559Z" fill="black"/>
</svg>
