<svg viewBox="0 0 24 24" fill="none" xmlns="http://www.w3.org/2000/svg">
<path d="M11.5084 5.56176H14.4831L17.7454 2.293C17.8376 2.20016 17.9472 2.12647 18.0681 2.07618C18.1889 2.02589 18.3185 2 18.4494 2C18.5803 2 18.7099 2.02589 18.8307 2.07618C18.9516 2.12647 19.0612 2.20016 19.1534 2.293L21.7117 4.85848C21.8963 5.04407 22 5.29512 22 5.5568C22 5.81849 21.8963 6.06954 21.7117 6.25513L19.441 8.53335H11.5084V10.5144C11.5084 10.7771 11.404 11.0291 11.218 11.2148C11.0321 11.4006 10.7798 11.505 10.5169 11.505C10.2539 11.505 10.0017 11.4006 9.81572 11.2148C9.62977 11.0291 9.5253 10.7771 9.5253 10.5144V7.54282C9.5253 7.01741 9.73423 6.51352 10.1061 6.142C10.4781 5.77047 10.9825 5.56176 11.5084 5.56176ZM5.55903 10.5144V14.4766L3.28834 16.7449C3.10366 16.9305 3 17.1815 3 17.4432C3 17.7049 3.10366 17.9559 3.28834 18.1415L5.84658 20.707C5.93876 20.7998 6.04843 20.8735 6.16926 20.9238C6.29009 20.9741 6.4197 21 6.5506 21C6.68149 21 6.8111 20.9741 6.93193 20.9238C7.05276 20.8735 7.16243 20.7998 7.25461 20.707L11.5084 16.4576H15.4747C15.7377 16.4576 15.9899 16.3533 16.1758 16.1675C16.3618 15.9817 16.4663 15.7298 16.4663 15.4671V14.4766H17.4578C17.7208 14.4766 17.973 14.3722 18.159 14.1864C18.3449 14.0007 18.4494 13.7487 18.4494 13.486V12.4955H19.441C19.7039 12.4955 19.9562 12.3911 20.1421 12.2054C20.3281 12.0196 20.4325 11.7677 20.4325 11.505V10.5144H13.4916V11.505C13.4916 12.0304 13.2826 12.5343 12.9107 12.9058C12.5388 13.2773 12.0344 13.486 11.5084 13.486H9.5253C8.99934 13.486 8.49492 13.2773 8.12301 12.9058C7.7511 12.5343 7.54216 12.0304 7.54216 11.505V8.53335L5.55903 10.5144Z" fill="black"/>
</svg>
