<svg viewBox="0 0 24 24" fill="none" xmlns="http://www.w3.org/2000/svg">
<path d="M6 20C4.61667 20 3.4375 19.5125 2.4625 18.5375C1.4875 17.5625 1 16.3834 1 15C1 13.6167 1.4875 12.4375 2.4625 11.4625C3.4375 10.4875 4.61667 10 6 10C7.38333 10 8.5625 10.4875 9.5375 11.4625C10.5125 12.4375 11 13.6167 11 15C11 16.3834 10.5125 17.5625 9.5375 18.5375C8.5625 19.5125 7.38333 20 6 20ZM6 16.5C5.58333 16.5 5.22917 16.3542 4.9375 16.0625C4.64583 15.7709 4.5 15.4167 4.5 15C4.5 14.5834 4.64583 14.2292 4.9375 13.9375C5.22917 13.6459 5.58333 13.5 6 13.5C6.41667 13.5 6.77083 13.6459 7.0625 13.9375C7.35417 14.2292 7.5 14.5834 7.5 15C7.5 15.4167 7.35417 15.7709 7.0625 16.0625C6.77083 16.3542 6.41667 16.5 6 16.5ZM19.5 20C18.5333 20 17.7083 19.6584 17.025 18.975C16.3417 18.2917 16 17.4667 16 16.5C16 15.5334 16.3417 14.7084 17.025 14.025C17.7083 13.3417 18.5333 13 19.5 13C20.4667 13 21.2917 13.3417 21.975 14.025C22.6583 14.7084 23 15.5334 23 16.5C23 17.4667 22.6583 18.2917 21.975 18.975C21.2917 19.6584 20.4667 20 19.5 20ZM4 9.00005C3.71667 9.00005 3.47917 8.90422 3.2875 8.71255C3.09583 8.52088 3 8.28338 3 8.00005C3 7.71672 3.09583 7.47922 3.2875 7.28755C3.47917 7.09588 3.71667 7.00005 4 7.00005H7C7.55 7.00005 8.02083 7.19588 8.4125 7.58755C8.80417 7.97922 9 8.45005 9 9.00005H4ZM6 18C6.83333 18 7.54167 17.7084 8.125 17.125C8.70833 16.5417 9 15.8334 9 15C9 14.1667 8.70833 13.4584 8.125 12.875C7.54167 12.2917 6.83333 12 6 12C5.16667 12 4.45833 12.2917 3.875 12.875C3.29167 13.4584 3 14.1667 3 15C3 15.8334 3.29167 16.5417 3.875 17.125C4.45833 17.7084 5.16667 18 6 18ZM19.5 18C19.9167 18 20.2708 17.8542 20.5625 17.5625C20.8542 17.2709 21 16.9167 21 16.5C21 16.0834 20.8542 15.7292 20.5625 15.4375C20.2708 15.1459 19.9167 15 19.5 15C19.0833 15 18.7292 15.1459 18.4375 15.4375C18.1458 15.7292 18 16.0834 18 16.5C18 16.9167 18.1458 17.2709 18.4375 17.5625C18.7292 17.8542 19.0833 18 19.5 18ZM11.9 16H15.05C15.2167 14.8 15.7375 13.8417 16.6125 13.125C17.4875 12.4084 18.475 12.05 19.575 12.05C19.9917 12.05 20.4042 12.1084 20.8125 12.225C21.2208 12.3417 21.6167 12.5167 22 12.75V8.00005C22 7.45005 21.8042 6.97922 21.4125 6.58755C21.0208 6.19588 20.55 6.00005 20 6.00005H13.7L12.65 4.90005L14.05 3.50005L13.35 2.80005L9.8 6.35005L10.55 7.05005L11.95 5.65005L13 6.70005V9.00005C13 9.55005 12.8042 10.0209 12.4125 10.4125C12.0208 10.8042 11.55 11 11 11H10.45C10.95 11.55 11.3292 12.1667 11.5875 12.85C11.8458 13.5334 11.975 14.25 11.975 15C11.975 15.1667 11.9708 15.3334 11.9625 15.5C11.9542 15.6667 11.9333 15.8334 11.9 16Z" fill="black"/>
</svg>
