<svg viewBox="0 0 24 24" fill="none" xmlns="http://www.w3.org/2000/svg">
<path d="M4 18V4.77778H7.77778V1H17.2222V8.55556H21V18H13.4444V14.2222H11.5556V18H4ZM5.88889 16.1111H7.77778V14.2222H5.88889V16.1111ZM5.88889 12.3333H7.77778V10.4444H5.88889V12.3333ZM5.88889 8.55556H7.77778V6.66667H5.88889V8.55556ZM9.66667 12.3333H11.5556V10.4444H9.66667V12.3333ZM9.66667 8.55556H11.5556V6.66667H9.66667V8.55556ZM9.66667 4.77778H11.5556V2.88889H9.66667V4.77778ZM13.4444 12.3333H15.3333V10.4444H13.4444V12.3333ZM13.4444 8.55556H15.3333V6.66667H13.4444V8.55556ZM13.4444 4.77778H15.3333V2.88889H13.4444V4.77778ZM17.2222 16.1111H19.1111V14.2222H17.2222V16.1111ZM17.2222 12.3333H19.1111V10.4444H17.2222V12.3333Z" fill="black"/>
<path d="M9.89941 23H9.06689V19.7666H8.00073V19.0737H10.9656V19.7666H9.89941V23Z" fill="black"/>
<path d="M12.7139 19.0737C13.0701 19.0737 13.3638 19.1167 13.5947 19.2026C13.8275 19.2886 14.0002 19.4184 14.113 19.592C14.2258 19.7657 14.2822 19.985 14.2822 20.25C14.2822 20.429 14.2482 20.5857 14.1802 20.72C14.1121 20.8542 14.0226 20.9679 13.9116 21.061C13.8006 21.1541 13.6807 21.2302 13.5518 21.2893L14.7065 23H13.7827L12.8455 21.4934H12.4023V23H11.5698V19.0737H12.7139ZM12.6548 19.7559H12.4023V20.8167H12.6709C12.9466 20.8167 13.1436 20.771 13.2617 20.6797C13.3817 20.5866 13.4417 20.4505 13.4417 20.2715C13.4417 20.0853 13.3772 19.9528 13.2483 19.874C13.1212 19.7952 12.9233 19.7559 12.6548 19.7559Z" fill="black"/>
<path d="M15.2007 23V19.0737H16.0332V22.3125H17.6257V23H15.2007Z" fill="black"/>
</svg>
