<svg  viewBox="0 0 24 24" fill="none" xmlns="http://www.w3.org/2000/svg">
<path d="M5 16V4H3V2H7V14H22V16H5ZM7 21C6.45 21 5.97917 20.8042 5.5875 20.4125C5.19583 20.0208 5 19.55 5 19C5 18.45 5.19583 17.9792 5.5875 17.5875C5.97917 17.1958 6.45 17 7 17C7.55 17 8.02083 17.1958 8.4125 17.5875C8.80417 17.9792 9 18.45 9 19C9 19.55 8.80417 20.0208 8.4125 20.4125C8.02083 20.8042 7.55 21 7 21ZM8 13V7H14V13H8ZM15 13V7H21V13H15ZM20 21C19.45 21 18.9792 20.8042 18.5875 20.4125C18.1958 20.0208 18 19.55 18 19C18 18.45 18.1958 17.9792 18.5875 17.5875C18.9792 17.1958 19.45 17 20 17C20.55 17 21.0208 17.1958 21.4125 17.5875C21.8042 17.9792 22 18.45 22 19C22 19.55 21.8042 20.0208 21.4125 20.4125C21.0208 20.8042 20.55 21 20 21Z" fill="black"/>
<path d="M11 2H17V6H11V2Z" fill="black"/>
</svg>
