<svg  viewBox="0 0 24 24" fill="none" xmlns="http://www.w3.org/2000/svg">
<path d="M9.77955 22C9.26288 22 8.81288 21.8292 8.42955 21.4875C8.04621 21.1458 7.82955 20.7167 7.77955 20.2L7.00455 11.55C6.98788 11.3833 7.01705 11.2292 7.09205 11.0875C7.16705 10.9458 7.27955 10.8333 7.42955 10.75C7.56288 10.6667 7.67955 10.5667 7.77955 10.45C7.87955 10.3333 7.92955 10.1917 7.92955 10.025C7.92955 9.875 7.89621 9.7375 7.82955 9.6125C7.76288 9.4875 7.66288 9.38333 7.52955 9.3C7.36288 9.21667 7.23788 9.0875 7.15455 8.9125C7.07121 8.7375 7.05455 8.55833 7.10455 8.375L7.75455 5.75C7.80455 5.51667 7.92121 5.33333 8.10455 5.2C8.28788 5.06667 8.49621 5 8.72955 5H11.4545V4H9.95455V2H14.9545V4H13.4545V5H16.1795C16.4129 5 16.617 5.06667 16.792 5.2C16.967 5.33333 17.0795 5.51667 17.1295 5.75L17.8045 8.375C17.8545 8.55833 17.8379 8.7375 17.7545 8.9125C17.6712 9.0875 17.5462 9.21667 17.3795 9.3C17.2462 9.36667 17.142 9.45833 17.067 9.575C16.992 9.69167 16.9545 9.825 16.9545 9.975C16.9545 10.1583 17.0004 10.3125 17.092 10.4375C17.1837 10.5625 17.3045 10.6667 17.4545 10.75C17.6045 10.8333 17.7212 10.9458 17.8045 11.0875C17.8879 11.2292 17.9212 11.3833 17.9045 11.55L17.1295 20.175C17.0795 20.6917 16.8629 21.125 16.4795 21.475C16.0962 21.825 15.6462 22 15.1295 22H9.77955Z" fill="black"/>
</svg>
