<svg viewBox="0 0 24 24" fill="none" xmlns="http://www.w3.org/2000/svg">
<path d="M4 18V4.77778H7.77778V1H17.2222V8.55556H21V18H13.4444V14.2222H11.5556V18H4ZM5.88889 16.1111H7.77778V14.2222H5.88889V16.1111ZM5.88889 12.3333H7.77778V10.4444H5.88889V12.3333ZM5.88889 8.55556H7.77778V6.66667H5.88889V8.55556ZM9.66667 12.3333H11.5556V10.4444H9.66667V12.3333ZM9.66667 8.55556H11.5556V6.66667H9.66667V8.55556ZM9.66667 4.77778H11.5556V2.88889H9.66667V4.77778ZM13.4444 12.3333H15.3333V10.4444H13.4444V12.3333ZM13.4444 8.55556H15.3333V6.66667H13.4444V8.55556ZM13.4444 4.77778H15.3333V2.88889H13.4444V4.77778ZM17.2222 16.1111H19.1111V14.2222H17.2222V16.1111ZM17.2222 12.3333H19.1111V10.4444H17.2222V12.3333Z" fill="black"/>
<path d="M7.60425 19.0737H8.82617C9.34896 19.0737 9.74463 19.1471 10.0132 19.2939C10.2817 19.4408 10.416 19.6986 10.416 20.0674C10.416 20.216 10.3918 20.3503 10.3435 20.4702C10.297 20.5902 10.2289 20.6886 10.1394 20.7656C10.0499 20.8426 9.94067 20.8927 9.81177 20.916V20.9429C9.94246 20.9697 10.0606 21.0163 10.1663 21.0825C10.2719 21.147 10.356 21.2419 10.4187 21.3672C10.4832 21.4907 10.5154 21.6554 10.5154 21.8613C10.5154 22.0994 10.4572 22.3035 10.3408 22.4736C10.2244 22.6437 10.0579 22.7744 9.84131 22.8657C9.62646 22.9552 9.37044 23 9.07324 23H7.60425V19.0737ZM8.43677 20.6287H8.92017C9.16187 20.6287 9.32926 20.5911 9.42236 20.5159C9.51546 20.4389 9.56201 20.3261 9.56201 20.1775C9.56201 20.0271 9.50651 19.9197 9.39551 19.8552C9.2863 19.789 9.11263 19.7559 8.87451 19.7559H8.43677V20.6287ZM8.43677 21.2893V22.3125H8.97925C9.2299 22.3125 9.40446 22.2642 9.50293 22.1675C9.6014 22.0708 9.65063 21.941 9.65063 21.7781C9.65063 21.6814 9.62915 21.5964 9.58618 21.5229C9.54321 21.4495 9.4707 21.3923 9.36865 21.3511C9.26839 21.3099 9.12964 21.2893 8.95239 21.2893H8.43677Z" fill="black"/>
<path d="M12.4436 19.0737C12.7999 19.0737 13.0935 19.1167 13.3245 19.2026C13.5572 19.2886 13.73 19.4184 13.8428 19.592C13.9556 19.7657 14.012 19.985 14.012 20.25C14.012 20.429 13.9779 20.5857 13.9099 20.72C13.8419 20.8542 13.7524 20.9679 13.6414 21.061C13.5304 21.1541 13.4104 21.2302 13.2815 21.2893L14.4363 23H13.5125L12.5752 21.4934H12.1321V23H11.2996V19.0737H12.4436ZM12.3845 19.7559H12.1321V20.8167H12.4006C12.6764 20.8167 12.8733 20.771 12.9915 20.6797C13.1114 20.5866 13.1714 20.4505 13.1714 20.2715C13.1714 20.0853 13.1069 19.9528 12.978 19.874C12.8509 19.7952 12.6531 19.7559 12.3845 19.7559Z" fill="black"/>
<path d="M16.1846 19.0737C16.6912 19.0737 17.061 19.1829 17.2937 19.4014C17.5264 19.618 17.6428 19.917 17.6428 20.2983C17.6428 20.4702 17.6169 20.6349 17.5649 20.7925C17.513 20.9482 17.428 21.087 17.3098 21.2087C17.1934 21.3305 17.0377 21.4272 16.8425 21.4988C16.6474 21.5686 16.4066 21.6035 16.1201 21.6035H15.7629V23H14.9304V19.0737H16.1846ZM16.1416 19.7559H15.7629V20.9214H16.0369C16.1926 20.9214 16.3278 20.9008 16.4424 20.8596C16.557 20.8184 16.6456 20.754 16.7083 20.6663C16.7709 20.5785 16.8022 20.4657 16.8022 20.3279C16.8022 20.1345 16.7485 19.9913 16.6411 19.8982C16.5337 19.8033 16.3672 19.7559 16.1416 19.7559Z" fill="black"/>
</svg>
