<svg  viewBox="0 0 24 24" fill="none" xmlns="http://www.w3.org/2000/svg">
<path fill-rule="evenodd" clip-rule="evenodd" d="M2 17.2V20H10V18H9.66587L9.53699 17.4C9.45585 17.3714 9.38067 17.3369 9.31146 17.2964C9.24224 17.256 9.17422 17.2095 9.1074 17.1571L8.53461 17.3429L8.13365 16.6571L8.59189 16.2571C8.58234 16.1714 8.57757 16.0857 8.57757 16C8.57757 15.9143 8.58234 15.8286 8.59189 15.7429L8.13365 15.3429L8.53461 14.6571L9.1074 14.8429C9.17422 14.7905 9.24224 14.744 9.31146 14.7036C9.38067 14.6631 9.45585 14.6286 9.53699 14.6L9.66587 14H10.4678L10.5967 14.6C10.6778 14.6286 10.753 14.6631 10.8222 14.7036C10.8914 14.744 10.9594 14.7905 11.0263 14.8429L11.599 14.6571L12 15.3429L11.5418 15.7429C11.5513 15.8286 11.5561 15.9143 11.5561 16C11.5561 16.0857 11.5513 16.1714 11.5418 16.2571L12 16.6571L11.599 17.3429L11.0263 17.1571C10.9594 17.2095 10.8914 17.256 10.8222 17.2964C10.753 17.3369 10.6778 17.3714 10.5967 17.4L10.4678 18H10.5H10V20H18V17.2C18 16.65 17.8583 16.1333 17.575 15.65C17.2917 15.1667 16.9 14.8 16.4 14.55C15.55 14.1167 14.5917 13.75 13.525 13.45C12.4583 13.15 11.2833 13 10 13C8.71667 13 7.54167 13.15 6.475 13.45C5.40833 13.75 4.45 14.1167 3.6 14.55C3.1 14.8 2.70833 15.1667 2.425 15.65C2.14167 16.1333 2 16.65 2 17.2Z" fill="#1C1B1F"/>
<path fill-rule="evenodd" clip-rule="evenodd" d="M7.175 10.825C7.95833 11.6083 8.9 12 10 12C11.1 12 12.0417 11.6083 12.825 10.825C13.6083 10.0417 14 9.1 14 8H14.25C14.4 8 14.5208 7.95417 14.6125 7.8625C14.7042 7.77083 14.75 7.65 14.75 7.5C14.75 7.35 14.7042 7.22917 14.6125 7.1375C14.5208 7.04583 14.4 7 14.25 7H14C14 6.25 13.8167 5.575 13.45 4.975C13.0833 4.375 12.6 3.9 12 3.55V4.5C12 4.65 11.9542 4.77083 11.8625 4.8625C11.7708 4.95417 11.65 5 11.5 5C11.35 5 11.2292 4.95417 11.1375 4.8625C11.0458 4.77083 11 4.65 11 4.5V3.15C10.85 3.1 10.6917 3.0625 10.525 3.0375C10.3583 3.0125 10.1833 3 10 3C9.81667 3 9.64167 3.0125 9.475 3.0375C9.30833 3.0625 9.15 3.1 9 3.15V4.5C9 4.65 8.95417 4.77083 8.8625 4.8625C8.77083 4.95417 8.65 5 8.5 5C8.35 5 8.22917 4.95417 8.1375 4.8625C8.04583 4.77083 8 4.65 8 4.5V3.55C7.4 3.9 6.91667 4.375 6.55 4.975C6.18333 5.575 6 6.25 6 7H5.75C5.6 7 5.47917 7.04583 5.3875 7.1375C5.29583 7.22917 5.25 7.35 5.25 7.5C5.25 7.65 5.29583 7.77083 5.3875 7.8625C5.47917 7.95417 5.6 8 5.75 8H6C6 9.1 6.39167 10.0417 7.175 10.825ZM11.4125 9.4125C11.0208 9.80417 10.55 10 10 10C9.45 10 8.97917 9.80417 8.5875 9.4125C8.19583 9.02083 8 8.55 8 8H12C12 8.55 11.8042 9.02083 11.4125 9.4125Z" fill="#1C1B1F"/>
<path d="M10.6754 16.6071C10.5084 16.7738 10.3055 16.8571 10.0668 16.8571C9.82816 16.8571 9.6253 16.7738 9.45823 16.6071C9.29117 16.4405 9.20764 16.2381 9.20764 16C9.20764 15.7619 9.29117 15.5595 9.45823 15.3929C9.6253 15.2262 9.82816 15.1429 10.0668 15.1429C10.3055 15.1429 10.5084 15.2262 10.6754 15.3929C10.8425 15.5595 10.926 15.7619 10.926 16C10.926 16.2381 10.8425 16.4405 10.6754 16.6071Z" fill="#1C1B1F"/>
<path d="M16 10V4.55556H17.5556V3H21.4444V6.11111H23V10H19.8889V8.44444H19.1111V10H16ZM16.7778 9.22222H17.5556V8.44444H16.7778V9.22222ZM16.7778 7.66667H17.5556V6.88889H16.7778V7.66667ZM16.7778 6.11111H17.5556V5.33333H16.7778V6.11111ZM18.3333 7.66667H19.1111V6.88889H18.3333V7.66667ZM18.3333 6.11111H19.1111V5.33333H18.3333V6.11111ZM18.3333 4.55556H19.1111V3.77778H18.3333V4.55556ZM19.8889 7.66667H20.6667V6.88889H19.8889V7.66667ZM19.8889 6.11111H20.6667V5.33333H19.8889V6.11111ZM19.8889 4.55556H20.6667V3.77778H19.8889V4.55556ZM21.4444 9.22222H22.2222V8.44444H21.4444V9.22222ZM21.4444 7.66667H22.2222V6.88889H21.4444V7.66667Z" fill="#1C1B1F"/>
</svg>
