<svg  viewBox="0 0 24 24" fill="none" xmlns="http://www.w3.org/2000/svg">
<path d="M6 18V19C6 19.2833 5.90417 19.5208 5.7125 19.7125C5.52083 19.9042 5.28333 20 5 20H4C3.71667 20 3.47917 19.9042 3.2875 19.7125C3.09583 19.5208 3 19.2833 3 19V11L5.1 5C5.2 4.7 5.37917 4.45833 5.6375 4.275C5.89583 4.09167 6.18333 4 6.5 4H17.5C17.8167 4 18.1042 4.09167 18.3625 4.275C18.6208 4.45833 18.8 4.7 18.9 5L21 11V19C21 19.2833 20.9042 19.5208 20.7125 19.7125C20.5208 19.9042 20.2833 20 20 20H19C18.7167 20 18.4792 19.9042 18.2875 19.7125C18.0958 19.5208 18 19.2833 18 19V18H6ZM5.8 9H18.2L17.15 6H6.85L5.8 9ZM7.5 15C7.91667 15 8.27083 14.8542 8.5625 14.5625C8.85417 14.2708 9 13.9167 9 13.5C9 13.0833 8.85417 12.7292 8.5625 12.4375C8.27083 12.1458 7.91667 12 7.5 12C7.08333 12 6.72917 12.1458 6.4375 12.4375C6.14583 12.7292 6 13.0833 6 13.5C6 13.9167 6.14583 14.2708 6.4375 14.5625C6.72917 14.8542 7.08333 15 7.5 15ZM16.5 15C16.9167 15 17.2708 14.8542 17.5625 14.5625C17.8542 14.2708 18 13.9167 18 13.5C18 13.0833 17.8542 12.7292 17.5625 12.4375C17.2708 12.1458 16.9167 12 16.5 12C16.0833 12 15.7292 12.1458 15.4375 12.4375C15.1458 12.7292 15 13.0833 15 13.5C15 13.9167 15.1458 14.2708 15.4375 14.5625C15.7292 14.8542 16.0833 15 16.5 15Z" fill="black"/>
</svg>
