<svg xmlns="http://www.w3.org/2000/svg" viewBox="0 0 24 24">
 <g>
  <path d="m20.71,7.04c0.39,-0.39 0.39,-1.04 0,-1.41l-2.34,-2.34c-0.37,-0.39 -1.02,-0.39 -1.41,0l-1.84,1.83l3.75,3.75m-15.87,8.38l0,3.75l3.75,0l11.06,-11.07l-3.75,-3.75l-11.06,11.07z" id="svg_1"/>
  <g stroke="null">
   <path d="m23.65218,22.01143l0,1.74503l-1.70823,0l0,-1.30877l-1.28117,0l0,-1.30877l-1.28117,0l-0.96515,-0.98594c-0.23488,0.07416 -0.48258,0.11343 -0.74308,0.11343a2.56235,2.61754 0 0 1 -2.56235,-2.61754a2.56235,2.61754 0 0 1 2.56235,-2.61754a2.56235,2.61754 0 0 1 2.56235,2.61754c0,0.26612 -0.03844,0.51915 -0.11104,0.75909l3.5275,3.60348m-6.40587,-5.67134a0.85412,0.87251 0 0 0 -0.85412,0.87251a0.85412,0.87251 0 0 0 0.85412,0.87251a0.85412,0.87251 0 0 0 0.85412,-0.87251a0.85412,0.87251 0 0 0 -0.85412,-0.87251z" stroke="null"/>
  </g>
 </g>

</svg>