<svg  viewBox="0 0 24 24" fill="none" xmlns="http://www.w3.org/2000/svg">
<path d="M7 15V16H11V15H7Z" fill="black"/>
<path d="M11 17H7V18H11V17Z" fill="black"/>
<path d="M7 13H11V14H7V13Z" fill="black"/>
<path d="M15 11.5C15.2761 11.5 15.5 11.2761 15.5 11C15.5 10.7239 15.2761 10.5 15 10.5C14.7239 10.5 14.5 10.7239 14.5 11C14.5 11.2761 14.7239 11.5 15 11.5Z" fill="black"/>
<path d="M17.5 11C17.5 11.2761 17.2761 11.5 17 11.5C16.7239 11.5 16.5 11.2761 16.5 11C16.5 10.7239 16.7239 10.5 17 10.5C17.2761 10.5 17.5 10.7239 17.5 11Z" fill="black"/>
<path fill-rule="evenodd" clip-rule="evenodd" d="M3 5C3 3.89543 3.89543 3 5 3H19C20.1046 3 21 3.89543 21 5V19C21 20.1046 20.1046 21 19 21H5C3.89543 21 3 20.1046 3 19V5ZM14 5H18V9H14V5ZM14.5 14C14.2239 14 14 14.2239 14 14.5V18.5C14 18.7761 14.2239 19 14.5 19C14.7761 19 15 18.7761 15 18.5V14.5C15 14.2239 14.7761 14 14.5 14ZM6 9V7H10V9H6ZM11.5 19H6.5C6.22386 19 6 18.7761 6 18.5V12.5C6 12.2239 6.22386 12 6.5 12H11.5C11.7761 12 12 12.2239 12 12.5V18.5C12 18.7761 11.7761 19 11.5 19ZM17.5 14C17.2239 14 17 14.2239 17 14.5V18.5C17 18.7761 17.2239 19 17.5 19C17.7761 19 18 18.7761 18 18.5V14.5C18 14.2239 17.7761 14 17.5 14ZM15 12C15.5523 12 16 11.5523 16 11C16 11.5523 16.4477 12 17 12C17.5523 12 18 11.5523 18 11C18 10.4477 17.5523 10 17 10C16.4477 10 16 10.4477 16 11C16 10.4477 15.5523 10 15 10C14.4477 10 14 10.4477 14 11C14 11.5523 14.4477 12 15 12ZM5 4.5C5 4.77614 4.77614 5 4.5 5C4.22386 5 4 4.77614 4 4.5C4 4.22386 4.22386 4 4.5 4C4.77614 4 5 4.22386 5 4.5ZM19.5 5C19.7761 5 20 4.77614 20 4.5C20 4.22386 19.7761 4 19.5 4C19.2239 4 19 4.22386 19 4.5C19 4.77614 19.2239 5 19.5 5ZM20 19.5C20 19.7761 19.7761 20 19.5 20C19.2239 20 19 19.7761 19 19.5C19 19.2239 19.2239 19 19.5 19C19.7761 19 20 19.2239 20 19.5ZM4.5 20C4.77614 20 5 19.7761 5 19.5C5 19.2239 4.77614 19 4.5 19C4.22386 19 4 19.2239 4 19.5C4 19.7761 4.22386 20 4.5 20Z" fill="black"/>
</svg>
