<svg viewBox="0 0 24 24" fill="none" xmlns="http://www.w3.org/2000/svg">
<path d="M11.8438 9.02174V7.13043C11.275 6.97101 10.8047 6.66304 10.4328 6.20652C10.0609 5.75 9.875 5.21739 9.875 4.6087C9.875 3.88406 10.1302 3.26812 10.6406 2.76087C11.151 2.25362 11.7708 2 12.5 2C13.2292 2 13.849 2.25362 14.3594 2.76087C14.8698 3.26812 15.125 3.88406 15.125 4.6087C15.125 5.21739 14.9354 5.75 14.5563 6.20652C14.1771 6.66304 13.7104 6.97101 13.1562 7.13043V9.02174H11.8438Z" fill="black"/>
<path d="M6.83438 11.6739L8.60625 12.2609L9.02188 11.0435L7.25 10.4348V10.2609C7.25 9.53623 6.99479 8.92029 6.48438 8.41304C5.97396 7.9058 5.35417 7.65217 4.625 7.65217C3.89583 7.65217 3.27604 7.9058 2.76562 8.41304C2.25521 8.92029 2 9.53623 2 10.2609C2 10.9855 2.25521 11.6014 2.76562 12.1087C3.27604 12.6159 3.89583 12.8696 4.625 12.8696C5.09167 12.8696 5.51458 12.7609 5.89375 12.5435C6.27292 12.3261 6.58646 12.0362 6.83438 11.6739Z" fill="black"/>
<path d="M5.39062 21.2391C5.90104 21.7464 6.52083 22 7.25 22C7.97917 22 8.59896 21.7464 9.10938 21.2391C9.61979 20.7319 9.875 20.1159 9.875 19.3913C9.875 19.1014 9.8276 18.8225 9.73281 18.5543C9.63802 18.2862 9.51042 18.0435 9.35 17.8261L10.575 16.2826L9.56875 15.4783L8.32187 17.0217C8.16146 16.9493 7.99375 16.8913 7.81875 16.8478C7.64375 16.8043 7.45417 16.7826 7.25 16.7826C6.52083 16.7826 5.90104 17.0362 5.39062 17.5435C4.88021 18.0507 4.625 18.6667 4.625 19.3913C4.625 20.1159 4.88021 20.7319 5.39062 21.2391Z" fill="black"/>
<path d="M17.75 10.4348L15.9781 11.0435L16.3938 12.2609L18.1656 11.6739C18.399 12.0362 18.7089 12.3261 19.0953 12.5435C19.4818 12.7609 19.9083 12.8696 20.375 12.8696C21.1042 12.8696 21.724 12.6159 22.2344 12.1087C22.7448 11.6014 23 10.9855 23 10.2609C23 9.53623 22.7448 8.92029 22.2344 8.41304C21.724 7.9058 21.1042 7.65217 20.375 7.65217C19.6458 7.65217 19.026 7.9058 18.5156 8.41304C18.0052 8.92029 17.75 9.53623 17.75 10.2609V10.4348Z" fill="black"/>
<path d="M15.4313 15.4783L16.6781 17C16.8385 16.9275 17.0062 16.8732 17.1813 16.837C17.3563 16.8007 17.5458 16.7826 17.75 16.7826C18.4792 16.7826 19.099 17.0362 19.6094 17.5435C20.1198 18.0507 20.375 18.6667 20.375 19.3913C20.375 20.1159 20.1198 20.7319 19.6094 21.2391C19.099 21.7464 18.4792 22 17.75 22C17.0208 22 16.401 21.7464 15.8906 21.2391C15.3802 20.7319 15.125 20.1159 15.125 19.3913C15.125 19.1014 15.1724 18.8225 15.2672 18.5543C15.362 18.2862 15.4896 18.0435 15.65 17.8261L14.4031 16.2826L15.4313 15.4783Z" fill="black"/>
<path d="M11.5334 16.3478L11.3941 15.2348C11.3187 15.2058 11.2476 15.171 11.1808 15.1304C11.1141 15.0899 11.0488 15.0464 10.9849 15L9.94884 15.4348L8.99113 13.7826L9.8879 13.1043C9.88209 13.0638 9.87919 13.0246 9.87919 12.987V12.7522C9.87919 12.7145 9.88209 12.6754 9.8879 12.6348L8.99113 11.9565L9.94884 10.3043L10.9849 10.7391C11.0488 10.6928 11.1155 10.6493 11.1852 10.6087C11.2548 10.5681 11.3245 10.5333 11.3941 10.5043L11.5334 9.3913H13.4488L13.5881 10.5043C13.6636 10.5333 13.7347 10.5681 13.8015 10.6087C13.8682 10.6493 13.9335 10.6928 13.9974 10.7391L15.0334 10.3043L15.9911 11.9565L15.0944 12.6348C15.1002 12.6754 15.1031 12.7145 15.1031 12.7522V12.987C15.1031 13.0246 15.0973 13.0638 15.0857 13.1043L15.9824 13.7826L15.0247 15.4348L13.9974 15C13.9335 15.0464 13.8668 15.0899 13.7971 15.1304C13.7274 15.171 13.6578 15.2058 13.5881 15.2348L13.4488 16.3478H11.5334ZM12.5085 14.087C12.8452 14.087 13.1325 13.9681 13.3705 13.7304C13.6085 13.4928 13.7274 13.2058 13.7274 12.8696C13.7274 12.5333 13.6085 12.2464 13.3705 12.0087C13.1325 11.771 12.8452 11.6522 12.5085 11.6522C12.1661 11.6522 11.8773 11.771 11.6423 12.0087C11.4072 12.2464 11.2896 12.5333 11.2896 12.8696C11.2896 13.2058 11.4072 13.4928 11.6423 13.7304C11.8773 13.9681 12.1661 14.087 12.5085 14.087Z" fill="black"/>
</svg>
