<svg  viewBox="0 0 24 24" fill="none" xmlns="http://www.w3.org/2000/svg">
<path fill-rule="evenodd" clip-rule="evenodd" d="M6 2H18C19.105 2 20 2.895 20 4V20C20 21.105 19.105 22 18 22H6C4.895 22 4 21.105 4 20V4C4 2.895 4.895 2 6 2ZM9 4H6V10.5L7.5 9L9 10.5V4ZM13.0632 13.1016L13.4514 14.376H14.6746L12.7776 9H11.3896L9.5 14.376H10.7231L11.1113 13.1016H13.0632ZM12.4041 10.9043L12.7922 12.1494H11.397L11.7815 10.9043C11.7986 10.8481 11.8267 10.7542 11.8657 10.6223C11.9048 10.4905 11.9451 10.3513 11.9866 10.2048C12.0305 10.0559 12.0647 9.9314 12.0891 9.8313C12.1135 9.9314 12.1453 10.0498 12.1843 10.1865C12.2258 10.3208 12.2661 10.4539 12.3052 10.5857C12.3467 10.7151 12.3796 10.8213 12.4041 10.9043Z" fill="black"/>
</svg>
