<svg viewBox="0 0 24 24" fill="none" xmlns="http://www.w3.org/2000/svg">
<path d="M4 18V4.77778H7.77778V1H17.2222V8.55556H21V18H13.4444V14.2222H11.5556V18H4ZM5.88889 16.1111H7.77778V14.2222H5.88889V16.1111ZM5.88889 12.3333H7.77778V10.4444H5.88889V12.3333ZM5.88889 8.55556H7.77778V6.66667H5.88889V8.55556ZM9.66667 12.3333H11.5556V10.4444H9.66667V12.3333ZM9.66667 8.55556H11.5556V6.66667H9.66667V8.55556ZM9.66667 4.77778H11.5556V2.88889H9.66667V4.77778ZM13.4444 12.3333H15.3333V10.4444H13.4444V12.3333ZM13.4444 8.55556H15.3333V6.66667H13.4444V8.55556ZM13.4444 4.77778H15.3333V2.88889H13.4444V4.77778ZM17.2222 16.1111H19.1111V14.2222H17.2222V16.1111ZM17.2222 12.3333H19.1111V10.4444H17.2222V12.3333Z" fill="black"/>
<path d="M7.99951 23V19.0737H8.83203V22.3125H10.4246V23H7.99951Z" fill="black"/>
<path d="M13.3706 23H11.1094V19.0737H13.3706V19.7559H11.9419V20.6179H13.2712V21.3H11.9419V22.3125H13.3706V23Z" fill="black"/>
<path d="M15.8601 19.7102C15.7008 19.7102 15.5593 19.7415 15.4358 19.8042C15.314 19.8651 15.2111 19.9537 15.127 20.0701C15.0446 20.1864 14.9819 20.327 14.939 20.4917C14.896 20.6564 14.8745 20.8417 14.8745 21.0476C14.8745 21.3251 14.9085 21.5623 14.9766 21.7593C15.0464 21.9544 15.1538 22.1039 15.2988 22.2078C15.4438 22.3098 15.6309 22.3608 15.8601 22.3608C16.0194 22.3608 16.1788 22.3429 16.3381 22.3071C16.4993 22.2713 16.6738 22.2203 16.8618 22.1541V22.8523C16.6882 22.9239 16.5172 22.9749 16.3489 23.0054C16.1806 23.0376 15.9917 23.0537 15.7822 23.0537C15.3776 23.0537 15.0446 22.9705 14.7832 22.804C14.5236 22.6357 14.3311 22.4011 14.2058 22.1003C14.0805 21.7978 14.0178 21.4451 14.0178 21.0422C14.0178 20.745 14.0581 20.4729 14.1387 20.2258C14.2192 19.9788 14.3374 19.7648 14.4932 19.584C14.6489 19.4032 14.8414 19.2635 15.0706 19.165C15.2997 19.0666 15.5629 19.0173 15.8601 19.0173C16.0553 19.0173 16.2504 19.0424 16.4456 19.0925C16.6425 19.1409 16.8305 19.208 17.0095 19.2939L16.741 19.9707C16.5942 19.9009 16.4465 19.84 16.2979 19.7881C16.1493 19.7362 16.0033 19.7102 15.8601 19.7102Z" fill="black"/>
</svg>
