<svg viewBox="0 0 24 24" fill="none" xmlns="http://www.w3.org/2000/svg">
<path d="M2.625 17.175L1 16L6 8L9 11.5L13 5L15.725 9.075C15.3417 9.09167 14.9792 9.1375 14.6375 9.2125C14.2958 9.2875 13.9583 9.39167 13.625 9.525L13.075 8.7L9.275 14.875L6.25 11.35L2.625 17.175ZM21.575 22L18.45 18.875C18.1167 19.1083 17.7458 19.2833 17.3375 19.4C16.9292 19.5167 16.5083 19.575 16.075 19.575C14.825 19.575 13.7625 19.1375 12.8875 18.2625C12.0125 17.3875 11.575 16.325 11.575 15.075C11.575 13.825 12.0125 12.7625 12.8875 11.8875C13.7625 11.0125 14.825 10.575 16.075 10.575C17.325 10.575 18.3875 11.0125 19.2625 11.8875C20.1375 12.7625 20.575 13.825 20.575 15.075C20.575 15.5083 20.5167 15.9292 20.4 16.3375C20.2833 16.7458 20.1083 17.125 19.875 17.475L23 20.575L21.575 22ZM16.075 17.575C16.775 17.575 17.3667 17.3333 17.85 16.85C18.3333 16.3667 18.575 15.775 18.575 15.075C18.575 14.375 18.3333 13.7833 17.85 13.3C17.3667 12.8167 16.775 12.575 16.075 12.575C15.375 12.575 14.7833 12.8167 14.3 13.3C13.8167 13.7833 13.575 14.375 13.575 15.075C13.575 15.775 13.8167 16.3667 14.3 16.85C14.7833 17.3333 15.375 17.575 16.075 17.575ZM18.3 9.575C17.9833 9.44167 17.6542 9.33333 17.3125 9.25C16.9708 9.16667 16.6167 9.11667 16.25 9.1L21.375 1L23 2.175L18.3 9.575Z" fill="black"/>
</svg>
