<svg  viewBox="0 0 24 24" fill="none" xmlns="http://www.w3.org/2000/svg">
<path d="M2.87749 10.8287C2.4458 9.53368 3.40974 8.19629 4.77485 8.19629H19.2251C20.5903 8.19629 21.5542 9.53368 21.1225 10.8287L19.1225 16.8287C18.8503 17.6454 18.086 18.1963 17.2251 18.1963H6.77485C5.91399 18.1963 5.14971 17.6454 4.87749 16.8287L2.87749 10.8287Z" fill="black"/>
<path d="M10.5 18.1963H8H5.5C5.5 16.8156 6.61929 15.6963 8 15.6963C9.38071 15.6963 10.5 16.8156 10.5 18.1963Z" fill="white"/>
<path d="M18.5 18.1963C18.5 18.1963 17.3807 18.1963 16 18.1963C14.6193 18.1963 13.5 18.1963 13.5 18.1963C13.5 16.8156 14.6193 15.6963 16 15.6963C17.3807 15.6963 18.5 16.8156 18.5 18.1963Z" fill="white"/>
<circle cx="8" cy="18.1963" r="2" fill="black"/>
<path fill-rule="evenodd" clip-rule="evenodd" d="M12.1977 4.6548C13.1919 4.46827 13.9978 4.10835 14.8542 4.58215C15.7623 5.08453 15.5432 5.39377 16.3064 6.04342C17.0478 6.67458 18.8581 6.88009 19.3915 7.64299L12.2244 7.68729L9.27326 7.70553L4.63568 7.73411L4.84539 7.35735C5.21783 6.6023 6.82474 6.89949 7.46645 6.28512C8.07229 5.70509 8.65864 4.50178 9.52188 4.22769C10.4134 3.94463 11.2658 4.82964 12.1977 4.6548Z" fill="black"/>
<circle cx="16" cy="18.1963" r="2" fill="black"/>
</svg>
