<svg  viewBox="0 0 24 24" fill="none" xmlns="http://www.w3.org/2000/svg">
<path d="M2.8776 10.8288C2.44592 9.5337 3.40986 8.1963 4.77497 8.1963H19.2253C20.5904 8.1963 21.5543 9.5337 21.1226 10.8288L19.1226 16.8288C18.8504 17.6454 18.0861 18.1963 17.2253 18.1963H6.77497C5.91411 18.1963 5.14983 17.6454 4.8776 16.8288L2.8776 10.8288Z" fill="black"/>
<path d="M10.5001 18.1963H5.50012C5.50012 16.8156 6.61941 15.6963 8.00012 15.6963C9.38083 15.6963 10.5001 16.8156 10.5001 18.1963Z" fill="white"/>
<path d="M18.5001 18.1963C18.5001 18.1963 17.3808 18.1963 16.0001 18.1963C14.6194 18.1963 13.5001 18.1963 13.5001 18.1963C13.5001 16.8156 14.6194 15.6963 16.0001 15.6963C17.3808 15.6963 18.5001 16.8156 18.5001 18.1963Z" fill="white"/>
<path d="M10.0001 18.1963C10.0001 19.3009 9.10469 20.1963 8.00012 20.1963C6.89555 20.1963 6.00012 19.3009 6.00012 18.1963C6.00012 17.0917 6.89555 16.1963 8.00012 16.1963C9.10469 16.1963 10.0001 17.0917 10.0001 18.1963Z" fill="black"/>
<path fill-rule="evenodd" clip-rule="evenodd" d="M12.1978 4.65482C13.192 4.46828 13.9979 4.10836 14.8543 4.58216C15.7624 5.08454 15.5434 5.39378 16.3065 6.04344C17.0479 6.67459 18.8582 6.88011 19.3916 7.64301L4.6358 7.73413L4.84551 7.35736C5.21795 6.60231 6.82486 6.8995 7.46657 6.28513C8.07241 5.70511 8.65876 4.50179 9.522 4.2277C10.4135 3.94465 11.2659 4.82966 12.1978 4.65482Z" fill="black"/>
<path d="M18.0001 18.1963C18.0001 19.3009 17.1047 20.1963 16.0001 20.1963C14.8955 20.1963 14.0001 19.3009 14.0001 18.1963C14.0001 17.0917 14.8955 16.1963 16.0001 16.1963C17.1047 16.1963 18.0001 17.0917 18.0001 18.1963Z" fill="black"/>
<path d="M12.1022 14L11.2428 11.1997H11.2208C11.2241 11.2665 11.229 11.3674 11.2355 11.5025C11.2436 11.6359 11.2509 11.7783 11.2574 11.9297C11.264 12.0811 11.2672 12.2178 11.2672 12.3399V14H10.5909V10.4307H11.6212L12.4659 13.1602H12.4806L13.3766 10.4307H14.4069V14H13.7013V12.3106C13.7013 12.1983 13.7029 12.0689 13.7062 11.9224C13.7111 11.7759 13.7168 11.6367 13.7233 11.5049C13.7298 11.3714 13.7347 11.2713 13.7379 11.2046H13.7159L12.7955 14H12.1022Z" fill="white"/>
</svg>
