<svg viewBox="0 0 24 24" fill="none" xmlns="http://www.w3.org/2000/svg">
<path d="M4 18V4.77778H7.77778V1H17.2222V8.55556H21V18H13.4444V14.2222H11.5556V18H4ZM5.88889 16.1111H7.77778V14.2222H5.88889V16.1111ZM5.88889 12.3333H7.77778V10.4444H5.88889V12.3333ZM5.88889 8.55556H7.77778V6.66667H5.88889V8.55556ZM9.66667 12.3333H11.5556V10.4444H9.66667V12.3333ZM9.66667 8.55556H11.5556V6.66667H9.66667V8.55556ZM9.66667 4.77778H11.5556V2.88889H9.66667V4.77778ZM13.4444 12.3333H15.3333V10.4444H13.4444V12.3333ZM13.4444 8.55556H15.3333V6.66667H13.4444V8.55556ZM13.4444 4.77778H15.3333V2.88889H13.4444V4.77778ZM17.2222 16.1111H19.1111V14.2222H17.2222V16.1111ZM17.2222 12.3333H19.1111V10.4444H17.2222V12.3333Z" fill="black"/>
<path d="M8.66138 23L7.71606 19.9197H7.69189C7.69548 19.9931 7.70085 20.1041 7.70801 20.2527C7.71696 20.3995 7.72502 20.5562 7.73218 20.7227C7.73934 20.8892 7.74292 21.0396 7.74292 21.1738V23H6.99902V19.0737H8.13232L9.06152 22.0762H9.07764L10.0632 19.0737H11.1965V23H10.4204V21.1416C10.4204 21.0181 10.4222 20.8757 10.4258 20.7146C10.4312 20.5535 10.4374 20.4004 10.4446 20.2554C10.4517 20.1086 10.4571 19.9985 10.4607 19.925H10.4365L9.42407 23H8.66138Z" fill="black"/>
<path d="M13.7021 23H12.8696V19.7666H11.8035V19.0737H14.7683V19.7666H13.7021V23Z" fill="black"/>
<path d="M17.0403 19.7102C16.8809 19.7102 16.7395 19.7415 16.616 19.8042C16.4942 19.8651 16.3913 19.9537 16.3071 20.0701C16.2248 20.1864 16.1621 20.327 16.1191 20.4917C16.0762 20.6564 16.0547 20.8417 16.0547 21.0476C16.0547 21.3251 16.0887 21.5623 16.1567 21.7593C16.2266 21.9544 16.334 22.1039 16.479 22.2078C16.624 22.3098 16.8111 22.3608 17.0403 22.3608C17.1996 22.3608 17.359 22.3429 17.5183 22.3071C17.6794 22.2713 17.854 22.2203 18.042 22.1541V22.8523C17.8683 22.9239 17.6973 22.9749 17.5291 23.0054C17.3608 23.0376 17.1719 23.0537 16.9624 23.0537C16.5578 23.0537 16.2248 22.9705 15.9634 22.804C15.7038 22.6357 15.5113 22.4011 15.386 22.1003C15.2607 21.7978 15.198 21.4451 15.198 21.0422C15.198 20.745 15.2383 20.4729 15.3188 20.2258C15.3994 19.9788 15.5176 19.7648 15.6733 19.584C15.8291 19.4032 16.0216 19.2635 16.2507 19.165C16.4799 19.0666 16.7431 19.0173 17.0403 19.0173C17.2354 19.0173 17.4306 19.0424 17.6257 19.0925C17.8227 19.1409 18.0107 19.208 18.1897 19.2939L17.9211 19.9707C17.7743 19.9009 17.6266 19.84 17.478 19.7881C17.3294 19.7362 17.1835 19.7102 17.0403 19.7102Z" fill="black"/>
</svg>
