<svg viewBox="0 0 24 24" fill="none" xmlns="http://www.w3.org/2000/svg">
<path d="M4 18V4.77778H7.77778V1H17.2222V8.55556H21V18H13.4444V14.2222H11.5556V18H4ZM5.88889 16.1111H7.77778V14.2222H5.88889V16.1111ZM5.88889 12.3333H7.77778V10.4444H5.88889V12.3333ZM5.88889 8.55556H7.77778V6.66667H5.88889V8.55556ZM9.66667 12.3333H11.5556V10.4444H9.66667V12.3333ZM9.66667 8.55556H11.5556V6.66667H9.66667V8.55556ZM9.66667 4.77778H11.5556V2.88889H9.66667V4.77778ZM13.4444 12.3333H15.3333V10.4444H13.4444V12.3333ZM13.4444 8.55556H15.3333V6.66667H13.4444V8.55556ZM13.4444 4.77778H15.3333V2.88889H13.4444V4.77778ZM17.2222 16.1111H19.1111V14.2222H17.2222V16.1111ZM17.2222 12.3333H19.1111V10.4444H17.2222V12.3333Z" fill="black"/>
<path d="M10.4836 23H9.42554L7.71753 20.0298H7.69336C7.70052 20.1533 7.70679 20.2778 7.71216 20.4031C7.71753 20.5284 7.7229 20.6537 7.72827 20.7791C7.73364 20.9026 7.73901 21.027 7.74438 21.1523V23H7.00049V19.0737H8.05054L9.75586 22.0144H9.77466C9.77108 21.8927 9.7666 21.7718 9.76123 21.6519C9.75586 21.5319 9.75049 21.4119 9.74512 21.292C9.74154 21.172 9.73796 21.0521 9.73438 20.9321V19.0737H10.4836V23Z" fill="black"/>
<path d="M15.0383 21.0315C15.0383 21.3341 15.0007 21.6098 14.9255 21.8586C14.8503 22.1057 14.7358 22.3188 14.5818 22.4978C14.4296 22.6768 14.2362 22.8147 14.0017 22.9114C13.7672 23.0063 13.4897 23.0537 13.1692 23.0537C12.8487 23.0537 12.5712 23.0063 12.3367 22.9114C12.1021 22.8147 11.9079 22.6768 11.7539 22.4978C11.6017 22.3188 11.488 22.1048 11.4128 21.856C11.3376 21.6071 11.3 21.3305 11.3 21.0261C11.3 20.6197 11.3663 20.2661 11.4988 19.9653C11.6331 19.6628 11.8389 19.4282 12.1165 19.2617C12.394 19.0952 12.7467 19.012 13.1746 19.012C13.6007 19.012 13.9507 19.0952 14.2246 19.2617C14.5003 19.4282 14.7044 19.6628 14.8369 19.9653C14.9712 20.2679 15.0383 20.6233 15.0383 21.0315ZM12.1729 21.0315C12.1729 21.3054 12.2069 21.5417 12.2749 21.7405C12.3447 21.9374 12.453 22.0896 12.5999 22.197C12.7467 22.3027 12.9364 22.3555 13.1692 22.3555C13.4055 22.3555 13.5971 22.3027 13.7439 22.197C13.8907 22.0896 13.9972 21.9374 14.0635 21.7405C14.1315 21.5417 14.1655 21.3054 14.1655 21.0315C14.1655 20.6197 14.0885 20.2957 13.9346 20.0593C13.7806 19.823 13.5273 19.7048 13.1746 19.7048C12.94 19.7048 12.7485 19.7585 12.5999 19.866C12.453 19.9716 12.3447 20.1238 12.2749 20.3225C12.2069 20.5194 12.1729 20.7558 12.1729 21.0315Z" fill="black"/>
<path d="M18.9324 19.0737L17.5977 23H16.6899L15.3579 19.0737H16.1985L16.937 21.4102C16.9495 21.4495 16.9701 21.5238 16.9988 21.6331C17.0274 21.7405 17.0561 21.8551 17.0847 21.9768C17.1152 22.0968 17.1357 22.1961 17.1465 22.2749C17.1572 22.1961 17.176 22.0968 17.2029 21.9768C17.2315 21.8569 17.2593 21.7432 17.2861 21.6357C17.3148 21.5265 17.3354 21.4513 17.3479 21.4102L18.0918 19.0737H18.9324Z" fill="black"/>
</svg>
