<svg viewBox="0 0 24 24" fill="none" xmlns="http://www.w3.org/2000/svg">
<path d="M4 18V4.77778H7.77778V1H17.2222V8.55556H21V18H13.4444V14.2222H11.5556V18H4ZM5.88889 16.1111H7.77778V14.2222H5.88889V16.1111ZM5.88889 12.3333H7.77778V10.4444H5.88889V12.3333ZM5.88889 8.55556H7.77778V6.66667H5.88889V8.55556ZM9.66667 12.3333H11.5556V10.4444H9.66667V12.3333ZM9.66667 8.55556H11.5556V6.66667H9.66667V8.55556ZM9.66667 4.77778H11.5556V2.88889H9.66667V4.77778ZM13.4444 12.3333H15.3333V10.4444H13.4444V12.3333ZM13.4444 8.55556H15.3333V6.66667H13.4444V8.55556ZM13.4444 4.77778H15.3333V2.88889H13.4444V4.77778ZM17.2222 16.1111H19.1111V14.2222H17.2222V16.1111ZM17.2222 12.3333H19.1111V10.4444H17.2222V12.3333Z" fill="black"/>
<path d="M11.739 21.0315C11.739 21.3341 11.7014 21.6098 11.6262 21.8586C11.551 22.1057 11.4364 22.3188 11.2825 22.4978C11.1303 22.6768 10.9369 22.8147 10.7024 22.9114C10.4679 23.0063 10.1903 23.0537 9.86987 23.0537C9.5494 23.0537 9.27189 23.0063 9.03735 22.9114C8.80282 22.8147 8.60856 22.6768 8.45459 22.4978C8.30241 22.3188 8.18872 22.1048 8.11353 21.856C8.03833 21.6071 8.00073 21.3305 8.00073 21.0261C8.00073 20.6197 8.06698 20.2661 8.19946 19.9653C8.33374 19.6628 8.53963 19.4282 8.81714 19.2617C9.09465 19.0952 9.44735 19.012 9.87524 19.012C10.3014 19.012 10.6514 19.0952 10.9253 19.2617C11.201 19.4282 11.4051 19.6628 11.5376 19.9653C11.6719 20.2679 11.739 20.6233 11.739 21.0315ZM8.87354 21.0315C8.87354 21.3054 8.90755 21.5417 8.97559 21.7405C9.04541 21.9374 9.15373 22.0896 9.30054 22.197C9.44735 22.3027 9.63713 22.3555 9.86987 22.3555C10.1062 22.3555 10.2978 22.3027 10.4446 22.197C10.5914 22.0896 10.6979 21.9374 10.7642 21.7405C10.8322 21.5417 10.8662 21.3054 10.8662 21.0315C10.8662 20.6197 10.7892 20.2957 10.6353 20.0593C10.4813 19.823 10.2279 19.7048 9.87524 19.7048C9.64071 19.7048 9.44914 19.7585 9.30054 19.866C9.15373 19.9716 9.04541 20.1238 8.97559 20.3225C8.90755 20.5194 8.87354 20.7558 8.87354 21.0315Z" fill="black"/>
<path d="M14.8704 21.9097C14.8704 22.1424 14.814 22.3447 14.7012 22.5166C14.5884 22.6885 14.4237 22.821 14.207 22.9141C13.9922 23.0072 13.7308 23.0537 13.4229 23.0537C13.2868 23.0537 13.1534 23.0448 13.0227 23.0269C12.8938 23.009 12.7694 22.983 12.6494 22.949C12.5312 22.9132 12.4185 22.8693 12.311 22.8174V22.0439C12.4972 22.1263 12.6906 22.2006 12.8911 22.2668C13.0916 22.3331 13.2904 22.3662 13.4873 22.3662C13.6234 22.3662 13.7326 22.3483 13.8149 22.3125C13.8991 22.2767 13.96 22.2275 13.9976 22.1648C14.0352 22.1021 14.054 22.0305 14.054 21.95C14.054 21.8515 14.0208 21.7673 13.9546 21.6975C13.8883 21.6277 13.797 21.5623 13.6807 21.5015C13.5661 21.4406 13.4363 21.3752 13.2913 21.3054C13.2 21.2625 13.1006 21.2105 12.9932 21.1497C12.8857 21.087 12.7837 21.0109 12.687 20.9214C12.5903 20.8319 12.5107 20.7236 12.448 20.5964C12.3871 20.4675 12.3567 20.3136 12.3567 20.1345C12.3567 19.9 12.4104 19.6995 12.5178 19.533C12.6252 19.3665 12.7783 19.2393 12.9771 19.1516C13.1776 19.0621 13.4139 19.0173 13.686 19.0173C13.8901 19.0173 14.0844 19.0415 14.2688 19.0898C14.455 19.1364 14.6493 19.2044 14.8516 19.2939L14.583 19.9412C14.4022 19.8678 14.2402 19.8114 14.0969 19.772C13.9537 19.7308 13.8078 19.7102 13.6592 19.7102C13.5553 19.7102 13.4667 19.7272 13.3933 19.7612C13.3199 19.7935 13.2644 19.84 13.2268 19.9009C13.1892 19.96 13.1704 20.0289 13.1704 20.1077C13.1704 20.2008 13.1973 20.2795 13.251 20.344C13.3065 20.4067 13.3888 20.4675 13.498 20.5266C13.609 20.5857 13.7469 20.6546 13.9116 20.7334C14.1121 20.8283 14.2831 20.9277 14.4246 21.0315C14.5678 21.1335 14.6779 21.2544 14.7549 21.394C14.8319 21.5319 14.8704 21.7038 14.8704 21.9097Z" fill="black"/>
<path d="M15.582 23V19.0737H16.4146V23H15.582Z" fill="black"/>
</svg>
