<svg viewBox="0 0 24 24" fill="none" xmlns="http://www.w3.org/2000/svg">
<path d="M8.28266 22L7.88361 18.8C7.66746 18.7167 7.46378 18.6167 7.27257 18.5C7.08135 18.3833 6.8943 18.2583 6.7114 18.125L3.74347 19.375L1 14.625L3.56888 12.675C3.55226 12.5583 3.54394 12.4458 3.54394 12.3375V11.6625C3.54394 11.5542 3.55226 11.4417 3.56888 11.325L1 9.375L3.74347 4.625L6.7114 5.875C6.8943 5.74167 7.08551 5.61667 7.28504 5.5C7.48456 5.38333 7.68409 5.28333 7.88361 5.2L8.28266 2H13.7696L14.1686 5.2C14.3848 5.28333 14.5885 5.38333 14.7797 5.5C14.9709 5.61667 15.158 5.74167 15.3409 5.875L18.3088 4.625L21.0523 9.375L18.4834 11.325C18.5 11.4417 18.5083 11.5542 18.5083 11.6625V12H14.5926C14.5926 11.0333 14.2476 10.2083 13.5576 9.525C12.8676 8.84167 12.0404 8.5 11.076 8.5C10.095 8.5 9.26781 8.8375 8.59442 9.5125C7.92102 10.1875 7.58432 11.0167 7.58432 12C7.58432 12.8 7.81295 13.5 8.27019 14.1C8.72743 14.7 9.31354 15.1167 10.0285 15.35V22H8.28266Z" fill="black"/>
<path d="M14.4022 22C14.182 22 13.9935 21.9217 13.8367 21.765C13.6799 21.6083 13.6015 21.42 13.6015 21.2C13.6015 20.98 13.6799 20.7917 13.8367 20.635C13.9935 20.4783 14.182 20.4 14.4022 20.4C14.6224 20.4 14.8109 20.4783 14.9677 20.635C15.1246 20.7917 15.203 20.98 15.203 21.2C15.203 21.42 15.1246 21.6083 14.9677 21.765C14.8109 21.9217 14.6224 22 14.4022 22ZM18.4059 22C18.1857 22 17.9972 21.9217 17.8404 21.765C17.6836 21.6083 17.6052 21.42 17.6052 21.2C17.6052 20.98 17.6836 20.7917 17.8404 20.635C17.9972 20.4783 18.1857 20.4 18.4059 20.4C18.6261 20.4 18.8146 20.4783 18.9714 20.635C19.1283 20.7917 19.2067 20.98 19.2067 21.2C19.2067 21.42 19.1283 21.6083 18.9714 21.765C18.8146 21.9217 18.6261 22 18.4059 22ZM13.6816 14.8H19.587C19.7405 14.8 19.8573 14.8683 19.9373 15.005C20.0174 15.1417 20.0207 15.28 19.9473 15.42L18.526 17.98C18.4526 18.1133 18.3542 18.2167 18.2308 18.29C18.1073 18.3633 17.9722 18.4 17.8254 18.4H14.8426L14.4022 19.2H19.2067V20H14.4022C14.1019 20 13.8751 19.8683 13.7216 19.605C13.5681 19.3417 13.5614 19.08 13.7016 18.82L14.2421 17.84L12.8007 14.8H12V14H13.3012L13.6816 14.8Z" fill="black"/>
</svg>
