<svg viewBox="0 0 24 24" fill="none" xmlns="http://www.w3.org/2000/svg">
<path d="M4 18V4.77778H7.77778V1H17.2222V8.55556H21V18H13.4444V14.2222H11.5556V18H4ZM5.88889 16.1111H7.77778V14.2222H5.88889V16.1111ZM5.88889 12.3333H7.77778V10.4444H5.88889V12.3333ZM5.88889 8.55556H7.77778V6.66667H5.88889V8.55556ZM9.66667 12.3333H11.5556V10.4444H9.66667V12.3333ZM9.66667 8.55556H11.5556V6.66667H9.66667V8.55556ZM9.66667 4.77778H11.5556V2.88889H9.66667V4.77778ZM13.4444 12.3333H15.3333V10.4444H13.4444V12.3333ZM13.4444 8.55556H15.3333V6.66667H13.4444V8.55556ZM13.4444 4.77778H15.3333V2.88889H13.4444V4.77778ZM17.2222 16.1111H19.1111V14.2222H17.2222V16.1111ZM17.2222 12.3333H19.1111V10.4444H17.2222V12.3333Z" fill="black"/>
<path d="M9.14404 19.0737C9.50033 19.0737 9.79395 19.1167 10.0249 19.2026C10.2576 19.2886 10.4304 19.4184 10.5432 19.592C10.656 19.7657 10.7124 19.985 10.7124 20.25C10.7124 20.429 10.6784 20.5857 10.6104 20.72C10.5423 20.8542 10.4528 20.9679 10.3418 21.061C10.2308 21.1541 10.1108 21.2302 9.98193 21.2893L11.1367 23H10.2129L9.27563 21.4934H8.83252V23H8V19.0737H9.14404ZM9.08496 19.7559H8.83252V20.8167H9.10107C9.37679 20.8167 9.57373 20.771 9.69189 20.6797C9.81185 20.5866 9.87183 20.4505 9.87183 20.2715C9.87183 20.0853 9.80737 19.9528 9.67847 19.874C9.55135 19.7952 9.35352 19.7559 9.08496 19.7559Z" fill="black"/>
<path d="M13.8921 23H11.6309V19.0737H13.8921V19.7559H12.4634V20.6179H13.7927V21.3H12.4634V22.3125H13.8921V23Z" fill="black"/>
<path d="M16.2043 20.7952H17.762V22.8308C17.5561 22.8988 17.3421 22.9535 17.1201 22.9946C16.8981 23.034 16.6466 23.0537 16.3655 23.0537C15.9752 23.0537 15.644 22.9767 15.3718 22.8228C15.0997 22.6688 14.8929 22.4414 14.7515 22.1406C14.61 21.8398 14.5393 21.4701 14.5393 21.0315C14.5393 20.6197 14.6181 20.2634 14.7756 19.9626C14.935 19.6619 15.1668 19.4291 15.4712 19.2644C15.7773 19.0997 16.1506 19.0173 16.5911 19.0173C16.7987 19.0173 17.0037 19.0397 17.2061 19.0845C17.4084 19.1292 17.5919 19.1874 17.7566 19.259L17.48 19.925C17.36 19.8642 17.2231 19.8132 17.0691 19.772C16.9151 19.7308 16.754 19.7102 16.5857 19.7102C16.344 19.7102 16.1336 19.7657 15.9546 19.8767C15.7773 19.9877 15.6395 20.1435 15.541 20.344C15.4443 20.5427 15.396 20.7773 15.396 21.0476C15.396 21.3036 15.4309 21.531 15.5007 21.7297C15.5706 21.9267 15.6807 22.0815 15.8311 22.1943C15.9814 22.3053 16.1775 22.3608 16.4192 22.3608C16.5374 22.3608 16.6367 22.3555 16.7173 22.3447C16.7996 22.3322 16.8766 22.3197 16.9482 22.3071V21.488H16.2043V20.7952Z" fill="black"/>
</svg>
