<svg viewBox="0 0 24 24" fill="none" xmlns="http://www.w3.org/2000/svg">
<path d="M19.0476 21.9762C18.9206 21.9762 18.8016 21.9563 18.6905 21.9167C18.5794 21.877 18.4762 21.8095 18.381 21.7143L13.5238 16.8571C13.4286 16.7619 13.3611 16.6587 13.3214 16.5476C13.2817 16.4365 13.2619 16.3175 13.2619 16.1905C13.2619 16.0635 13.2817 15.9444 13.3214 15.8333C13.3611 15.7222 13.4286 15.619 13.5238 15.5238L15.5476 13.5C15.6429 13.4048 15.746 13.3373 15.8571 13.2976C15.9683 13.2579 16.0873 13.2381 16.2143 13.2381C16.3413 13.2381 16.4603 13.2579 16.5714 13.2976C16.6825 13.3373 16.7857 13.4048 16.881 13.5L21.7381 18.3571C21.8333 18.4524 21.9008 18.5556 21.9405 18.6667C21.9802 18.7778 22 18.8968 22 19.0238C22 19.1508 21.9802 19.2698 21.9405 19.381C21.9008 19.4921 21.8333 19.5952 21.7381 19.6905L19.7143 21.7143C19.619 21.8095 19.5159 21.877 19.4048 21.9167C19.2937 21.9563 19.1746 21.9762 19.0476 21.9762ZM5.97619 22C5.84921 22 5.72619 21.9762 5.60714 21.9286C5.4881 21.881 5.38095 21.8095 5.28571 21.7143L3.28571 19.7143C3.19048 19.619 3.11905 19.5119 3.07143 19.3929C3.02381 19.2738 3 19.1508 3 19.0238C3 18.8968 3.02381 18.7778 3.07143 18.6667C3.11905 18.5556 3.19048 18.4524 3.28571 18.3571L8.33333 13.3095H10.3571L11.1667 12.5L7.2381 8.57143H5.88095L3 5.69048L5.69048 3L8.57143 5.88095V7.2381L12.5 11.1667L15.2619 8.40476L14.2381 7.38095L15.5714 6.04762H12.881L12.2143 5.38095L15.5952 2L16.2619 2.66667V5.35714L17.5952 4.02381L20.9762 7.40476C21.246 7.6746 21.4524 7.98016 21.5952 8.32143C21.7381 8.6627 21.8095 9.02381 21.8095 9.40476C21.8095 9.78571 21.7381 10.1508 21.5952 10.5C21.4524 10.8492 21.246 11.1587 20.9762 11.4286L18.9524 9.40476L17.619 10.7381L16.619 9.7381L11.6905 14.6667V16.6667L6.64286 21.7143C6.54762 21.8095 6.44444 21.881 6.33333 21.9286C6.22222 21.9762 6.10317 22 5.97619 22Z" fill="black"/>
</svg>
