<svg viewBox="0 0 24 24" fill="none" xmlns="http://www.w3.org/2000/svg">
<path d="M4 18V4.77778H7.77778V1H17.2222V8.55556H21V18H13.4444V14.2222H11.5556V18H4ZM5.88889 16.1111H7.77778V14.2222H5.88889V16.1111ZM5.88889 12.3333H7.77778V10.4444H5.88889V12.3333ZM5.88889 8.55556H7.77778V6.66667H5.88889V8.55556ZM9.66667 12.3333H11.5556V10.4444H9.66667V12.3333ZM9.66667 8.55556H11.5556V6.66667H9.66667V8.55556ZM9.66667 4.77778H11.5556V2.88889H9.66667V4.77778ZM13.4444 12.3333H15.3333V10.4444H13.4444V12.3333ZM13.4444 8.55556H15.3333V6.66667H13.4444V8.55556ZM13.4444 4.77778H15.3333V2.88889H13.4444V4.77778ZM17.2222 16.1111H19.1111V14.2222H17.2222V16.1111ZM17.2222 12.3333H19.1111V10.4444H17.2222V12.3333Z" fill="black"/>
<path d="M7.14331 19.0737C7.49959 19.0737 7.79321 19.1167 8.02417 19.2026C8.25692 19.2886 8.42969 19.4184 8.54248 19.592C8.65527 19.7657 8.71167 19.985 8.71167 20.25C8.71167 20.429 8.67765 20.5857 8.60962 20.72C8.54159 20.8542 8.45207 20.9679 8.34106 21.061C8.23006 21.1541 8.11011 21.2302 7.9812 21.2893L9.13599 23H8.21216L7.2749 21.4934H6.83179V23H5.99927V19.0737H7.14331ZM7.08423 19.7559H6.83179V20.8167H7.10034C7.37606 20.8167 7.573 20.771 7.69116 20.6797C7.81112 20.5866 7.87109 20.4505 7.87109 20.2715C7.87109 20.0853 7.80664 19.9528 7.67773 19.874C7.55062 19.7952 7.35278 19.7559 7.08423 19.7559Z" fill="black"/>
<path d="M13.1938 21.0315C13.1938 21.3341 13.1562 21.6098 13.0811 21.8586C13.0059 22.1057 12.8913 22.3188 12.7373 22.4978C12.5851 22.6768 12.3918 22.8147 12.1572 22.9114C11.9227 23.0063 11.6452 23.0537 11.3247 23.0537C11.0042 23.0537 10.7267 23.0063 10.4922 22.9114C10.2576 22.8147 10.0634 22.6768 9.90942 22.4978C9.75724 22.3188 9.64355 22.1048 9.56836 21.856C9.49316 21.6071 9.45557 21.3305 9.45557 21.0261C9.45557 20.6197 9.52181 20.2661 9.6543 19.9653C9.78857 19.6628 9.99447 19.4282 10.272 19.2617C10.5495 19.0952 10.9022 19.012 11.3301 19.012C11.7562 19.012 12.1062 19.0952 12.3801 19.2617C12.6558 19.4282 12.8599 19.6628 12.9924 19.9653C13.1267 20.2679 13.1938 20.6233 13.1938 21.0315ZM10.3284 21.0315C10.3284 21.3054 10.3624 21.5417 10.4304 21.7405C10.5002 21.9374 10.6086 22.0896 10.7554 22.197C10.9022 22.3027 11.092 22.3555 11.3247 22.3555C11.561 22.3555 11.7526 22.3027 11.8994 22.197C12.0462 22.0896 12.1528 21.9374 12.219 21.7405C12.287 21.5417 12.321 21.3054 12.321 21.0315C12.321 20.6197 12.2441 20.2957 12.0901 20.0593C11.9361 19.823 11.6828 19.7048 11.3301 19.7048C11.0955 19.7048 10.904 19.7585 10.7554 19.866C10.6086 19.9716 10.5002 20.1238 10.4304 20.3225C10.3624 20.5194 10.3284 20.7558 10.3284 21.0315Z" fill="black"/>
<path d="M15.6699 23L14.7246 19.9197H14.7004C14.704 19.9931 14.7094 20.1041 14.7166 20.2527C14.7255 20.3995 14.7336 20.5562 14.7407 20.7227C14.7479 20.8892 14.7515 21.0396 14.7515 21.1738V23H14.0076V19.0737H15.1409L16.0701 22.0762H16.0862L17.0718 19.0737H18.2051V23H17.429V21.1416C17.429 21.0181 17.4307 20.8757 17.4343 20.7146C17.4397 20.5535 17.446 20.4004 17.4531 20.2554C17.4603 20.1086 17.4657 19.9985 17.4692 19.925H17.4451L16.4326 23H15.6699Z" fill="black"/>
</svg>
