<svg viewBox="0 0 24 24" fill="none" xmlns="http://www.w3.org/2000/svg">
<path d="M4 18V4.77778H7.77778V1H17.2222V8.55556H21V18H13.4444V14.2222H11.5556V18H4ZM5.88889 16.1111H7.77778V14.2222H5.88889V16.1111ZM5.88889 12.3333H7.77778V10.4444H5.88889V12.3333ZM5.88889 8.55556H7.77778V6.66667H5.88889V8.55556ZM9.66667 12.3333H11.5556V10.4444H9.66667V12.3333ZM9.66667 8.55556H11.5556V6.66667H9.66667V8.55556ZM9.66667 4.77778H11.5556V2.88889H9.66667V4.77778ZM13.4444 12.3333H15.3333V10.4444H13.4444V12.3333ZM13.4444 8.55556H15.3333V6.66667H13.4444V8.55556ZM13.4444 4.77778H15.3333V2.88889H13.4444V4.77778ZM17.2222 16.1111H19.1111V14.2222H17.2222V16.1111ZM17.2222 12.3333H19.1111V10.4444H17.2222V12.3333Z" fill="black"/>
<path d="M10.5583 21.9097C10.5583 22.1424 10.502 22.3447 10.3892 22.5166C10.2764 22.6885 10.1117 22.821 9.89502 22.9141C9.68018 23.0072 9.41878 23.0537 9.11084 23.0537C8.97477 23.0537 8.84139 23.0448 8.71069 23.0269C8.58179 23.009 8.45736 22.983 8.3374 22.949C8.21924 22.9132 8.10645 22.8693 7.99902 22.8174V22.0439C8.18522 22.1263 8.37858 22.2006 8.5791 22.2668C8.77962 22.3331 8.97835 22.3662 9.17529 22.3662C9.31136 22.3662 9.42057 22.3483 9.50293 22.3125C9.58708 22.2767 9.64795 22.2275 9.68555 22.1648C9.72314 22.1021 9.74194 22.0305 9.74194 21.95C9.74194 21.8515 9.70882 21.7673 9.64258 21.6975C9.57633 21.6277 9.48503 21.5623 9.36865 21.5015C9.25407 21.4406 9.12427 21.3752 8.97925 21.3054C8.88794 21.2625 8.78857 21.2105 8.68115 21.1497C8.57373 21.087 8.47168 21.0109 8.375 20.9214C8.27832 20.8319 8.19865 20.7236 8.13599 20.5964C8.07511 20.4675 8.04468 20.3136 8.04468 20.1345C8.04468 19.9 8.09839 19.6995 8.20581 19.533C8.31323 19.3665 8.46631 19.2393 8.66504 19.1516C8.86556 19.0621 9.10189 19.0173 9.37402 19.0173C9.57812 19.0173 9.77238 19.0415 9.95679 19.0898C10.143 19.1364 10.3372 19.2044 10.5396 19.2939L10.271 19.9412C10.0902 19.8678 9.92814 19.8114 9.78491 19.772C9.64168 19.7308 9.49577 19.7102 9.34717 19.7102C9.24333 19.7102 9.1547 19.7272 9.0813 19.7612C9.00789 19.7935 8.95239 19.84 8.91479 19.9009C8.8772 19.96 8.8584 20.0289 8.8584 20.1077C8.8584 20.2008 8.88525 20.2795 8.93896 20.344C8.99447 20.4067 9.07682 20.4675 9.18604 20.5266C9.29704 20.5857 9.4349 20.6546 9.59961 20.7334C9.80013 20.8283 9.97111 20.9277 10.1125 21.0315C10.2558 21.1335 10.3659 21.2544 10.4429 21.394C10.5199 21.5319 10.5583 21.7038 10.5583 21.9097Z" fill="black"/>
<path d="M13.6736 23L13.3889 22.0654H11.9575L11.6729 23H10.7759L12.1616 19.0576H13.1794L14.5706 23H13.6736ZM13.1902 21.3672L12.9055 20.4541C12.8876 20.3932 12.8634 20.3153 12.833 20.2205C12.8044 20.1238 12.7748 20.0262 12.7444 19.9277C12.7157 19.8275 12.6925 19.7406 12.6746 19.6672C12.6567 19.7406 12.6316 19.8319 12.5994 19.9412C12.5689 20.0486 12.5394 20.1506 12.5107 20.2473C12.4821 20.344 12.4615 20.4129 12.449 20.4541L12.167 21.3672H13.1902Z" fill="black"/>
<path d="M15.0674 23V19.0737H15.8999V22.3125H17.4924V23H15.0674Z" fill="black"/>
</svg>
