<svg viewBox="0 0 24 24" fill="none" xmlns="http://www.w3.org/2000/svg">
<path d="M4 18V4.77778H7.77778V1H17.2222V8.55556H21V18H13.4444V14.2222H11.5556V18H4ZM5.88889 16.1111H7.77778V14.2222H5.88889V16.1111ZM5.88889 12.3333H7.77778V10.4444H5.88889V12.3333ZM5.88889 8.55556H7.77778V6.66667H5.88889V8.55556ZM9.66667 12.3333H11.5556V10.4444H9.66667V12.3333ZM9.66667 8.55556H11.5556V6.66667H9.66667V8.55556ZM9.66667 4.77778H11.5556V2.88889H9.66667V4.77778ZM13.4444 12.3333H15.3333V10.4444H13.4444V12.3333ZM13.4444 8.55556H15.3333V6.66667H13.4444V8.55556ZM13.4444 4.77778H15.3333V2.88889H13.4444V4.77778ZM17.2222 16.1111H19.1111V14.2222H17.2222V16.1111ZM17.2222 12.3333H19.1111V10.4444H17.2222V12.3333Z" fill="black"/>
<path d="M9.55908 21.9097C9.55908 22.1424 9.50269 22.3447 9.38989 22.5166C9.2771 22.6885 9.11239 22.821 8.89575 22.9141C8.68091 23.0072 8.41951 23.0537 8.11157 23.0537C7.9755 23.0537 7.84212 23.0448 7.71143 23.0269C7.58252 23.009 7.45809 22.983 7.33813 22.949C7.21997 22.9132 7.10718 22.8693 6.99976 22.8174V22.0439C7.18595 22.1263 7.37931 22.2006 7.57983 22.2668C7.78035 22.3331 7.97909 22.3662 8.17603 22.3662C8.31209 22.3662 8.42131 22.3483 8.50366 22.3125C8.58781 22.2767 8.64868 22.2275 8.68628 22.1648C8.72388 22.1021 8.74268 22.0305 8.74268 21.95C8.74268 21.8515 8.70955 21.7673 8.64331 21.6975C8.57707 21.6277 8.48576 21.5623 8.36938 21.5015C8.2548 21.4406 8.125 21.3752 7.97998 21.3054C7.88867 21.2625 7.78931 21.2105 7.68188 21.1497C7.57446 21.087 7.47241 21.0109 7.37573 20.9214C7.27905 20.8319 7.19938 20.7236 7.13672 20.5964C7.07585 20.4675 7.04541 20.3136 7.04541 20.1345C7.04541 19.9 7.09912 19.6995 7.20654 19.533C7.31396 19.3665 7.46704 19.2393 7.66577 19.1516C7.86629 19.0621 8.10262 19.0173 8.37476 19.0173C8.57886 19.0173 8.77311 19.0415 8.95752 19.0898C9.14372 19.1364 9.33797 19.2044 9.54028 19.2939L9.27173 19.9412C9.0909 19.8678 8.92887 19.8114 8.78564 19.772C8.64242 19.7308 8.4965 19.7102 8.3479 19.7102C8.24406 19.7102 8.15544 19.7272 8.08203 19.7612C8.00863 19.7935 7.95312 19.84 7.91553 19.9009C7.87793 19.96 7.85913 20.0289 7.85913 20.1077C7.85913 20.2008 7.88599 20.2795 7.9397 20.344C7.9952 20.4067 8.07756 20.4675 8.18677 20.5266C8.29777 20.5857 8.43563 20.6546 8.60034 20.7334C8.80086 20.8283 8.97184 20.9277 9.11328 21.0315C9.25651 21.1335 9.36662 21.2544 9.4436 21.394C9.52059 21.5319 9.55908 21.7038 9.55908 21.9097Z" fill="black"/>
<path d="M12.6743 23L12.3896 22.0654H10.9583L10.6736 23H9.77661L11.1624 19.0576H12.1802L13.5713 23H12.6743ZM12.1909 21.3672L11.9062 20.4541C11.8883 20.3932 11.8642 20.3153 11.8337 20.2205C11.8051 20.1238 11.7756 20.0262 11.7451 19.9277C11.7165 19.8275 11.6932 19.7406 11.6753 19.6672C11.6574 19.7406 11.6323 19.8319 11.6001 19.9412C11.5697 20.0486 11.5401 20.1506 11.5115 20.2473C11.4828 20.344 11.4622 20.4129 11.4497 20.4541L11.1677 21.3672H12.1909Z" fill="black"/>
<path d="M17.1484 19.0737L15.8137 23H14.906L13.574 19.0737H14.4146L15.1531 21.4102C15.1656 21.4495 15.1862 21.5238 15.2148 21.6331C15.2435 21.7405 15.2721 21.8551 15.3008 21.9768C15.3312 22.0968 15.3518 22.1961 15.3625 22.2749C15.3733 22.1961 15.3921 22.0968 15.4189 21.9768C15.4476 21.8569 15.4753 21.7432 15.5022 21.6357C15.5308 21.5265 15.5514 21.4513 15.564 21.4102L16.3079 19.0737H17.1484Z" fill="black"/>
</svg>
