<svg  viewBox="0 0 24 24" fill="none" xmlns="http://www.w3.org/2000/svg">
<path d="M14 3.02665H22V9.18657H14V3.02665Z" fill="black"/>
<path d="M11 3.02665C11 2.45965 11.4477 2 12 2C12.5523 2 13 2.45965 13 3.02665V9.18657C13 9.75358 12.5523 10.2132 12 10.2132C11.4477 10.2132 11 9.75358 11 9.18657V3.02665Z" fill="black"/>
<path d="M10.5007 8.15992V9.6999C10.5007 9.6999 9.81022 10.5908 9.5007 11.2399C8.47038 13.4004 10.0007 17.3998 10.0007 17.3998H6.00019C6.00019 17.3998 5.13422 12.3031 7.00019 10.2132C8.18033 8.89149 10.5007 8.15992 10.5007 8.15992Z" fill="black"/>
<path d="M3 18.4265C3 18.4265 4.19748 18.8739 5 18.9398C6.18395 19.0371 6.77486 18.0726 8 17.9132C9.56176 17.7099 10.3899 18.9256 12 18.9397C13.1877 18.9501 13.7654 17.8841 15 17.9132C15.8049 17.9321 17 18.4265 17 18.4265V20.4798C17 20.4798 15.8049 19.9854 15 19.9665C13.7654 19.9375 13.1877 21.0035 12 20.9931C10.3899 20.979 9.56175 19.7633 8 19.9665C6.77486 20.126 6.18395 21.0904 5 20.9931C4.19748 20.9272 3 20.4798 3 20.4798V18.4265Z" fill="black"/>
</svg>
