<svg viewBox="0 0 24 24" fill="none" xmlns="http://www.w3.org/2000/svg">
<path d="M22 14.35V17.2C22 17.7225 21.5909 18.15 21.0909 18.15H20.1818V19.1C20.1818 20.1545 19.3727 21 18.3636 21H5.63636C4.63636 21 3.81818 20.1545 3.81818 19.1V18.15H2.90909C2.40909 18.15 2 17.7225 2 17.2V14.35C2 13.8275 2.40909 13.4 2.90909 13.4H3.81818C3.81818 9.7235 6.66364 6.75 10.1818 6.75H11.0909V5.5435C10.5455 5.2205 10.1818 4.603 10.1818 3.9C10.1818 2.855 11 2 12 2C13 2 13.8182 2.855 13.8182 3.9C13.8182 4.603 13.4545 5.2205 12.9091 5.5435V6.75H13.8182C17.3364 6.75 20.1818 9.7235 20.1818 13.4H21.0909C21.5909 13.4 22 13.8275 22 14.35ZM20.1818 15.3H18.3636V13.4C18.3636 10.778 16.3273 8.65 13.8182 8.65H10.1818C7.67273 8.65 5.63636 10.778 5.63636 13.4V15.3H3.81818V16.25H5.63636V19.1H18.3636V16.25H20.1818V15.3Z" fill="black"/>
<path d="M16.5003 13.7705C16.5003 12.5267 15.4916 11.502 14.2483 11.502C13.6306 11.502 13.0676 11.7679 12.661 12.1747C12.6532 12.1825 12.6375 12.1982 12.6141 12.2216C12.5515 12.292 12.489 12.3625 12.4342 12.4407C12.2388 12.6832 11.3083 13.8722 11.3083 13.8722C11.1519 14.0834 10.8078 14.545 10.6593 14.6623C10.4169 14.8814 10.1041 15.0378 9.75223 15.0378C9.04067 15.0378 8.46205 14.4589 8.46205 13.7471C8.46205 13.0352 9.04067 12.4563 9.75223 12.4563C10.1119 12.4563 10.4403 12.605 10.6749 12.8475C10.8313 13.0117 11.1284 13.4029 11.2926 13.6141L12.0042 12.7066V10H11.0346V11.9009C10.6671 11.6428 10.2292 11.4941 9.74441 11.4941C8.50115 11.4941 7.50028 12.5033 7.50028 13.7392C7.50028 14.9831 8.50897 15.9844 9.74441 15.9844C10.4012 15.9844 10.9877 15.7027 11.4021 15.2568C11.5272 15.1239 11.8087 14.811 11.9885 14.5137C11.9885 14.5137 12.27 14.897 12.4733 15.1552C12.4812 15.163 12.6219 15.3272 12.6454 15.3507C13.052 15.7575 13.6384 15.9922 14.264 15.9922C14.6706 15.9922 15.0302 15.9061 15.3587 15.7184V14.4042C15.1319 14.7953 14.7409 15.03 14.264 15.03C13.9043 15.03 13.5602 14.9048 13.3256 14.6701C13.1458 14.5059 12.5985 13.7549 12.5985 13.7549C12.5985 13.7549 13.138 13.0352 13.3335 12.8475C13.568 12.6128 13.8886 12.4563 14.2483 12.4563C14.9599 12.4563 15.5307 13.043 15.5385 13.7549V16H16.5003V13.7705Z" fill="black"/>
</svg>
