<svg  viewBox="0 0 24 24" fill="none" xmlns="http://www.w3.org/2000/svg">
<path d="M2 20V17H17V20H2ZM18 20V17H19.5V20H18ZM20.5 20V17H22V20H20.5ZM18 16V14.7C18 14.05 17.8083 13.5542 17.425 13.2125C17.0417 12.8708 16.5833 12.7 16.05 12.7H14.5C13.5667 12.7 12.775 12.375 12.125 11.725C11.475 11.075 11.15 10.2833 11.15 9.35C11.15 8.41667 11.475 7.625 12.125 6.975C12.775 6.325 13.5667 6 14.5 6V7.5C14 7.5 13.5667 7.675 13.2 8.025C12.8333 8.375 12.65 8.81667 12.65 9.35C12.65 9.88333 12.8333 10.325 13.2 10.675C13.5667 11.025 14 11.2 14.5 11.2H16.05C16.9833 11.2 17.7917 11.5 18.475 12.1C19.1583 12.7 19.5 13.45 19.5 14.35V16H18ZM20.5 16V13.75C20.5 12.65 20.1167 11.7 19.35 10.9C18.5833 10.1 17.6333 9.7 16.5 9.7V8.2C17 8.2 17.4333 8.01667 17.8 7.65C18.1667 7.28333 18.35 6.85 18.35 6.35C18.35 5.85 18.1667 5.41667 17.8 5.05C17.4333 4.68333 17 4.5 16.5 4.5V3C17.4333 3 18.225 3.325 18.875 3.975C19.525 4.625 19.85 5.41667 19.85 6.35C19.85 6.83333 19.7583 7.27083 19.575 7.6625C19.3917 8.05417 19.15 8.41667 18.85 8.75C19.7833 9.18333 20.5417 9.85 21.125 10.75C21.7083 11.65 22 12.65 22 13.75V16H20.5Z" fill="black"/>
</svg>
