<svg  viewBox="0 0 24 24" fill="none" xmlns="http://www.w3.org/2000/svg">
<path d="M18.6269 2H13.8808V4.375H18.6269V2Z" fill="black"/>
<path fill-rule="evenodd" clip-rule="evenodd" d="M11.5078 7.10933C11.4425 7.08999 11.3626 7.06728 11.271 7.04306C10.9979 6.97082 10.6279 6.88706 10.2327 6.83711C9.8333 6.78663 9.4339 6.77414 9.09259 6.82893C8.74825 6.88421 8.52253 6.99772 8.38994 7.14592C8.27297 7.27667 8.24843 7.39548 8.29515 7.59397C8.35314 7.84033 8.505 8.12209 8.71945 8.5023L8.74469 8.54701C8.9335 8.8813 9.16857 9.2975 9.28173 9.72211C9.4097 10.2023 9.39781 10.751 9.01451 11.2624C8.64371 11.757 8.15145 11.9425 7.66338 11.9715C7.22411 11.9976 6.76303 11.8973 6.39455 11.8172L6.37409 11.8128C5.96362 11.7236 5.64718 11.6566 5.37141 11.665C5.12857 11.6723 4.96857 11.7368 4.83306 11.8914C4.62556 12.1281 4.45318 12.5685 4.33298 13.0282C4.27647 13.2443 4.23718 13.4417 4.21209 13.585C4.1996 13.6564 4.19077 13.7135 4.18517 13.7519L4.17917 13.7948L4.1779 13.8044L4.17772 13.8059C4.17773 13.8058 4.17774 13.8057 3.58886 13.7337C2.99997 13.6616 2.99999 13.6615 3 13.6614L3.00031 13.6589L3.00093 13.654L3.00306 13.6377C3.00489 13.624 3.00754 13.6047 3.01107 13.5805C3.01812 13.5321 3.02872 13.4637 3.04337 13.3801C3.07256 13.2134 3.11836 12.9829 3.1851 12.7276C3.31139 12.2445 3.53813 11.568 3.94111 11.1082C4.34579 10.6466 4.8521 10.4926 5.3356 10.478C5.76635 10.465 6.21479 10.5627 6.57654 10.6416L6.62588 10.6523C7.03437 10.7411 7.3385 10.8012 7.59308 10.7861C7.80703 10.7734 7.94461 10.7108 8.06537 10.5497C8.1736 10.4054 8.19688 10.2593 8.13527 10.0281C8.06395 9.76049 7.90104 9.467 7.68618 9.08605L7.67331 9.06325C7.48224 8.72462 7.2421 8.29901 7.14023 7.86626C7.0248 7.37587 7.07657 6.83374 7.50598 6.35378C7.88778 5.92702 8.41257 5.73541 8.90467 5.65642C9.3998 5.57693 9.92274 5.60101 10.3814 5.65897C10.8266 5.71524 11.2357 5.80672 11.5387 5.88566C11.6611 5.3602 12.132 4.96875 12.6943 4.96875H19.8135C20.4688 4.96875 21 5.50041 21 6.15625V16.8438C21 17.4996 20.4688 18.0312 19.8135 18.0312H12.6943C12.039 18.0312 11.5078 17.4996 11.5078 16.8438V7.10933ZM19.8135 16.2676V17.4988L12.6943 15.5494V14.3183L19.8135 16.2676ZM19.8135 13.4167V14.6478L12.6943 12.6984V11.4673L19.8135 13.4167ZM19.8135 10.5374V11.7685L12.6943 9.81919V8.58808L19.8135 10.5374ZM19.8135 7.45028V8.68138L12.6943 6.73203V5.50093L19.8135 7.45028Z" fill="black"/>
<path d="M13.8808 18.625H18.6269V21H13.8808V18.625Z" fill="black"/>
</svg>
