<svg viewBox="0 0 24 24" fill="none" xmlns="http://www.w3.org/2000/svg">
<path d="M4 18V4.77778H7.77778V1H17.2222V8.55556H21V18H13.4444V14.2222H11.5556V18H4ZM5.88889 16.1111H7.77778V14.2222H5.88889V16.1111ZM5.88889 12.3333H7.77778V10.4444H5.88889V12.3333ZM5.88889 8.55556H7.77778V6.66667H5.88889V8.55556ZM9.66667 12.3333H11.5556V10.4444H9.66667V12.3333ZM9.66667 8.55556H11.5556V6.66667H9.66667V8.55556ZM9.66667 4.77778H11.5556V2.88889H9.66667V4.77778ZM13.4444 12.3333H15.3333V10.4444H13.4444V12.3333ZM13.4444 8.55556H15.3333V6.66667H13.4444V8.55556ZM13.4444 4.77778H15.3333V2.88889H13.4444V4.77778ZM17.2222 16.1111H19.1111V14.2222H17.2222V16.1111ZM17.2222 12.3333H19.1111V10.4444H17.2222V12.3333Z" fill="black"/>
<path d="M11.2219 19.0737V21.6143C11.2219 21.8846 11.1619 22.129 11.042 22.3474C10.9238 22.564 10.7439 22.7359 10.5022 22.863C10.2623 22.9902 9.95972 23.0537 9.59448 23.0537C9.07528 23.0537 8.67961 22.9212 8.40747 22.6562C8.13534 22.3913 7.99927 22.0404 7.99927 21.6035V19.0737H8.8291V21.4773C8.8291 21.8014 8.89535 22.0287 9.02783 22.1594C9.16032 22.2901 9.35636 22.3555 9.61597 22.3555C9.79858 22.3555 9.94629 22.3241 10.0591 22.2615C10.1737 22.1988 10.2578 22.1021 10.3115 21.9714C10.3652 21.8407 10.3921 21.6742 10.3921 21.4719V19.0737H11.2219Z" fill="black"/>
<path d="M15.4409 20.9993C15.4409 21.4415 15.3559 21.8112 15.1858 22.1084C15.0175 22.4038 14.7731 22.6267 14.4526 22.7771C14.1322 22.9257 13.7463 23 13.2952 23H12.1833V19.0737H13.416C13.8278 19.0737 14.185 19.1471 14.4875 19.2939C14.7901 19.439 15.0247 19.6547 15.1912 19.9412C15.3577 20.2258 15.4409 20.5785 15.4409 20.9993ZM14.5762 21.0208C14.5762 20.7307 14.5332 20.4926 14.4473 20.3064C14.3631 20.1184 14.2378 19.9797 14.0713 19.8901C13.9066 19.8006 13.7025 19.7559 13.459 19.7559H13.0159V22.3125H13.373C13.7795 22.3125 14.0811 22.2042 14.2781 21.9875C14.4768 21.7709 14.5762 21.4486 14.5762 21.0208Z" fill="black"/>
<path d="M16.2546 23V19.0737H17.0872V23H16.2546Z" fill="black"/>
</svg>
