<?xml version="1.0" encoding="utf-8"?>
<!-- Generator: Adobe Illustrator 25.2.3, SVG Export Plug-In . SVG Version: 6.00 Build 0)  -->
<svg version="1.1" id="Livello_1" xmlns="http://www.w3.org/2000/svg" xmlns:xlink="http://www.w3.org/1999/xlink" x="0px" y="0px"
	 viewBox="0 0 256 256" style="enable-background:new 0 0 256 256;" xml:space="preserve">
<style type="text/css">
	.st0{opacity:0.2;fill:#727272;enable-background:new    ;}
	.st1{fill:none;}
	.st2{clip-path:url(#SVGID_2_);}
	.st3{clip-path:url(#SVGID_4_);fill:#747474;}
</style>
<rect x="0" y="-0.1" class="st0" width="255.8" height="255.9"/>
<path class="st1" d="M58.8,60.1h134.7v134.7H58.8V60.1z"/>
<g id="Disegno_10_1_">
	<g>
		<defs>
			<rect id="SVGID_1_" x="69.4" y="69.4" width="117.2" height="117.2"/>
		</defs>
		<clipPath id="SVGID_2_">
			<use xlink:href="#SVGID_1_"  style="overflow:visible;"/>
		</clipPath>
		<g class="st2">
			<defs>
				<rect id="SVGID_3_" x="69.4" y="69.4" width="117.2" height="117.2"/>
			</defs>
			<clipPath id="SVGID_4_">
				<use xlink:href="#SVGID_3_"  style="overflow:visible;"/>
			</clipPath>
			<path class="st3" d="M176.6,69.4H79.4c0,0-9.9,0-9.9,10.8v95.5c0,0,0,10.8,9.9,10.8h97.3c0,0,9.9,0,9.9-10.8V80.3
				C186.6,80.3,186.6,69.4,176.6,69.4 M120.8,140.5c0,1.4-0.2,2.6-0.6,3.4c-0.4,0.9-1.3,1.7-2.7,2.5c-1.6,0.9-3.7,1.7-6.5,2.5
				c-2.8,0.8-6.1,1.2-9.9,1.2c-6.8,0-12-1.5-15.6-4.5c-3.6-3-5.4-7.7-5.4-14.1v-29.6c0.3-0.1,0.9-0.3,1.6-0.5
				c0.7-0.2,1.5-0.3,2.3-0.3c2.8,0,4.3,1.3,4.3,3.8v26.2c0,4.4,1.2,7.6,3.5,9.4c2.3,1.9,5.5,2.8,9.6,2.8c2.7,0,5-0.3,6.9-0.9
				c1.9-0.6,3.4-1.2,4.5-1.8v-38.8c0.3-0.1,0.9-0.3,1.6-0.5c0.7-0.2,1.4-0.3,2.2-0.3c2.9,0,4.4,1.3,4.4,3.8V140.5z M174,136.3
				c-1.1,3.1-2.7,5.7-4.7,7.8c-2,2.1-4.5,3.6-7.3,4.6c-2.8,1-5.9,1.5-9.2,1.5c-2.4,0-4.6-0.3-6.7-0.8c-2.1-0.5-3.8-1.2-5.2-1.9v19.8
				c-0.3,0.1-0.8,0.3-1.5,0.5c-0.7,0.2-1.4,0.3-2.2,0.3c-2.9,0-4.4-1.3-4.4-3.8v-53.8c0-1.4,0.2-2.4,0.7-3.3c0.5-0.8,1.5-1.7,3-2.5
				c1.8-1,4-2,6.6-2.8c2.5-0.8,5.4-1.3,8.7-1.3c3.3,0,6.5,0.5,9.4,1.4c3,1,5.5,2.4,7.6,4.4c2.1,2,3.8,4.6,5.1,7.7
				c1.3,3.1,1.9,6.9,1.9,11.2C175.7,129.5,175.1,133.1,174,136.3"/>
			<path class="st3" d="M162.7,111.2c-1.5-1.4-3.1-2.4-5-3.1c-1.9-0.6-3.9-0.9-6-0.9c-2.4,0-4.5,0.3-6.2,0.9c-1.7,0.6-3.2,1.3-4.6,2
				v30c1.3,1,2.8,1.7,4.6,2.3c1.8,0.6,3.8,0.9,6.2,0.9c4.8,0,8.6-1.4,11.5-4.3c2.9-2.9,4.3-7.5,4.3-13.9c0-3.3-0.4-6.1-1.3-8.5
				C165.3,114.5,164.2,112.6,162.7,111.2"/>
		</g>
	</g>
</g>
</svg>
