<svg  viewBox="0 0 24 24" fill="none" xmlns="http://www.w3.org/2000/svg">
<path d="M9 22.5L7 21V17H6C5.45 17 4.97917 16.8042 4.5875 16.4125C4.19583 16.0208 4 15.55 4 15V7.5C3.71667 7.5 3.47917 7.40417 3.2875 7.2125C3.09583 7.02083 3 6.78333 3 6.5C3 6.21667 3.09583 5.97917 3.2875 5.7875C3.47917 5.59583 3.71667 5.5 4 5.5H7V4H6.5C6.21667 4 5.97917 3.90417 5.7875 3.7125C5.59583 3.52083 5.5 3.28333 5.5 3C5.5 2.71667 5.59583 2.47917 5.7875 2.2875C5.97917 2.09583 6.21667 2 6.5 2H9.5C9.78333 2 10.0208 2.09583 10.2125 2.2875C10.4042 2.47917 10.5 2.71667 10.5 3C10.5 3.28333 10.4042 3.52083 10.2125 3.7125C10.0208 3.90417 9.78333 4 9.5 4H9V5.5H12C12.2833 5.5 12.5208 5.59583 12.7125 5.7875C12.9042 5.97917 13 6.21667 13 6.5C13 6.78333 12.9042 7.02083 12.7125 7.2125C12.5208 7.40417 12.2833 7.5 12 7.5V15C12 15.55 11.8042 16.0208 11.4125 16.4125C11.0208 16.8042 10.55 17 10 17H9V22.5ZM6 15H10V13.5H8.25C8.05 13.5 7.875 13.425 7.725 13.275C7.575 13.125 7.5 12.95 7.5 12.75C7.5 12.55 7.575 12.375 7.725 12.225C7.875 12.075 8.05 12 8.25 12H10V10.5H8.25C8.05 10.5 7.875 10.425 7.725 10.275C7.575 10.125 7.5 9.95 7.5 9.75C7.5 9.55 7.575 9.375 7.725 9.225C7.875 9.075 8.05 9 8.25 9H10V7.5H6V15ZM16 22C15.45 22 14.9792 21.8042 14.5875 21.4125C14.1958 21.0208 14 20.55 14 20V13.5C14 13.0167 14.0833 12.6167 14.25 12.3C14.4167 11.9833 14.5917 11.7083 14.775 11.475C14.9583 11.2417 15.125 11.0542 15.275 10.9125C15.425 10.7708 15.5 10.6333 15.5 10.5V10C15.2167 10 14.9792 9.90417 14.7875 9.7125C14.5958 9.52083 14.5 9.28333 14.5 9C14.5 8.71667 14.5958 8.47917 14.7875 8.2875C14.9792 8.09583 15.2167 8 15.5 8H20.5C20.7833 8 21.0208 8.09583 21.2125 8.2875C21.4042 8.47917 21.5 8.71667 21.5 9C21.5 9.28333 21.4042 9.52083 21.2125 9.7125C21.0208 9.90417 20.7833 10 20.5 10V10.5C20.5 10.6333 20.5833 10.7833 20.75 10.95C20.9167 11.1167 21.1 11.3167 21.3 11.55C21.4833 11.7833 21.6458 12.0583 21.7875 12.375C21.9292 12.6917 22 13.0667 22 13.5V20C22 20.55 21.8042 21.0208 21.4125 21.4125C21.0208 21.8042 20.55 22 20 22H16ZM16 14H20V13.5C20 13.25 19.925 13.0333 19.775 12.85C19.625 12.6667 19.4583 12.4667 19.275 12.25C19.0917 12.0333 18.9167 11.7917 18.75 11.525C18.5833 11.2583 18.5 10.9167 18.5 10.5V10H17.5V10.5C17.5 10.9 17.4208 11.2333 17.2625 11.5C17.1042 11.7667 16.9333 12.0083 16.75 12.225C16.5667 12.4417 16.3958 12.6458 16.2375 12.8375C16.0792 13.0292 16 13.25 16 13.5V14ZM16 20H20V18.5H16V20Z" fill="black"/>
</svg>
