<svg viewBox="0 0 24 24" fill="none" xmlns="http://www.w3.org/2000/svg">
<path d="M4 18V4.77778H7.77778V1H17.2222V8.55556H21V18H13.4444V14.2222H11.5556V18H4ZM5.88889 16.1111H7.77778V14.2222H5.88889V16.1111ZM5.88889 12.3333H7.77778V10.4444H5.88889V12.3333ZM5.88889 8.55556H7.77778V6.66667H5.88889V8.55556ZM9.66667 12.3333H11.5556V10.4444H9.66667V12.3333ZM9.66667 8.55556H11.5556V6.66667H9.66667V8.55556ZM9.66667 4.77778H11.5556V2.88889H9.66667V4.77778ZM13.4444 12.3333H15.3333V10.4444H13.4444V12.3333ZM13.4444 8.55556H15.3333V6.66667H13.4444V8.55556ZM13.4444 4.77778H15.3333V2.88889H13.4444V4.77778ZM17.2222 16.1111H19.1111V14.2222H17.2222V16.1111ZM17.2222 12.3333H19.1111V10.4444H17.2222V12.3333Z" fill="black"/>
<path d="M10.5735 19.0737L9.23877 23H8.33105L6.99902 19.0737H7.8396L8.57812 21.4102C8.59066 21.4495 8.61125 21.5238 8.63989 21.6331C8.66854 21.7405 8.69718 21.8551 8.72583 21.9768C8.75627 22.0968 8.77686 22.1961 8.7876 22.2749C8.79834 22.1961 8.81714 22.0968 8.84399 21.9768C8.87264 21.8569 8.90039 21.7432 8.92725 21.6357C8.95589 21.5265 8.97648 21.4513 8.98901 21.4102L9.73291 19.0737H10.5735Z" fill="black"/>
<path d="M13.3315 23H11.0703V19.0737H13.3315V19.7559H11.9028V20.6179H13.2322V21.3H11.9028V22.3125H13.3315V23Z" fill="black"/>
<path d="M15.2974 19.0737C15.6536 19.0737 15.9473 19.1167 16.1782 19.2026C16.411 19.2886 16.5837 19.4184 16.6965 19.592C16.8093 19.7657 16.8657 19.985 16.8657 20.25C16.8657 20.429 16.8317 20.5857 16.7637 20.72C16.6956 20.8542 16.6061 20.9679 16.4951 21.061C16.3841 21.1541 16.2642 21.2302 16.1353 21.2893L17.29 23H16.3662L15.429 21.4934H14.9858V23H14.1533V19.0737H15.2974ZM15.2383 19.7559H14.9858V20.8167H15.2544C15.5301 20.8167 15.7271 20.771 15.8452 20.6797C15.9652 20.5866 16.0251 20.4505 16.0251 20.2715C16.0251 20.0853 15.9607 19.9528 15.8318 19.874C15.7047 19.7952 15.5068 19.7559 15.2383 19.7559Z" fill="black"/>
</svg>
