<svg viewBox="0 0 24 24" fill="none" xmlns="http://www.w3.org/2000/svg">
<path d="M4 18V4.77778H7.77778V1H17.2222V8.55556H21V18H13.4444V14.2222H11.5556V18H4ZM5.88889 16.1111H7.77778V14.2222H5.88889V16.1111ZM5.88889 12.3333H7.77778V10.4444H5.88889V12.3333ZM5.88889 8.55556H7.77778V6.66667H5.88889V8.55556ZM9.66667 12.3333H11.5556V10.4444H9.66667V12.3333ZM9.66667 8.55556H11.5556V6.66667H9.66667V8.55556ZM9.66667 4.77778H11.5556V2.88889H9.66667V4.77778ZM13.4444 12.3333H15.3333V10.4444H13.4444V12.3333ZM13.4444 8.55556H15.3333V6.66667H13.4444V8.55556ZM13.4444 4.77778H15.3333V2.88889H13.4444V4.77778ZM17.2222 16.1111H19.1111V14.2222H17.2222V16.1111ZM17.2222 12.3333H19.1111V10.4444H17.2222V12.3333Z" fill="black"/>
<path d="M11.575 19.0737L10.2402 23H9.33252L8.00049 19.0737H8.84106L9.57959 21.4102C9.59212 21.4495 9.61271 21.5238 9.64136 21.6331C9.67 21.7405 9.69865 21.8551 9.72729 21.9768C9.75773 22.0968 9.77832 22.1961 9.78906 22.2749C9.7998 22.1961 9.8186 22.0968 9.84546 21.9768C9.8741 21.8569 9.90186 21.7432 9.92871 21.6357C9.95736 21.5265 9.97795 21.4513 9.99048 21.4102L10.7344 19.0737H11.575Z" fill="black"/>
<path d="M12.0718 23V19.0737H12.9043V23H12.0718Z" fill="black"/>
<path d="M15.5603 19.7102C15.401 19.7102 15.2595 19.7415 15.136 19.8042C15.0142 19.8651 14.9113 19.9537 14.8271 20.0701C14.7448 20.1864 14.6821 20.327 14.6392 20.4917C14.5962 20.6564 14.5747 20.8417 14.5747 21.0476C14.5747 21.3251 14.6087 21.5623 14.6768 21.7593C14.7466 21.9544 14.854 22.1039 14.999 22.2078C15.144 22.3098 15.3311 22.3608 15.5603 22.3608C15.7196 22.3608 15.879 22.3429 16.0383 22.3071C16.1995 22.2713 16.374 22.2203 16.562 22.1541V22.8523C16.3883 22.9239 16.2174 22.9749 16.0491 23.0054C15.8808 23.0376 15.6919 23.0537 15.4824 23.0537C15.0778 23.0537 14.7448 22.9705 14.4834 22.804C14.2238 22.6357 14.0313 22.4011 13.906 22.1003C13.7807 21.7978 13.718 21.4451 13.718 21.0422C13.718 20.745 13.7583 20.4729 13.8389 20.2258C13.9194 19.9788 14.0376 19.7648 14.1934 19.584C14.3491 19.4032 14.5416 19.2635 14.7708 19.165C14.9999 19.0666 15.2631 19.0173 15.5603 19.0173C15.7555 19.0173 15.9506 19.0424 16.1458 19.0925C16.3427 19.1409 16.5307 19.208 16.7097 19.2939L16.4412 19.9707C16.2944 19.9009 16.1466 19.84 15.998 19.7881C15.8494 19.7362 15.7035 19.7102 15.5603 19.7102Z" fill="black"/>
</svg>
