<svg  viewBox="0 0 24 24" fill="none" xmlns="http://www.w3.org/2000/svg">
<path d="M12 9L11.15 10.25C10.7 10.95 10.3958 11.4875 10.2375 11.8625C10.0792 12.2375 10 12.6167 10 13C10 13.55 10.1958 14.0208 10.5875 14.4125C10.9792 14.8042 11.45 15 12 15C12.55 15 13.0208 14.8042 13.4125 14.4125C13.8042 14.0208 14 13.55 14 13C14 12.6167 13.9208 12.2375 13.7625 11.8625C13.6042 11.4875 13.3 10.95 12.85 10.25L12 9ZM12 18.25C10.2667 18.25 8.79167 17.6417 7.575 16.425C6.35833 15.2083 5.75 13.7333 5.75 12C5.75 10.2667 6.35833 8.79167 7.575 7.575C8.79167 6.35833 10.2667 5.75 12 5.75C13.7333 5.75 15.2083 6.35833 16.425 7.575C17.6417 8.79167 18.25 10.2667 18.25 12C18.25 13.7333 17.6417 15.2083 16.425 16.425C15.2083 17.6417 13.7333 18.25 12 18.25ZM21 12V11H19.675C19.4917 9.66667 19.0125 8.47083 18.2375 7.4125C17.4625 6.35417 16.4917 5.55 15.325 5H21V4H23V12H21ZM1 20V12H3V13H4.325C4.50833 14.3333 4.9875 15.5292 5.7625 16.5875C6.5375 17.6458 7.50833 18.45 8.675 19H3V20H1Z" fill="#1C1B1F"/>
</svg>
