<svg  viewBox="0 0 24 24" fill="none" xmlns="http://www.w3.org/2000/svg">
<path d="M2.61906 6.47626C2.47521 6.63149 2.36624 6.80921 2.29217 7.00942C2.21809 7.20964 2.18519 7.41851 2.19345 7.63602C2.20172 7.85353 2.25051 8.06269 2.33983 8.26351C2.42914 8.46432 2.55141 8.63666 2.70663 8.78051L3.89196 9.87904C4.04718 10.0229 4.21798 10.1287 4.40434 10.1965C4.59071 10.2643 4.77931 10.3014 4.97015 10.3077C5.16098 10.3141 5.3504 10.2831 5.5384 10.2147C5.72639 10.1463 5.89963 10.0478 6.05812 9.91924L6.2166 9.79069L15.9717 16.0772L19.0319 12.7752L8.25813 2.79038C8.10291 2.64652 7.92519 2.53756 7.72497 2.46348C7.52475 2.38941 7.31589 2.3565 7.09838 2.36477C6.88087 2.37304 6.6717 2.42183 6.47089 2.51114C6.27007 2.60046 6.09774 2.72273 5.95388 2.87795L2.61906 6.47626ZM3.82478 7.57402L7.13998 3.99687L8.3457 5.09462L5.01088 8.69294L3.82478 7.57402Z" fill="black"/>
<path fill-rule="evenodd" clip-rule="evenodd" d="M2 18.0001C2 16.8955 2.89543 16.0001 4 16.0001H20C21.1046 16.0001 22 16.8955 22 18.0001V20.0001C22 21.1047 21.1046 22.0001 20 22.0001H4C2.89543 22.0001 2 21.1047 2 20.0001V18.0001ZM6 17.0001L9.5 17.5001L13 17.0001V18.0001L9.5 18.5001L6 18.0001V17.0001ZM8 20.0001H5V21.0001H8V20.0001ZM14 20.0001H20V21.0001H14V20.0001ZM20 17.0001H18V18.0001H20V17.0001Z" fill="black"/>
</svg>
