<svg id="Livello_1" data-name="Livello 1" xmlns="http://www.w3.org/2000/svg" viewBox="0 0 119.91 64.1"><defs><style>.cls-1{fill:#d41026;}.cls-2{fill:#ababaf;}</style></defs><title>header_logo</title><path class="cls-1" d="M.27,44,5,43.49A5.83,5.83,0,0,0,6.79,47a5.27,5.27,0,0,0,3.55,1.12,5.45,5.45,0,0,0,3.57-1,3,3,0,0,0,1.2-2.34,2.24,2.24,0,0,0-.5-1.47,4.13,4.13,0,0,0-1.77-1c-.57-.2-1.88-.55-3.92-1.06a13.32,13.32,0,0,1-5.54-2.4,6.34,6.34,0,0,1-2.24-4.89A6.24,6.24,0,0,1,2.2,30.46a6.53,6.53,0,0,1,3-2.46A12,12,0,0,1,10,27.15q4.58,0,6.88,2a7.08,7.08,0,0,1,2.43,5.35l-4.9.21A4.19,4.19,0,0,0,13.07,32,4.94,4.94,0,0,0,10,31.21a5.58,5.58,0,0,0-3.35.88,1.77,1.77,0,0,0-.78,1.51,1.88,1.88,0,0,0,.73,1.47,13,13,0,0,0,4.51,1.63,23.6,23.6,0,0,1,5.29,1.74,6.91,6.91,0,0,1,2.69,2.47,7.31,7.31,0,0,1,1,3.87,7.17,7.17,0,0,1-1.16,3.91,7,7,0,0,1-3.28,2.71,13.82,13.82,0,0,1-5.29.89q-4.6,0-7.07-2.13A9.25,9.25,0,0,1,.27,44Z" transform="translate(-0.27 -0.53)"/><path class="cls-1" d="M22.1,34.26h4.29v2.4a6.91,6.91,0,0,1,5.48-2.8,5.87,5.87,0,0,1,2.94.7,5.34,5.34,0,0,1,2,2.1,8.08,8.08,0,0,1,2.51-2.1,6,6,0,0,1,2.86-.7,6.3,6.3,0,0,1,3.28.79,4.75,4.75,0,0,1,2,2.31A10.06,10.06,0,0,1,48,40.61V51.86H43.32V41.8a7.48,7.48,0,0,0-.48-3.38,2.21,2.21,0,0,0-2-1A3.13,3.13,0,0,0,39,38a3.33,3.33,0,0,0-1.25,1.75,12.75,12.75,0,0,0-.38,3.64v8.45H32.74V42.21a13.64,13.64,0,0,0-.25-3.31,2.16,2.16,0,0,0-.77-1.11,2.47,2.47,0,0,0-1.42-.37,3.46,3.46,0,0,0-1.94.58,3.23,3.23,0,0,0-1.23,1.68,12.34,12.34,0,0,0-.38,3.63v8.55H22.1Z" transform="translate(-0.27 -0.53)"/><path class="cls-1" d="M61.11,46.26l4.64.77a7.64,7.64,0,0,1-2.82,3.89,8.31,8.31,0,0,1-4.83,1.33q-4.59,0-6.8-3a10.06,10.06,0,0,1-1.74-6.06,9.73,9.73,0,0,1,2.29-6.85,7.53,7.53,0,0,1,5.78-2.48,7.81,7.81,0,0,1,6.2,2.6c1.51,1.72,2.24,4.37,2.17,7.94H54.33a4.73,4.73,0,0,0,1.13,3.22,3.52,3.52,0,0,0,2.69,1.15A2.81,2.81,0,0,0,60,48.18,3.66,3.66,0,0,0,61.11,46.26Zm.27-4.71a4.47,4.47,0,0,0-1.05-3.07,3.34,3.34,0,0,0-4.93.05,4.28,4.28,0,0,0-1,3Z" transform="translate(-0.27 -0.53)"/><path class="cls-1" d="M116.22,19.72H76.06a4,4,0,0,0-4,4V45.82a3,3,0,0,0-2.21.91,3.14,3.14,0,0,0,0,4.44,3,3,0,0,0,2.21.91v8.59a4,4,0,0,0,4,4h40.16a4,4,0,0,0,4-4v-37a4,4,0,0,0-4-4M74.36,51.17a3.05,3.05,0,0,1-2.25.91V45.82a3.05,3.05,0,0,1,2.25.91,3.16,3.16,0,0,1,0,4.44m22-8.92A27.71,27.71,0,0,1,96,47.43,5.72,5.72,0,0,1,94.81,50a6.27,6.27,0,0,1-2.4,1.66,10.45,10.45,0,0,1-3.92.62,11.22,11.22,0,0,1-4.42-.68,6.23,6.23,0,0,1-2.38-1.75,5.58,5.58,0,0,1-1.16-2.25,24.71,24.71,0,0,1-.4-5.17V31.55h4.11v11A21.55,21.55,0,0,0,84.4,46a3.3,3.3,0,0,0,1.25,2,4.42,4.42,0,0,0,2.72.75A4.18,4.18,0,0,0,91,48a2.86,2.86,0,0,0,1.07-1.76,23.06,23.06,0,0,0,.18-3.46V31.55h4.11ZM114.21,41a5.7,5.7,0,0,1-1.73,2,6,6,0,0,1-2.13,1,24.07,24.07,0,0,1-4.27.29H103.4v7.68H99.29V31.55h6.6a23.36,23.36,0,0,1,4.89.31,5.35,5.35,0,0,1,2.93,2,6.31,6.31,0,0,1,1.18,4,6.67,6.67,0,0,1-.68,3.15m-5.87-5.83a18.6,18.6,0,0,0-3-.14h-2v5.78h2.25a10.74,10.74,0,0,0,3.25-.32,2.65,2.65,0,0,0,1.75-2.59A2.64,2.64,0,0,0,110,36a2.87,2.87,0,0,0-1.66-.9" transform="translate(-0.27 -0.53)"/><path class="cls-2" d="M116.25,8.32a2.2,2.2,0,0,1-.88.18,2.43,2.43,0,0,1-.89-.17,1.93,1.93,0,0,1-.73-.55,2.81,2.81,0,0,1-.51-1,4.52,4.52,0,0,1-.19-1.42,4.45,4.45,0,0,1,.2-1.43,2.52,2.52,0,0,1,.51-1,2,2,0,0,1,.74-.54,2.29,2.29,0,0,1,.87-.17,2.36,2.36,0,0,1,.87.17A2,2,0,0,1,117,3a2.75,2.75,0,0,1,.51,1,4.63,4.63,0,0,1,.2,1.44,5,5,0,0,1-.17,1.36,3,3,0,0,1-.52,1,2,2,0,0,1-.74.55m2.64-6.48a5.42,5.42,0,0,0-7.07,0,4.88,4.88,0,0,0-1.28,3.56A4.87,4.87,0,0,0,111.82,9a5.41,5.41,0,0,0,7.08,0,4.87,4.87,0,0,0,1.28-3.55,4.85,4.85,0,0,0-1.29-3.56M94.74,4.41a1.21,1.21,0,0,1-.34.48,1.42,1.42,0,0,1-.67.3,5.62,5.62,0,0,1-1,.07H92V2.47h.41l1,0a2.18,2.18,0,0,1,.73.16,1.19,1.19,0,0,1,.5.4,1.12,1.12,0,0,1,.21.68,2,2,0,0,1-.1.68M97,2.29a2.48,2.48,0,0,0-.87-.95A3.3,3.3,0,0,0,95.09.88a6.38,6.38,0,0,0-1.5-.16h-4v9.35H92V7h1.5a4.7,4.7,0,0,0,1.71-.28,3.82,3.82,0,0,0,1.25-.84,2.8,2.8,0,0,0,.63-1,3.71,3.71,0,0,0,.22-1.23A3,3,0,0,0,97,2.29M73.27,4.41a1.21,1.21,0,0,1-.34.48,1.42,1.42,0,0,1-.67.3,5.62,5.62,0,0,1-1,.07h-.69V2.47H71l1,0a2.18,2.18,0,0,1,.73.16,1.19,1.19,0,0,1,.5.4,1.12,1.12,0,0,1,.21.68,2,2,0,0,1-.1.68m2.3-2.12a2.48,2.48,0,0,0-.87-.95A3.3,3.3,0,0,0,73.62.88a6.38,6.38,0,0,0-1.5-.16h-4v9.35h2.41V7h1.5a4.7,4.7,0,0,0,1.71-.28A3.93,3.93,0,0,0,75,5.91a2.65,2.65,0,0,0,.62-1,3.47,3.47,0,0,0,.22-1.23,3.09,3.09,0,0,0-.29-1.38M53.85.72H51.42V6.56A2.21,2.21,0,0,1,51,8a1.74,1.74,0,0,1-1.33.45A1.63,1.63,0,0,1,48.36,8,2.2,2.2,0,0,1,48,6.56V.72H45.53v6a3.32,3.32,0,0,0,1,2.65,4.56,4.56,0,0,0,3.1.93,4.57,4.57,0,0,0,3.11-.93,3.31,3.31,0,0,0,1.06-2.65ZM29.44,6.07A3.62,3.62,0,0,0,30.81,5a2.77,2.77,0,0,0,.48-1.69A2.3,2.3,0,0,0,31,2a2.51,2.51,0,0,0-.84-.81A3,3,0,0,0,29,.82,9.45,9.45,0,0,0,27.6.72H23.55v9.35H26V6.64h1.12l2.54,3.43h3Zm-.76-1.85a1.24,1.24,0,0,1-.37.43,1.41,1.41,0,0,1-.65.26,8.5,8.5,0,0,1-1,0H26V2.44h.88c.28,0,.54,0,.76,0a1.7,1.7,0,0,1,.57.12.94.94,0,0,1,.49.39,1.17,1.17,0,0,1,.15.61,1.41,1.41,0,0,1-.12.63m-19.33.7H5V6.69H6.9V8.52l-.31,0h-.3a3.3,3.3,0,0,1-2.43-.83A3.17,3.17,0,0,1,3,5.35,3.52,3.52,0,0,1,3.27,4,2.5,2.5,0,0,1,4.83,2.48,3.25,3.25,0,0,1,6,2.29a3.82,3.82,0,0,1,1,.14,4,4,0,0,1,.85.35,6.3,6.3,0,0,1,.66.41L9,3.56h.27V1.37A7.76,7.76,0,0,0,7.45.71,9.06,9.06,0,0,0,5.69.54,5.17,5.17,0,0,0,1.9,1.88,4.69,4.69,0,0,0,.53,5.39,4.73,4.73,0,0,0,1.88,9a5.16,5.16,0,0,0,3.74,1.3A9.12,9.12,0,0,0,7.68,10a15,15,0,0,0,1.67-.49Z" transform="translate(-0.27 -0.53)"/></svg>