<svg id="Livello_1" data-name="Livello 1" xmlns="http://www.w3.org/2000/svg" viewBox="0 0 499.76 430.53"><defs><style>.cls-1{fill:#fff;}.cls-2,.cls-3{fill:#2e2f2f;}.cls-3{opacity:0.75;}</style></defs><title>Ketchup</title><path class="cls-1" d="M30.53,288.94c-16.59,0-30.29,13.7-30.29,31,0,16.59,13.7,30.29,30.29,31Z" transform="translate(-0.24 -34.37)"/><path class="cls-1" d="M460.34,34.37H70.92S31.25,34.37,31.25,74V288.22c16.59,0,30.29,13.7,30.29,31,0,16.58-13.7,30.29-30.29,31v75s0,39.66,39.67,39.66H460.34s39.66,0,39.66-39.66V74S500,34.37,460.34,34.37Z" transform="translate(-0.24 -34.37)"/><rect class="cls-2" x="173.98" y="125.29" width="86.17" height="86.17"/><rect class="cls-2" x="173.98" y="233.15" width="86.17" height="86.17"/><rect class="cls-2" x="281.7" y="233.15" width="86.17" height="86.17"/><rect class="cls-3" x="278.23" y="163.26" width="86.17" height="86.17" transform="translate(239.77 -201.14) rotate(45)"/></svg>