<svg style="max-width: 360px !important;" xmlns="http://www.w3.org/2000/svg" viewBox="0 0 129.17 48.14"><defs><style>.cls-1{fill:#4c4c4d;}.cls-2{fill:#068a9c;}.cls-3{isolation:isolate;}</style></defs><g id="Livello_2" data-name="Livello 2"><g id="Livello_1-2" data-name="Livello 1"><g id="Raggruppa_76" data-name="Raggruppa 76"><rect id="Rettangolo_36" data-name="Rettangolo 36" class="cls-1" y="3.29" width="19.92" height="19.92"/><rect id="Rettangolo_37" data-name="Rettangolo 37" class="cls-1" y="28.22" width="19.92" height="19.92"/><rect id="Rettangolo_38" data-name="Rettangolo 38" class="cls-1" x="24.9" y="28.22" width="19.92" height="19.92"/><rect id="Rettangolo_39" data-name="Rettangolo 39" class="cls-2" x="24.04" y="4.12" width="19.92" height="19.92" transform="translate(0 28.16) rotate(-45)"/></g><g class="cls-3"><path class="cls-1" d="M64.59,37.84a3.2,3.2,0,0,1-.65.06,1.61,1.61,0,0,1-1-.25,1,1,0,0,1-.32-.87V25.42a2.09,2.09,0,0,1,.45-.11,4.28,4.28,0,0,1,.65,0,1.68,1.68,0,0,1,1,.24,1.07,1.07,0,0,1,.32.88v5.89l3.69-3.67a1.94,1.94,0,0,1,1.16.32,1,1,0,0,1,.43.82,1.16,1.16,0,0,1-.27.76,7.31,7.31,0,0,1-.87.82l-2.05,1.78,3.63,3.4a1.83,1.83,0,0,1-.4,1,1.14,1.14,0,0,1-.93.37,1.41,1.41,0,0,1-.77-.21,4.5,4.5,0,0,1-.81-.74L65,33.85v3.9Z"/><path class="cls-1" d="M74.18,34.35a2.27,2.27,0,0,0,1,1.4,3.32,3.32,0,0,0,1.79.44A4.36,4.36,0,0,0,78.43,36a4.86,4.86,0,0,0,1.09-.5,1.26,1.26,0,0,1,.44.42,1.08,1.08,0,0,1,.17.57,1,1,0,0,1-.26.67,2,2,0,0,1-.7.51,4.58,4.58,0,0,1-1.06.32,7.62,7.62,0,0,1-1.31.11,6.57,6.57,0,0,1-2-.3,4.06,4.06,0,0,1-2.6-2.45,5.59,5.59,0,0,1-.37-2.13,5.36,5.36,0,0,1,.36-2.05,4.21,4.21,0,0,1,1-1.47,4,4,0,0,1,1.43-.87,5.23,5.23,0,0,1,1.73-.28,4.72,4.72,0,0,1,1.71.29,4,4,0,0,1,1.33.82,3.54,3.54,0,0,1,.86,1.25,4,4,0,0,1,.32,1.59,1.05,1.05,0,0,1-.28.8,1.41,1.41,0,0,1-.77.34Zm2.11-4.05a2.15,2.15,0,0,0-1.56.62,2.6,2.6,0,0,0-.7,1.76l4.22-.63a2.17,2.17,0,0,0-.55-1.23A1.81,1.81,0,0,0,76.29,30.3Z"/><path class="cls-1" d="M85.17,35.85a1.74,1.74,0,0,0,1,.26,2.94,2.94,0,0,0,.65-.07,3,3,0,0,0,.6-.19,1.29,1.29,0,0,1,.26.37,1.15,1.15,0,0,1,.1.5,1.11,1.11,0,0,1-.51.94,2.83,2.83,0,0,1-1.65.37,3.77,3.77,0,0,1-2.37-.67,2.67,2.67,0,0,1-.86-2.23V26.41l.44-.1a3.24,3.24,0,0,1,.64-.06,1.62,1.62,0,0,1,1,.25,1.07,1.07,0,0,1,.31.88V29h2.8a1.92,1.92,0,0,1,.17.4,1.83,1.83,0,0,1,.07.53,1,1,0,0,1-.23.72.78.78,0,0,1-.6.23H84.8V35A1,1,0,0,0,85.17,35.85Z"/><path class="cls-1" d="M94.21,30.42a3.06,3.06,0,0,0-1.06.18,2.39,2.39,0,0,0-.83.56,2.51,2.51,0,0,0-.56.89,3.34,3.34,0,0,0-.21,1.23,2.78,2.78,0,0,0,.74,2.12,2.62,2.62,0,0,0,1.92.71,3.35,3.35,0,0,0,1.15-.18,7.86,7.86,0,0,0,.86-.38,1.6,1.6,0,0,1,.43.43,1,1,0,0,1,.16.57,1.23,1.23,0,0,1-.76,1.07A4.39,4.39,0,0,1,94,38a6.3,6.3,0,0,1-2-.29,4.17,4.17,0,0,1-1.55-.89,3.94,3.94,0,0,1-1-1.5,5.48,5.48,0,0,1-.35-2.07,5.32,5.32,0,0,1,.38-2.1,4.14,4.14,0,0,1,1-1.5,4.34,4.34,0,0,1,1.53-.89,5.66,5.66,0,0,1,1.86-.29,4,4,0,0,1,2,.44A1.29,1.29,0,0,1,96.72,30a1,1,0,0,1-.17.56,1.38,1.38,0,0,1-.37.39q-.37-.19-.84-.39A3.16,3.16,0,0,0,94.21,30.42Z"/><path class="cls-1" d="M100.76,37.84a3.1,3.1,0,0,1-.64.06,1.57,1.57,0,0,1-1-.25,1,1,0,0,1-.32-.87V25.42a2.14,2.14,0,0,1,.44-.11,4.5,4.5,0,0,1,.66,0,1.68,1.68,0,0,1,1,.24,1.07,1.07,0,0,1,.32.88V29a5.35,5.35,0,0,1,1-.36,4.48,4.48,0,0,1,1.2-.15,4,4,0,0,1,2.76.89,3.39,3.39,0,0,1,1,2.7v5.66l-.45.09a3.24,3.24,0,0,1-.64.06,1.6,1.6,0,0,1-1-.25,1,1,0,0,1-.33-.87V32.2a1.74,1.74,0,0,0-.49-1.38A1.93,1.93,0,0,0,103,30.4a2.63,2.63,0,0,0-1,.16,4.25,4.25,0,0,0-.8.39v6.8Z"/><path class="cls-1" d="M117.8,36.73a1.34,1.34,0,0,1-.55.53,5.35,5.35,0,0,1-1.39.56,7.14,7.14,0,0,1-1.93.23,6.6,6.6,0,0,1-1.79-.22,3.73,3.73,0,0,1-1.37-.67A2.89,2.89,0,0,1,109.9,36a4.26,4.26,0,0,1-.3-1.67V28.8a2.24,2.24,0,0,1,.44-.1,3.41,3.41,0,0,1,.66-.05,1.68,1.68,0,0,1,1,.24,1,1,0,0,1,.32.88v4.52a1.8,1.8,0,0,0,.5,1.42,2.21,2.21,0,0,0,1.44.42,3.68,3.68,0,0,0,1-.11,2.44,2.44,0,0,0,.61-.25v-7a2.2,2.2,0,0,1,.45-.1,3.26,3.26,0,0,1,.64-.05,1.64,1.64,0,0,1,1,.24,1,1,0,0,1,.32.88V36A1.46,1.46,0,0,1,117.8,36.73Z"/><path class="cls-1" d="M124.64,38a4.61,4.61,0,0,1-1-.1,6.08,6.08,0,0,1-.85-.26v3.5l-.45.09a3.2,3.2,0,0,1-.65.06,1.61,1.61,0,0,1-1-.25,1,1,0,0,1-.32-.87V30.57a1.35,1.35,0,0,1,.18-.74,1.8,1.8,0,0,1,.58-.54,6.37,6.37,0,0,1,1.37-.56,6.91,6.91,0,0,1,1.84-.23,6.57,6.57,0,0,1,1.93.27,4.11,4.11,0,0,1,1.53.86,3.93,3.93,0,0,1,1,1.47,5.65,5.65,0,0,1,.36,2.13,5.83,5.83,0,0,1-.35,2.09,4.25,4.25,0,0,1-.94,1.5,3.85,3.85,0,0,1-1.42.91A5.3,5.3,0,0,1,124.64,38Zm-.36-1.92a2.31,2.31,0,0,0,1.79-.7,3.14,3.14,0,0,0,.65-2.18,3,3,0,0,0-.67-2.19,2.34,2.34,0,0,0-1.71-.64,2.75,2.75,0,0,0-.9.13,5,5,0,0,0-.68.28V35.7a3,3,0,0,0,.68.3A2.72,2.72,0,0,0,124.28,36.11Z"/></g><g class="cls-3"><path class="cls-2" d="M67.81,15.31a1.64,1.64,0,0,1-.65,1.4,3.08,3.08,0,0,1-1.91.51,5,5,0,0,1-1-.09,3.24,3.24,0,0,1-.76-.24,1.57,1.57,0,0,1-.49-.34.53.53,0,0,1-.17-.38.66.66,0,0,1,.09-.33.75.75,0,0,1,.27-.26,4.6,4.6,0,0,0,.88.5,3,3,0,0,0,1.15.21c1,0,1.46-.32,1.46-1s-.33-.87-1-1L64.57,14a2.58,2.58,0,0,1-1.25-.65,1.57,1.57,0,0,1-.39-1.1,1.69,1.69,0,0,1,.15-.7,1.5,1.5,0,0,1,.45-.59,2.38,2.38,0,0,1,.76-.4,3.48,3.48,0,0,1,1.08-.15,3.72,3.72,0,0,1,1.58.29c.4.19.6.41.6.67a.57.57,0,0,1-.09.32.58.58,0,0,1-.25.21,4.92,4.92,0,0,0-.71-.37,2.8,2.8,0,0,0-1.09-.19,1.8,1.8,0,0,0-1,.24.81.81,0,0,0-.16,1.22,1.39,1.39,0,0,0,.7.33l1,.24a3,3,0,0,1,1.43.71A1.67,1.67,0,0,1,67.81,15.31Z"/><path class="cls-2" d="M77.33,11.63a1.61,1.61,0,0,0-1-.32,2.37,2.37,0,0,0-1.63.64,2,2,0,0,1,.09.6V17l-.22.06a1.54,1.54,0,0,1-.3,0c-.4,0-.61-.17-.61-.51v-4a1.24,1.24,0,0,0-.39-1,1.63,1.63,0,0,0-1.06-.32,2.66,2.66,0,0,0-.85.14,3.31,3.31,0,0,0-.68.32V17l-.21.06a1.37,1.37,0,0,1-.31,0q-.6,0-.6-.51V11.83a.84.84,0,0,1,.12-.47,1.34,1.34,0,0,1,.42-.39,4,4,0,0,1,1-.41,4,4,0,0,1,1.17-.18,3.28,3.28,0,0,1,1.22.21,1.76,1.76,0,0,1,.81.55,3.24,3.24,0,0,1,2.16-.76,2.89,2.89,0,0,1,1.81.54,2,2,0,0,1,.67,1.66V17l-.22.06a1.54,1.54,0,0,1-.3,0q-.6,0-.6-.51v-4A1.22,1.22,0,0,0,77.33,11.63Z"/><path class="cls-2" d="M81.76,14.46a2.16,2.16,0,0,0,2.41,1.83,2.78,2.78,0,0,0,1.06-.19,3.12,3.12,0,0,0,.76-.42.6.6,0,0,1,.33.53.57.57,0,0,1-.17.38,1.61,1.61,0,0,1-.48.32,3,3,0,0,1-.7.22,3.85,3.85,0,0,1-.86.09,3.62,3.62,0,0,1-2.57-.89,3.32,3.32,0,0,1-.94-2.57,3.92,3.92,0,0,1,.23-1.42,3,3,0,0,1,.64-1.06,2.78,2.78,0,0,1,1-.66,3.34,3.34,0,0,1,2.41,0,2.72,2.72,0,0,1,.91.6,2.85,2.85,0,0,1,.61.91,3.06,3.06,0,0,1,.21,1.15.58.58,0,0,1-.14.45.7.7,0,0,1-.39.16Zm1.93-3.17a1.84,1.84,0,0,0-1.41.6,2.46,2.46,0,0,0-.59,1.7l3.85-.53A2.11,2.11,0,0,0,85,11.79,1.72,1.72,0,0,0,83.69,11.29Z"/><path class="cls-2" d="M88.24,10.59l.22-.06a1.55,1.55,0,0,1,.31,0c.39,0,.59.17.59.52v3.59a1.58,1.58,0,0,0,.48,1.3,2,2,0,0,0,1.31.38,3.23,3.23,0,0,0,.95-.12,3.36,3.36,0,0,0,.62-.24V10.59l.22-.06.3,0c.4,0,.6.17.6.52v4.87a1.24,1.24,0,0,1-.08.47.83.83,0,0,1-.37.34,4.21,4.21,0,0,1-.89.35,4.85,4.85,0,0,1-1.36.17A3.32,3.32,0,0,1,89,16.6a2.35,2.35,0,0,1-.75-1.93Z"/><path class="cls-2" d="M98.71,17.22a3.93,3.93,0,0,1-.92-.11,3.65,3.65,0,0,1-.72-.27v2.71l-.21.07a1.39,1.39,0,0,1-.3,0c-.4,0-.61-.17-.61-.52V11.74a1,1,0,0,1,.1-.45,1.14,1.14,0,0,1,.41-.34,4.76,4.76,0,0,1,.9-.39,3.69,3.69,0,0,1,1.2-.18,4.15,4.15,0,0,1,1.29.2,2.62,2.62,0,0,1,1.05.61,2.85,2.85,0,0,1,.7,1.06,4,4,0,0,1,.26,1.54,4.32,4.32,0,0,1-.23,1.51,2.8,2.8,0,0,1-.65,1.07,2.57,2.57,0,0,1-1,.64A3.72,3.72,0,0,1,98.71,17.22Zm-.15-.93a2.14,2.14,0,0,0,1.57-.59,2.62,2.62,0,0,0,.6-1.91,3.35,3.35,0,0,0-.18-1.17,1.93,1.93,0,0,0-.47-.76,1.63,1.63,0,0,0-.7-.42,2.47,2.47,0,0,0-.82-.13,2.43,2.43,0,0,0-.86.13,4.59,4.59,0,0,0-.63.27v4.13a2.35,2.35,0,0,0,.63.33A2.79,2.79,0,0,0,98.56,16.29Z"/></g></g></g></svg>